<svg width="500" height="500" viewBox="0 0 500 500" fill="none" xmlns="http://www.w3.org/2000/svg">
<path d="M500 382.4H0V382.65H500V382.4Z" fill="#E0E0E0"/>
<path d="M395.81 390H385.33V390.25H395.81V390Z" fill="#E0E0E0"/>
<path d="M445.58 395H405.33V395.25H445.58V395Z" fill="#E0E0E0"/>
<path d="M280.21 394.26H268.17V394.51H280.21V394.26Z" fill="#E0E0E0"/>
<path d="M262.41 394.26H198.27V394.51H262.41V394.26Z" fill="#E0E0E0"/>
<path d="M139.67 392.68H88.11V392.93H139.67V392.68Z" fill="#E0E0E0"/>
<path d="M361.86 388.56H320.57V388.81H361.86V388.56Z" fill="#E0E0E0"/>
<path d="M79.2401 392.56H64.9301V392.81H79.2401V392.56Z" fill="#E0E0E0"/>
<path d="M237 337.8H43.91C42.3973 337.797 40.9475 337.195 39.8788 336.124C38.8102 335.053 38.21 333.603 38.21 332.09V60.66C38.2231 59.156 38.8292 57.718 39.8964 56.6582C40.9637 55.5985 42.4059 55.0026 43.91 55H237C238.514 55 239.967 55.6016 241.038 56.6724C242.108 57.7433 242.71 59.1956 242.71 60.71V332.09C242.71 333.604 242.108 335.057 241.038 336.128C239.967 337.198 238.514 337.8 237 337.8ZM43.91 55.2C42.4636 55.2026 41.0774 55.7791 40.0556 56.8027C39.0338 57.8264 38.46 59.2136 38.46 60.66V332.09C38.46 333.536 39.0338 334.924 40.0556 335.947C41.0774 336.971 42.4636 337.547 43.91 337.55H237C238.447 337.547 239.834 336.971 240.858 335.948C241.881 334.924 242.457 333.537 242.46 332.09V60.66C242.457 59.2127 241.881 57.8255 240.858 56.8021C239.834 55.7787 238.447 55.2026 237 55.2H43.91Z" fill="#E0E0E0"/>
<path d="M453.31 337.8H260.21C258.696 337.797 257.246 337.195 256.175 336.125C255.105 335.054 254.503 333.604 254.5 332.09V60.66C254.516 59.1551 255.124 57.7171 256.193 56.6576C257.262 55.5981 258.705 55.0025 260.21 55H453.31C454.812 55.0052 456.252 55.6022 457.317 56.6617C458.382 57.7212 458.987 59.1578 459 60.66V332.09C459 333.601 458.401 335.05 457.335 336.121C456.268 337.191 454.821 337.795 453.31 337.8ZM260.21 55.2C258.763 55.2026 257.375 55.7787 256.352 56.8021C255.329 57.8255 254.753 59.2127 254.75 60.66V332.09C254.753 333.537 255.329 334.924 256.352 335.948C257.375 336.971 258.763 337.547 260.21 337.55H453.31C454.757 337.547 456.145 336.971 457.168 335.948C458.191 334.924 458.767 333.537 458.77 332.09V60.66C458.767 59.2127 458.191 57.8255 457.168 56.8021C456.145 55.7787 454.757 55.2026 453.31 55.2H260.21Z" fill="#E0E0E0"/>
<path d="M415.1 92.95H328.43V192.69H415.1V92.95Z" fill="#E0E0E0"/>
<path d="M424.94 92.95H331.11V192.69H424.94V92.95Z" fill="#F0F0F0"/>
<path d="M417.08 184.83V100.81H338.97V184.83H417.08Z" fill="#FAFAFA"/>
<path d="M381.896 166.86C395.184 164.72 404.221 152.213 402.081 138.925C399.941 125.637 387.434 116.6 374.146 118.74C360.858 120.88 351.821 133.387 353.961 146.675C356.102 159.963 368.609 169 381.896 166.86Z" fill="#F0F0F0"/>
<path d="M432.23 295.16H410.24V382.39H432.23V295.16Z" fill="#E0E0E0"/>
<path d="M428.06 382.4H432.23V370.52H423.68L428.06 382.4Z" fill="#EBEBEB"/>
<path d="M335.88 295.16H313.89V382.39H335.88V295.16Z" fill="#E0E0E0"/>
<path d="M432.23 295.16H332.23V375.1H432.23V295.16Z" fill="#EBEBEB"/>
<path d="M429 298.71H335.47V320.63H429V298.71Z" fill="#F5F5F5"/>
<path d="M336.41 382.4H332.23V370.52H340.79L336.41 382.4Z" fill="#EBEBEB"/>
<path d="M380 309.67C380 310.107 380.13 310.534 380.372 310.898C380.615 311.261 380.96 311.544 381.364 311.712C381.768 311.879 382.212 311.923 382.641 311.837C383.07 311.752 383.464 311.542 383.773 311.233C384.082 310.924 384.292 310.53 384.378 310.101C384.463 309.672 384.419 309.228 384.252 308.824C384.085 308.42 383.801 308.075 383.438 307.832C383.074 307.59 382.647 307.46 382.21 307.46C381.624 307.46 381.062 307.693 380.647 308.107C380.233 308.522 380 309.084 380 309.67Z" fill="#E0E0E0"/>
<path d="M429 324.17H335.47V346.1H429V324.17Z" fill="#F5F5F5"/>
<path d="M380 335.14C380.002 335.577 380.133 336.003 380.377 336.365C380.621 336.727 380.967 337.009 381.371 337.175C381.775 337.34 382.219 337.383 382.647 337.296C383.075 337.21 383.468 336.999 383.776 336.689C384.084 336.38 384.294 335.986 384.378 335.558C384.463 335.129 384.418 334.685 384.251 334.282C384.083 333.879 383.8 333.534 383.437 333.292C383.074 333.049 382.647 332.92 382.21 332.92C381.919 332.92 381.631 332.978 381.362 333.089C381.093 333.201 380.849 333.365 380.644 333.571C380.438 333.777 380.276 334.022 380.165 334.291C380.055 334.561 379.999 334.849 380 335.14Z" fill="#E0E0E0"/>
<path d="M429 349.64H335.47V371.56H429V349.64Z" fill="#F5F5F5"/>
<path d="M380 360.6C380 361.037 380.13 361.464 380.372 361.828C380.615 362.191 380.96 362.475 381.364 362.642C381.768 362.809 382.212 362.853 382.641 362.768C383.07 362.682 383.464 362.472 383.773 362.163C384.082 361.854 384.292 361.46 384.378 361.031C384.463 360.602 384.419 360.158 384.252 359.754C384.085 359.35 383.801 359.005 383.438 358.762C383.074 358.52 382.647 358.39 382.21 358.39C381.624 358.39 381.062 358.623 380.647 359.037C380.233 359.452 380 360.014 380 360.6Z" fill="#E0E0E0"/>
<path d="M253.87 272.22C259.11 276.49 266.34 284.33 272.97 295.34C277.39 302.68 280.05 310.34 281.21 320.53C281.21 309.03 281.15 296.67 281.11 285.01C279.78 282.01 276.74 275.1 274.56 269.63C267.28 251.4 264.56 246.92 258.03 231.19C249.3 210.19 240.35 185.33 242.92 187.32C248.13 191.38 268.14 228.83 270.3 234.19C276.179 248.483 279.818 263.597 281.09 279C281.09 268 281.01 258 280.97 250.23C280.83 224.92 280.4 216.76 280.19 214.23C279.38 212.95 278.43 211.46 277.87 210.65C273.17 203.86 271.36 198.07 266.93 187.94C260.66 173.58 255.26 148.09 256.84 149.38C263.41 154.73 268.6 166.24 275.42 180.91C282.24 195.58 280.28 204 281.64 216.53C281.92 218.99 282.14 228.26 282.29 241.12C284.06 227.42 287.38 218.4 293.43 210.19C300.87 200.11 308.07 193.29 313.35 189.74C318.63 186.19 304.23 210.96 297.35 221.74C291.22 231.37 285.57 239.87 282.35 248.24C282.52 265.66 282.6 287.72 282.6 308.24C284.18 298.89 286.76 288.83 290.2 281.04C294.34 271.67 300.7 257.31 305.77 252.44C306.98 251.27 300.47 279.2 296.29 286.63C292.11 294.06 289.04 301.06 286.41 305.27C285.8 306.27 283.76 310.04 282.6 312.21C282.6 337.28 282.46 359.41 282.24 366.94H281.16C281.23 364.94 281.24 352.24 281.22 335.36C278.61 326.2 272.65 315.74 267.73 306.2C262.37 295.88 248.63 267.94 253.87 272.22Z" fill="#E0E0E0"/>
<path d="M266.04 382.4H297.38L299.75 351.68H263.67L266.04 382.4Z" fill="#EBEBEB"/>
<path d="M261.34 355.25H302.08L303.25 344.89H260.17L261.34 355.25Z" fill="#EBEBEB"/>
<path d="M131.49 90.38H75.4399V151.93H131.49V90.38Z" fill="#E0E0E0"/>
<path d="M137.57 90.38H79.67V151.93H137.57V90.38Z" fill="#F0F0F0"/>
<path d="M132.71 147.08V95.23H84.51V147.08H132.71Z" fill="#FAFAFA"/>
<path d="M121.03 134.51V107.8H96.2V134.51H121.03Z" fill="#F0F0F0"/>
<path d="M189.72 127.08H148.14V172.74H189.72V127.08Z" fill="#E0E0E0"/>
<path d="M194.23 127.08H151.28V172.74H194.23V127.08Z" fill="#F0F0F0"/>
<path d="M190.63 169.14V130.68H154.88V169.14H190.63Z" fill="#FAFAFA"/>
<path d="M172.75 140.19L162.97 157.12H182.53L172.75 140.19Z" fill="#F0F0F0"/>
<path d="M98.86 264.57H71.54V377.09H98.86V264.57Z" fill="#EBEBEB"/>
<path d="M266.6 377.09H76.78V382.4H266.6V377.09Z" fill="#EBEBEB"/>
<path d="M98.8501 377.09H271.85V264.57H98.8501V377.09Z" fill="#F5F5F5"/>
<path d="M109.59 334.57H261.11V307.09H109.59V334.57Z" fill="#EBEBEB"/>
<path d="M109.59 367.07H261.11V339.59H109.59V367.07Z" fill="#EBEBEB"/>
<path d="M224.51 310.1H146.2C145.701 310.1 145.221 309.902 144.867 309.55C144.513 309.198 144.313 308.719 144.31 308.22C144.31 307.719 144.509 307.238 144.864 306.884C145.218 306.529 145.699 306.33 146.2 306.33H224.51C225.01 306.333 225.488 306.533 225.84 306.887C226.192 307.241 226.39 307.72 226.39 308.22C226.39 308.719 226.192 309.197 225.839 309.549C225.487 309.902 225.009 310.1 224.51 310.1Z" fill="#F5F5F5"/>
<path d="M109.59 302.07H261.11V274.59H109.59V302.07Z" fill="#EBEBEB"/>
<path d="M224.51 277.61H146.2C145.699 277.61 145.218 277.411 144.864 277.056C144.509 276.702 144.31 276.221 144.31 275.72C144.313 275.22 144.513 274.742 144.867 274.39C145.221 274.038 145.701 273.84 146.2 273.84H224.51C225.009 273.84 225.487 274.038 225.839 274.391C226.192 274.743 226.39 275.221 226.39 275.72C226.39 276.22 226.192 276.699 225.84 277.053C225.488 277.407 225.01 277.607 224.51 277.61Z" fill="#F5F5F5"/>
<path d="M224.51 342.6H146.2C145.699 342.6 145.218 342.401 144.864 342.046C144.509 341.692 144.31 341.211 144.31 340.71C144.313 340.21 144.513 339.732 144.867 339.38C145.221 339.028 145.701 338.83 146.2 338.83H224.51C225.009 338.83 225.487 339.028 225.839 339.381C226.192 339.733 226.39 340.211 226.39 340.71C226.39 341.209 226.192 341.689 225.84 342.043C225.488 342.397 225.01 342.597 224.51 342.6Z" fill="#F5F5F5"/>
<path d="M275.5 255.33H98.86V264.57H275.5V255.33Z" fill="#EBEBEB"/>
<path d="M67.72 264.58H98.86V255.34H67.72V264.58Z" fill="#E0E0E0"/>
<path d="M250 427.56C357.082 427.56 443.89 422.492 443.89 416.24C443.89 409.988 357.082 404.92 250 404.92C142.917 404.92 56.11 409.988 56.11 416.24C56.11 422.492 142.917 427.56 250 427.56Z" fill="#F5F5F5"/>
<path d="M294.428 101.45L293.429 101.492L293.712 108.156L294.711 108.114L294.428 101.45Z" fill="#407BFF"/>
<path opacity="0.3" d="M294.428 101.45L293.429 101.492L293.712 108.156L294.711 108.114L294.428 101.45Z" fill="black"/>
<path d="M293.558 81.1577L292.559 81.2001L293.173 95.6571L294.172 95.6147L293.558 81.1577Z" fill="#407BFF"/>
<path opacity="0.3" d="M293.558 81.1577L292.559 81.2001L293.173 95.6571L294.172 95.6147L293.558 81.1577Z" fill="black"/>
<path d="M46.33 82.83L54.44 274.46L64.98 325.85L300 315.89L289.69 72.52L46.33 82.83Z" fill="#407BFF"/>
<path opacity="0.3" d="M46.33 82.83L54.44 274.46L64.98 325.85L300 315.89L289.69 72.52L46.33 82.83Z" fill="black"/>
<path d="M291.56 307.88L291.1 297.09L290.64 286.3L290.19 275.51L289.73 264.72L289.27 253.93L288.81 243.14L288.36 232.36L287.9 221.57L287.44 210.78L287 199.94L286.77 194.54L286.54 189.15L286.08 178.36L285.62 167.57L285.17 156.78L284.7 146L284.24 135.21L283.78 124.42L283.33 113.63L282.87 102.84L282.41 92L282 81.2C281.997 81.1354 281.97 81.0744 281.923 81.0296C281.877 80.9849 281.815 80.9599 281.75 80.96L270.96 81.42L260.17 81.87L249.37 82.33L55 90.56C54.9338 90.5699 54.8716 90.5975 54.82 90.64C54.7796 90.6911 54.7584 90.7548 54.76 90.82L59.56 204.17L63.56 297.68L54.47 274.47L65 325.85L69.08 317.56L75.45 317.29L86.24 316.83L97 316.38L107.79 315.92L118.58 315.46L129.36 315.01L140.15 314.55L150.93 314.09L161.72 313.63L172.51 313.18L183.29 312.72L194.08 312.26L205 311.8L215.79 311.35L226.57 310.89L237.36 310.43L248.14 309.98L258.92 309.53L269.7 309.07L280.48 308.61L291.26 308.16C291.326 308.153 291.387 308.121 291.43 308.07C291.466 308.053 291.498 308.026 291.52 307.992C291.543 307.959 291.557 307.92 291.56 307.88ZM63.56 285.35L73.85 284.92L74.29 295.21L64 295.65L63.56 285.35ZM63.1 274.56L73.4 274.12L73.83 284.42L63.54 284.85L63.1 274.56ZM62.65 263.77L72.94 263.33L73.38 273.62L63.08 274.06L62.65 263.77ZM62.14 253L72.43 252.56L72.87 262.86L62.57 263.3L62.14 253ZM61.68 242.21L71.98 241.77L72.41 252L62.12 252.44L61.68 242.21ZM61.22 231.41L71.52 230.98L72 241.24L61.71 241.68L61.22 231.41ZM60.77 220.62L71.06 220.18L71.5 230.48L61.2 230.91L60.77 220.62ZM60.31 209.82L70.6 209.39L71 219.65L60.71 220.09L60.31 209.82ZM60.07 204.18L59.85 199L70.15 198.56L70.36 203.71L70.58 208.86L60.29 209.29L60.07 204.18ZM59.39 188.18L69.69 187.75L70.13 198.04L59.83 198.48L59.39 188.18ZM58.94 177.39L69.23 177L69.67 187.3L59.37 187.73L58.94 177.39ZM58.48 166.59L68.77 166.16L69.21 176.45L58.92 176.89L58.48 166.59ZM58 155.82L68.3 155.38L68.73 165.68L58.44 166.11L58 155.82ZM57.57 145L67.86 144.57L68.3 154.86L58 155.3L57.57 145ZM57.11 134.21L67.4 133.77L67.84 144.07L57.54 144.5L57.11 134.21ZM56.65 123.42L67 123L67.43 133.29L57.14 133.73L56.65 123.42ZM56.19 112.62L66.49 112.18L66.92 122.48L56.63 122.92L56.19 112.62ZM55.74 101.83L66 101.41L66.44 111.7L56.14 112.14L55.74 101.83ZM55.28 91.03L65.57 90.6L66 100.91L55.71 101.35L55.28 91.03ZM281.9 91.75L271.61 92.18L271.17 81.89L281.47 81.45L281.9 91.75ZM282.36 102.54L272.06 102.98L271.63 92.68L281.92 92.25L282.36 102.54ZM282.82 113.33L272.52 113.77L272.09 103.48L282.38 103.04L282.82 113.33ZM283.27 124.13L272.98 124.56L272.54 114.27L282.84 113.83L283.27 124.13ZM283.73 134.92L273.44 135.36L273 125.06L283.29 124.63L283.73 134.92ZM284.19 145.72L273.89 146.15L273.46 135.86L283.75 135.42L284.19 145.72ZM284.65 156.51L274.35 156.95L273.91 146.65L284.21 146.22L284.65 156.51ZM285.1 167.31L274.81 167.74L274.37 157.45L284.67 157.01L285.1 167.31ZM285.56 178.1L275.27 178.54L274.83 168.24L285.12 167.81L285.56 178.1ZM286.02 188.9L275.72 189.33L275.29 179.04L285.58 178.6L286.02 188.9ZM286.26 194.54L286.47 199.69L276.18 200.13L276 195L275.78 189.85L286.08 189.42L286.26 194.54ZM286.93 210.49L276.64 210.92L276.2 200.63L286.5 200.19L286.93 210.49ZM287.39 221.28L277.09 221.72L276.66 211.42L287 211L287.39 221.28ZM287.85 232.07L277.55 232.51L277.12 222.22L287.41 221.78L287.85 232.07ZM288.3 242.87L278.01 243.3L277.57 233L287.87 232.56L288.3 242.87ZM288.76 253.66L278.47 254.1L278.03 243.8L288.33 243.37L288.76 253.66ZM289.22 264.46L278.92 264.89L278.49 254.6L288.78 254.16L289.22 264.46ZM289.68 275.25L279.38 275.69L278.95 265.39L289.24 264.96L289.68 275.25ZM290.13 286.05L279.84 286.48L279.4 276.19L289.7 275.75L290.13 286.05ZM290.59 296.84L280.3 297.28L279.86 286.98L290.15 286.55L290.59 296.84ZM70.86 203.69L70.65 198.54L80.94 198.1L81.16 203.25L81.38 208.4L71.08 208.84L70.86 203.69ZM275.46 195L275.68 200.15L265.39 200.58L265.17 195.44L264.95 190.29L275.24 189.85L275.46 195ZM81.66 203.21L81.44 198.06L91.74 197.63L91.95 202.77L92.17 207.92L81.88 208.36L81.66 203.21ZM264.66 195.46L264.88 200.61L254.58 201.04L254.36 195.89L254.14 190.75L264.44 190.31L264.66 195.46ZM92.45 202.77L92.24 197.63L102.53 197.19L102.75 202.34L102.97 207.48L92.67 207.92L92.45 202.77ZM253.87 195.94L254.09 201.08L243.8 201.52L243.58 196.37L243.36 191.22L253.65 190.79L253.87 195.94ZM103.25 202.32L103.03 197.17L113.32 196.73L113.54 201.88L113.76 207.03L103.47 207.46L103.25 202.32ZM243.08 196.39L243.3 201.54L233 202L232.78 196.85L232.57 191.7L242.86 191.27L243.08 196.39ZM114.08 201.86L113.86 196.71L124.16 196.28L124.38 201.42L124.6 206.57L114.3 207.01L114.08 201.86ZM232.32 196.86L232.54 202.01L222.25 202.44L222.03 197.3L221.81 192.15L232.11 191.71L232.32 196.86ZM124.84 201.4L124.62 196.25L134.91 195.82L135.13 200.97L135.35 206.11L125.06 206.55L124.84 201.4ZM221.49 197.31L221.71 202.45L211.41 202.89L211.19 197.74L211 192.6L221.29 192.16L221.49 197.31ZM135.63 200.94L135.41 195.8L145.71 195.36L145.93 200.51L146.15 205.66L135.85 206.09L135.63 200.94ZM210.69 197.76L210.91 202.91L200.62 203.35L200.4 198.2L200.18 193.05L210.48 192.62L210.69 197.76ZM146.43 200.49L146.21 195.34L156.5 194.9L156.72 200.05L156.94 205.2L146.65 205.63L146.43 200.49ZM199.9 198.22L200.12 203.37L189.82 203.81L189.61 198.66L189.39 193.51L199.68 193.07L199.9 198.22ZM168 199.57L167.78 194.43L178.07 193.99L178.29 199.14L178.51 204.28L168.21 204.72L168 199.57ZM167.32 183.63L177.62 183.19L178.05 193.49L167.76 193.93L167.32 183.63ZM167.28 194L156.98 194.43L156.55 184.14L166.84 183.7L167.28 194ZM189.11 198.73L189.32 203.88L179.03 204.31L178.81 199.17L178.59 194.02L188.89 193.58L189.11 198.73ZM178.57 193.52L178.14 183.22L188.43 182.79L188.87 193.08L178.57 193.52ZM178.57 204.83L179.01 215.13L168.71 215.56L168.28 205.27L178.57 204.83ZM179.07 204.83L189.36 204.4L189.8 214.69L179.51 215.13L179.07 204.83ZM189.86 204.38L200.16 203.94L200.6 214.23L190.3 214.67L189.86 204.38ZM189.39 193.08L188.95 182.79L199.24 182.35L199.68 192.64L189.39 193.08ZM188.93 182.29L188.49 171.99L198.79 171.56L199.22 181.85L188.93 182.29ZM188.43 182.29L178.13 182.72L177.7 172.43L187.99 171.99L188.43 182.29ZM177.63 182.74L167.34 183.18L166.9 172.89L177.2 172.45L177.63 182.74ZM166.84 183.2L156.54 183.64L156.11 173.34L166.4 172.91L166.84 183.2ZM156.04 183.66L145.75 184.1L145.31 173.8L155.61 173.36L156.04 183.66ZM156.04 184.16L156.47 194.45L146.18 194.89L145.74 184.6L156.04 184.16ZM157.22 200L157 194.85L167.3 194.42L167.52 199.56L167.73 204.71L157.44 205.15L157.22 200ZM167.76 205.21L168.19 215.51L157.9 216L157.46 205.71L167.76 205.21ZM168.21 216.01L168.65 226.3L158.35 226.74L157.92 216.44L168.21 216.01ZM168.71 216.01L179.01 215.58L179.44 225.87L169.15 226.31L168.71 216.01ZM179.51 215.56L189.8 215.12L190.24 225.42L179.94 225.85L179.51 215.56ZM190.3 215.1L200.6 214.66L201 225L190.71 225.43L190.3 215.1ZM201.1 214.64L211.39 214.21L211.83 224.5L201.53 224.94L201.1 214.64ZM201.1 214.14L200.66 203.85L210.95 203.41L211.39 213.71L201.1 214.14ZM200.18 192.55L199.74 182.26L210.04 181.82L210.48 192.12L200.18 192.55ZM199.72 181.76L199.29 171.46L209.58 171.03L210.02 181.32L199.72 181.76ZM199.27 170.96L198.83 160.67L209.12 160.23L209.56 170.53L199.27 170.96ZM198.77 170.96L188.47 171.39L188 161.13L198.29 160.69L198.77 170.96ZM187.97 171.41L177.68 171.85L177.24 161.55L187.54 161.12L187.97 171.41ZM177.18 171.87L166.88 172.31L166.45 162.01L176.74 161.58L177.18 171.87ZM166.38 172.33L156.09 172.76L155.65 162.47L165.95 162.03L166.38 172.33ZM155.59 172.78L145.29 173.22L144.84 163L155.13 162.56L155.59 172.78ZM144.79 173.24L134.5 173.68L134.06 163.38L144.36 162.95L144.79 173.24ZM144.79 173.74L145.23 184.04L134.94 184.47L134.5 174.18L144.79 173.74ZM145.25 184.54L145.69 194.83L135.39 195.27L135 185L145.25 184.54ZM146.17 206.13L146.6 216.42L136.31 216.86L135.87 206.56L146.17 206.13ZM146.67 206.13L157 205.7L157.4 216L147.1 216.44L146.67 206.13ZM157.42 216.49L157.85 226.79L147.56 227.22L147.12 216.93L157.42 216.49ZM157.88 227.29L158.31 237.58L148 238L147.56 227.7L157.88 227.29ZM158.38 227.29L168.67 226.85L169.11 237.14L158.81 237.58L158.38 227.29ZM169.17 226.83L179.46 226.39L179.9 236.69L169.61 237.12L169.17 226.83ZM179.96 226.37L190.26 225.94L190.7 236.23L180.4 236.67L179.96 226.37ZM190.76 225.91L201.05 225.48L201.49 235.77L191.2 236.21L190.76 225.91ZM201.55 225.46L211.85 225.02L212.28 235.32L201.99 235.75L201.55 225.46ZM212.35 225L222.64 224.56L223.08 234.86L212.78 235.29L212.35 225ZM212.35 224.5L211.91 214.21L222.21 213.77L222.64 224.06L212.35 224.5ZM211.89 213.71L211.45 203.41L221.75 202.97L222.18 213.27L211.89 213.71ZM211 192.1L210.56 181.8L220.85 181.37L221.29 191.66L211 192.1ZM210.54 181.3L210.06 171L220.36 170.56L220.79 180.86L210.54 181.3ZM210 170.51L209.56 160.21L219.86 159.78L220.3 170.07L210 170.51ZM209.54 159.71L209.11 149.42L219.4 148.98L219.84 159.28L209.54 159.71ZM209.04 159.71L198.75 160.15L198.31 149.85L208.61 149.42L209.04 159.71ZM198.25 160.17L187.95 160.61L187.52 150.31L197.81 149.88L198.25 160.17ZM187.45 160.63L177.16 161.06L176.72 150.77L187.02 150.33L187.45 160.63ZM176.66 161.09L166.36 161.52L166 151.25L176.29 150.81L176.66 161.09ZM165.86 161.54L155.57 161.98L155.13 151.68L165.43 151.25L165.86 161.54ZM155.07 162L144.78 162.44L144.34 152.14L154.63 151.71L155.07 162ZM144.28 162.46L133.98 162.89L133.55 152.6L143.84 152.16L144.28 162.46ZM133.48 162.91L123.19 163.35L122.75 153.06L133.05 152.62L133.48 162.91ZM133.48 163.41L133.92 173.71L123.62 174.14L123.19 163.85L133.48 163.41ZM133.94 174.21L134.38 184.5L124.08 184.94L123.65 174.64L133.94 174.21ZM134.4 185L134.83 195.3L124.54 195.73L124.1 185.44L134.4 185ZM135.31 206.59L135.75 216.89L125.45 217.32L125.02 207.03L135.31 206.59ZM135.77 217.39L136.21 227.68L125.91 228.12L125.47 217.82L135.77 217.39ZM136.27 217.39L146.56 216.95L147 227.24L136.71 227.68L136.27 217.39ZM147.02 227.74L147.46 238.04L137.16 238.48L136.73 228.18L147.02 227.74ZM147.48 238.54L147.91 248.83L137.62 249.27L137.24 239L147.48 238.54ZM147.98 238.54L158.27 238.1L158.71 248.4L148.41 248.83L147.98 238.54ZM158.77 238.08L169.07 237.64L169.5 247.94L159.21 248.38L158.77 238.08ZM169.57 237.62L179.86 237.19L180.3 247.48L170 247.92L169.57 237.62ZM180.36 237.17L190.66 236.73L191.09 247.02L180.8 247.46L180.36 237.17ZM191.16 236.71L201.45 236.27L201.89 246.57L191.59 247L191.16 236.71ZM201.95 236.25L212.25 235.82L212.68 246.11L202.39 246.55L201.95 236.25ZM212.75 235.79L223.04 235.36L223.48 245.65L213.18 246.09L212.75 235.79ZM223.54 235.34L233.84 234.9L234.27 245.2L223.98 245.63L223.54 235.34ZM223.54 234.84L223.1 224.54L233.4 224.11L233.83 234.4L223.54 234.84ZM223.08 224.04L222.65 213.75L232.94 213.31L233.38 223.61L223.08 224.04ZM222.62 213.25L222.19 202.95L232.48 202.52L232.92 212.81L222.62 213.25ZM221.71 191.66L221.27 181.36L231.57 180.93L232 191.2L221.71 191.66ZM221.25 180.86L220.82 170.57L231.11 170.13L231.55 180.43L221.25 180.86ZM220.8 170.07L220.36 159.77L230.65 159.34L231.09 169.63L220.8 170.07ZM220.34 159.27L219.94 149L230.24 148.56L230.67 158.86L220.34 159.27ZM219.88 148.48L219.44 138.19L229.74 137.75L230.18 148.04L219.88 148.48ZM219.38 148.48L209.09 148.92L208.65 138.62L218.94 138.19L219.38 148.48ZM208.59 148.94L198.29 149.37L197.86 139.08L208.15 138.64L208.59 148.94ZM197.79 149.4L187.5 149.83L187.06 139.54L197.36 139.1L197.79 149.4ZM187 149.85L176.7 150.29L176.27 139.99L186.56 139.56L187 149.85ZM176.2 150.31L165.91 150.75L165.47 140.45L175.77 140.02L176.2 150.31ZM165.41 150.77L155.11 151.2L154.68 140.91L164.97 140.47L165.41 150.77ZM154.61 151.23L144.32 151.66L143.88 141.37L154.18 140.93L154.61 151.23ZM143.82 151.68L133.52 152.12L133.09 141.82L143.38 141.39L143.82 151.68ZM133.02 152.14L122.73 152.58L122.29 142.28L132.59 141.85L133.02 152.14ZM122.23 152.6L112 153L111.57 142.71L121.86 142.27L122.23 152.6ZM122.23 153.1L122.67 163.39L112.37 163.83L111.94 153.53L122.23 153.1ZM122.69 163.89L123.12 174.19L112.83 174.62L112.39 164.33L122.69 163.89ZM123.14 174.69L123.58 184.98L113.29 185.42L112.85 175.12L123.14 174.69ZM123.6 185.48L124.04 195.78L113.74 196.21L113.31 185.92L123.6 185.48ZM124.52 207.07L124.95 217.36L114.66 217.8L114.22 207.51L124.52 207.07ZM124.97 217.86L125.41 228.16L115.12 228.6L114.68 218.3L124.97 217.86ZM125.43 228.66L125.87 238.95L115.57 239.39L115.14 229.1L125.43 228.66ZM125.93 228.66L136.23 228.22L136.66 238.52L126.37 238.95L125.93 228.66ZM136.74 239L137.18 249.29L126.88 249.73L126.45 239.43L136.74 239ZM137.2 249.79L137.64 260.09L127.34 260.52L126.91 250.23L137.2 249.79ZM137.7 249.79L148 249.35L148.43 259.65L138.14 260.08L137.7 249.79ZM148.5 249.33L158.79 248.9L159.23 259.19L148.93 259.63L148.5 249.33ZM159.29 248.88L169.58 248.44L170.02 258.73L159.73 259.17L159.29 248.88ZM170.08 248.42L180.38 247.98L180.82 258.28L170.52 258.71L170.08 248.42ZM180.88 247.96L191.17 247.52L191.61 257.82L181.32 258.26L180.88 247.96ZM191.67 247.5L201.97 247.07L202.4 257.36L192.11 257.8L191.67 247.5ZM202.47 247.05L212.76 246.61L213.2 256.9L202.9 257.34L202.47 247.05ZM213.26 246.59L223.56 246.15L223.99 256.45L213.7 256.88L213.26 246.59ZM224.06 246.13L234.35 245.7L234.79 255.99L224.49 256.43L224.06 246.13ZM234.85 245.67L245.15 245.24L245.58 255.53L235.29 255.97L234.85 245.67ZM234.85 245.17L234.42 234.88L244.71 234.44L245.15 244.74L234.85 245.17ZM234.39 234.38L233.96 224.08L244.25 223.65L244.69 233.94L234.39 234.38ZM233.94 223.58L233.5 213.29L243.79 212.85L244.23 223.15L233.94 223.58ZM233.48 212.79L233 202.48L243.3 202.04L243.73 212.33L233.48 212.79ZM232.56 191.2L232.13 180.91L242.42 180.47L242.86 190.77L232.56 191.2ZM232.11 180.41L231.67 170.11L241.97 169.68L242.4 179.97L232.11 180.41ZM231.65 169.61L231.21 159.32L241.51 158.88L241.94 169.18L231.65 169.61ZM231.19 158.82L230.76 148.52L241.05 148.09L241.49 158.38L231.19 158.82ZM230.74 148.02L230.3 137.73L240.59 137.29L241.03 147.59L230.74 148.02ZM230.28 137.23L229.84 126.93L240.14 126.5L240.57 136.79L230.28 137.23ZM229.78 137.23L219.48 137.67L219.05 127.37L229.34 126.94L229.78 137.23ZM218.98 137.69L208.69 138.12L208.25 127.83L218.55 127.39L218.98 137.69ZM208.19 138.14L197.89 138.58L197.46 128.29L207.75 127.85L208.19 138.14ZM197.39 138.6L187.1 139.04L186.66 128.74L196.96 128.31L197.39 138.6ZM186.6 139.06L176.3 139.49L175.87 129.2L186.16 128.76L186.6 139.06ZM175.8 139.52L165.51 139.95L165.07 129.66L175.37 129.22L175.8 139.52ZM165 140L154.71 140.44L154.27 130.14L164.56 129.71L165 140ZM154.21 140.46L143.91 140.9L143.48 130.6L153.77 130.17L154.21 140.46ZM143.41 140.92L133.12 141.35L132.67 131L142.97 130.56L143.41 140.92ZM132.62 141.38L122.32 141.81L121.89 131.52L132.18 131.08L132.62 141.38ZM121.82 141.83L111.53 142.27L111.09 131.97L121.39 131.54L121.82 141.83ZM111.03 142.29L100.73 142.73L100.3 132.43L110.59 132L111.03 142.29ZM111.03 142.79L111.46 153.08L101.17 153.52L100.73 143.23L111.03 142.79ZM111.49 153.58L111.92 163.88L101.63 164.31L101.2 154L111.49 153.58ZM111.94 164.38L112.38 174.67L102.08 175.11L101.65 164.81L111.94 164.38ZM112.4 175.17L112.84 185.47L102.54 185.9L102.11 175.61L112.4 175.17ZM112.86 185.97L113.29 196.26L103 196.7L102.56 186.4L112.86 185.97ZM113.77 207.56L114.21 217.85L103.91 218.29L103.48 207.99L113.77 207.56ZM114.23 218.35L114.67 228.65L104.37 229.08L103.93 218.79L114.23 218.35ZM114.69 229.15L115.12 239.44L104.83 239.88L104.39 229.58L114.69 229.15ZM115.14 239.94L115.58 250.24L105.29 250.67L104.85 240.38L115.14 239.94ZM115.64 239.94L125.94 239.5L126.37 249.8L116.08 250.23L115.64 239.94ZM126.4 250.3L126.83 260.59L116.54 261.03L116.1 250.73L126.4 250.3ZM126.85 261.09L127.29 271.39L116.99 271.82L116.56 261.53L126.85 261.09ZM127.35 261.09L137.65 260.66L138.08 270.95L127.79 271.39L127.35 261.09ZM138.15 260.63L148.44 260.2L148.88 270.49L138.58 270.93L138.15 260.63ZM148.94 260.18L159.24 259.74L159.67 270.04L149.38 270.47L148.94 260.18ZM159.74 259.72L170.03 259.28L170.47 269.58L160.17 270.01L159.74 259.72ZM170.53 259.26L180.83 258.83L181.26 269.12L170.97 269.56L170.53 259.26ZM181.33 258.81L191.62 258.37L192.06 268.66L181.76 269.1L181.33 258.81ZM192.12 258.35L202.42 257.91L202.85 268.21L192.56 268.64L192.12 258.35ZM202.92 257.89L213.21 257.45L213.65 267.75L203.35 268.19L202.92 257.89ZM213.71 257.43L224.01 257L224.44 267.29L214.15 267.73L213.71 257.43ZM224.51 256.98L234.8 256.54L235.24 266.83L224.94 267.27L224.51 256.98ZM235.3 256.52L245.6 256L246.04 266.3L235.75 266.73L235.3 256.52ZM246.1 256L256.4 255.57L256.83 265.86L246.54 266.3L246.1 256ZM246.1 255.5L245.67 245.21L255.96 244.77L256.4 255.07L246.1 255.5ZM245.65 244.71L245.21 234.41L255.5 233.98L255.94 244.27L245.65 244.71ZM245.19 233.91L244.75 223.62L255.05 223.18L255.48 233.48L245.19 233.91ZM244.73 223.12L244.29 212.82L254.59 212.39L255.03 222.68L244.73 223.12ZM244.27 212.32L243.82 202L254.11 201.56L254.55 211.86L244.27 212.32ZM243.36 190.73L242.92 180.44L253.22 180L253.65 190.3L243.36 190.73ZM242.9 179.94L242.47 169.64L252.76 169.21L253.2 179.5L242.9 179.94ZM242.44 169.14L242 158.84L252.29 158.4L252.73 168.7L242.44 169.14ZM242 158.34L241.56 148.05L251.86 147.61L252.29 157.9L242 158.34ZM241.54 147.55L241.1 137.25L251.4 136.82L251.83 147.11L241.54 147.55ZM241.08 136.75L240.65 126.46L250.94 126.02L251.38 136.32L241.08 136.75ZM240.6 126L240.16 115.7L250.45 115.27L250.89 125.56L240.6 126ZM240.1 126L229.8 126.43L229.36 116.14L239.66 115.7L240.1 126ZM229.3 126.46L219.01 126.89L218.57 116.6L228.86 116.16L229.3 126.46ZM218.51 126.91L208.21 127.35L207.78 117.05L218.07 116.62L218.51 126.91ZM207.71 127.37L197.42 127.81L196.98 117.51L207.28 117.08L207.71 127.37ZM196.92 127.83L186.62 128.26L186.19 118L196.48 117.56L196.92 127.83ZM186.12 128.28L175.83 128.72L175.39 118.43L185.69 117.99L186.12 128.28ZM175.33 128.74L165.03 129.18L164.6 118.88L174.89 118.45L175.33 128.74ZM164.53 129.2L154.24 129.63L153.8 119.34L164.1 118.9L164.53 129.2ZM153.74 129.66L143.44 130.09L143 119.78L153.29 119.34L153.74 129.66ZM142.94 130.11L132.65 130.55L132.21 120.25L142.51 119.82L142.94 130.11ZM132.15 130.57L121.85 131.01L121.42 120.71L131.71 120.28L132.15 130.57ZM121.35 131.03L111.06 131.46L110.62 121.17L120.92 120.73L121.35 131.03ZM110.56 131.49L100.27 131.92L99.83 121.63L110.12 121.19L110.56 131.49ZM99.77 131.94L89.47 132.38L89 122.06L99.3 121.63L99.77 131.94ZM99.77 132.44L100.2 142.74L89.91 143.17L89.47 132.88L99.77 132.44ZM100.22 143.24L100.66 153.53L90.39 154L90 143.65L100.22 143.24ZM100.7 154L101.14 164.3L90.84 164.73L90.41 154.44L100.7 154ZM101.16 164.8L101.59 175.09L91.3 175.53L90.86 165.23L101.16 164.8ZM101.62 175.59L102.05 185.89L91.76 186.32L91.32 176L101.62 175.59ZM102.07 186.39L102.51 196.68L92.21 197.12L91.78 186.82L102.07 186.39ZM103 208L103.43 218.3L93.14 218.74L92.7 208.44L103 208ZM103.45 218.8L103.89 229.09L93.6 229.53L93.16 219.24L103.45 218.8ZM103.91 229.59L104.35 239.89L94 240.3L93.61 230L103.91 229.59ZM104.37 240.39L104.81 250.68L94.51 251.12L94.07 240.82L104.37 240.39ZM104.83 251.18L105.26 261.48L95 261.89L94.56 251.6L104.83 251.18ZM105.33 251.18L115.62 250.75L116.06 261.04L105.76 261.48L105.33 251.18ZM116.08 261.54L116.51 271.83L106.22 272.27L105.78 261.98L116.08 261.54ZM116.54 272.33L116.97 282.63L106.68 283.07L106.24 272.77L116.54 272.33ZM117.04 272.33L127.33 271.9L127.77 282.19L117.47 282.63L117.04 272.33ZM127.83 271.88L138.13 271.44L138.56 281.73L128.27 282.17L127.83 271.88ZM138.63 271.42L148.92 270.98L149.36 281.28L139.06 281.71L138.63 271.42ZM149.42 270.96L159.71 270.53L160.15 280.82L149.86 281.26L149.42 270.96ZM160.21 270.5L170.51 270.07L170.95 280.36L160.65 280.8L160.21 270.5ZM171 270L181.29 269.56L181.73 279.86L171.44 280.29L171 270ZM181.79 269.54L192.09 269.1L192.52 279.4L182.23 279.83L181.79 269.54ZM192.59 269.08L202.88 268.65L203.32 278.94L193.02 279.38L192.59 269.08ZM203.38 268.63L213.68 268.19L214.11 278.48L203.82 278.92L203.38 268.63ZM214.18 268.17L224.47 267.73L224.91 278.03L214.61 278.46L214.18 268.17ZM225 267.7L235.3 267.26L235.73 277.56L225.44 278L225 267.7ZM235.8 267.24L246.09 266.81L246.53 277.1L236.23 277.54L235.8 267.24ZM246.59 266.79L256.89 266.35L257.32 276.64L247.03 277.08L246.59 266.79ZM257.39 266.33L267.68 265.89L268.12 276.19L257.82 276.62L257.39 266.33ZM257.39 265.83L256.96 255.53L267.25 255.1L267.69 265.39L257.39 265.83ZM256.94 255.03L256.5 244.74L266.8 244.3L267.23 254.6L256.94 255.03ZM256.48 244.24L256.04 233.94L266.34 233.51L266.77 243.8L256.48 244.24ZM256.02 233.44L255.59 223.15L265.88 222.71L266.32 233.01L256.02 233.44ZM255.57 222.65L255.13 212.36L265.42 211.92L265.86 222.21L255.57 222.65ZM255.11 211.86L254.67 201.56L264.97 201.13L265.4 211.42L255.11 211.86ZM254.19 190.27L253.7 180L263.99 179.57L264.43 189.86L254.19 190.27ZM253.74 179.47L253.3 169.18L263.59 168.74L264 179L253.74 179.47ZM253.28 168.68L252.84 158.38L263.14 157.95L263.57 168.24L253.28 168.68ZM252.82 157.88L252.39 147.59L262.68 147.15L263.12 157.45L252.82 157.88ZM252.36 147.09L251.93 136.79L262.22 136.36L262.66 146.65L252.36 147.09ZM251.91 136.29L251.41 126L261.71 125.56L262.14 135.86L251.91 136.29ZM251.45 125.5L251 115.2L261.3 114.77L261.73 125.06L251.45 125.5ZM250.99 114.7L250.56 104.41L260.85 103.97L261.29 114.27L250.99 114.7ZM250.49 114.7L240.2 115.13L239.76 104.84L250.06 104.4L250.49 114.7ZM239.7 115.15L229.4 115.59L228.97 105.29L239.26 104.86L239.7 115.15ZM228.9 115.61L218.61 116.05L218.17 105.75L228.47 105.32L228.9 115.61ZM218.11 116.07L207.81 116.5L207.38 106.21L217.67 105.77L218.11 116.07ZM207.31 116.53L197 117L196.56 106.71L206.86 106.27L207.31 116.53ZM196.52 116.98L186.22 117.42L185.79 107.12L196.08 106.69L196.52 116.98ZM185.72 117.44L175.43 117.88L174.99 107.58L185.29 107.15L185.72 117.44ZM174.93 117.9L164.64 118.33L164.2 108.04L174.49 107.6L174.93 117.9ZM164.14 118.35L153.84 118.79L153.41 108.5L163.7 108.06L164.14 118.35ZM153.34 118.81L143.05 119.25L142.61 108.95L152.91 108.52L153.34 118.81ZM142.55 119.27L132.25 119.7L131.82 109.41L142.11 108.97L142.55 119.27ZM131.75 119.73L121.46 120.16L121 109.9L131.3 109.46L131.75 119.73ZM120.96 120.18L110.66 120.62L110.23 110.32L120.52 109.89L120.96 120.18ZM110.16 120.64L99.87 121.08L99.43 110.78L109.73 110.35L110.16 120.64ZM99.37 121.1L89.07 121.53L88.64 111.24L98.93 110.8L99.37 121.1ZM88.57 121.56L78.22 122L77.78 111.71L88.08 111.27L88.57 121.56ZM88.57 122.06L89 132.38L78.71 132.82L78.27 122.52L88.57 122.06ZM89 132.88L89.44 143.17L79.14 143.61L78.71 133.32L89 132.88ZM89.46 143.67L89.9 153.97L79.6 154.4L79.16 144.11L89.46 143.67ZM89.92 154.47L90.35 164.76L80.06 165.2L79.62 154.9L89.92 154.47ZM90.37 165.26L90.81 175.56L80.51 176L80.07 165.71L90.37 165.26ZM90.83 176.06L91.27 186.35L80.97 186.79L80.54 176.49L90.83 176.06ZM91.29 186.85L91.72 197.15L81.43 197.58L81 187.29L91.29 186.85ZM92.2 208.44L92.64 218.74L82.34 219.17L81.91 208.88L92.2 208.44ZM92.66 219.24L93.1 229.53L82.8 229.97L82.37 219.67L92.66 219.24ZM93.11 230L93.54 240.3L83.25 240.73L82.81 230.44L93.11 230ZM93.56 240.8L94 251.12L83.71 251.56L83.27 241.26L93.56 240.8ZM94 251.62L94.44 261.91L84.14 262.35L83.71 252.06L94 251.62ZM94.46 262.41L94.9 272.71L84.6 273.15L84.17 262.85L94.46 262.41ZM94.96 262.41L105.25 261.98L105.69 272.27L95.4 272.71L94.96 262.41ZM105.71 272.77L106.15 283.07L95.85 283.5L95.42 273.21L105.71 272.77ZM106.17 283.57L106.6 293.86L96.31 294.3L95.89 284L106.17 283.57ZM106.67 283.57L116.96 283.13L117.4 293.42L107.1 293.86L106.67 283.57ZM117.46 283.11L127.76 282.67L128.19 292.97L117.9 293.4L117.46 283.11ZM128.26 282.65L138.55 282.21L138.99 292.51L128.69 292.95L128.26 282.65ZM139.05 282.19L149.35 281.76L149.8 292L139.51 292.44L139.05 282.19ZM149.85 281.74L160.14 281.3L160.58 291.59L150.28 292.03L149.85 281.74ZM160.64 281.28L170.94 280.84L171.37 291.14L161.08 291.57L160.64 281.28ZM171.44 280.82L181.73 280.39L182.17 290.68L171.87 291.12L171.44 280.82ZM182.23 280.36L192.53 279.93L192.96 290.22L182.67 290.66L182.23 280.36ZM193.03 279.91L203.32 279.47L203.76 289.77L193.46 290.2L193.03 279.91ZM203.82 279.45L214.11 279.01L214.55 289.31L204.26 289.74L203.82 279.45ZM214.61 278.99L224.91 278.56L225.35 288.85L215.05 289.29L214.61 278.99ZM225.41 278.54L235.7 278.1L236.14 288.39L225.85 288.83L225.41 278.54ZM236.2 278.08L246.5 277.64L246.93 287.94L236.64 288.37L236.2 278.08ZM247 277.62L257.29 277.18L257.73 287.48L247.43 287.92L247 277.62ZM257.79 277.16L268.09 276.73L268.52 287.02L258.23 287.46L257.79 277.16ZM268.59 276.71L278.88 276.27L279.32 286.56L269 287L268.59 276.71ZM268.59 276.21L268.15 265.91L278.45 265.48L278.88 275.77L268.59 276.21ZM268.13 265.41L267.69 255.12L277.99 254.68L278.42 264.98L268.13 265.41ZM267.67 254.62L267.24 244.32L277.53 243.89L277.97 254.18L267.67 254.62ZM267.21 243.82L266.78 233.53L277.07 233.09L277.51 243.39L267.21 243.82ZM266.76 233L266.32 222.7L276.62 222.27L277.05 232.56L266.76 233ZM266.3 222.2L265.86 211.91L276.16 211.47L276.59 221.77L266.3 222.2ZM265.84 211.41L265.41 201.11L275.7 200.68L276.14 210.97L265.84 211.41ZM264.93 189.82L264.49 179.53L274.79 179.09L275.22 189.38L264.93 189.82ZM264.47 179.02L264 168.72L274.3 168.28L274.74 178.58L264.47 179.02ZM264 168.22L263.57 157.93L273.86 157.49L274.3 167.78L264 168.22ZM263.55 157.43L263.11 147.13L273.4 146.7L273.84 156.99L263.55 157.43ZM263.09 146.63L262.65 136.34L272.95 135.9L273.38 146.2L263.09 146.63ZM262.63 135.84L262.2 125.54L272.49 125.11L272.93 135.4L262.63 135.84ZM262.17 125.04L261.74 114.75L272.03 114.31L272.47 124.61L262.17 125.04ZM261.72 114.25L261.28 103.95L271.58 103.52L272.01 113.81L261.72 114.25ZM261.26 103.45L260.82 93.16L271.12 92.72L271.55 103.02L261.26 103.45ZM260.76 103.45L250.47 103.89L250 93.62L260.29 93.18L260.76 103.45ZM249.97 103.91L239.67 104.35L239.23 94.05L249.53 93.62L249.97 103.91ZM239.17 104.37L228.88 104.8L228.44 94.51L238.73 94.07L239.17 104.37ZM228.38 104.83L218.08 105.26L217.66 95L228 94.55L228.38 104.83ZM217.58 105.28L207.29 105.72L206.85 95.42L217.15 94.99L217.58 105.28ZM206.79 105.74L196.49 106.18L196.06 95.88L206.35 95.45L206.79 105.74ZM195.99 106.2L185.7 106.63L185.26 96.34L195.56 95.9L195.99 106.2ZM185.2 106.66L174.9 107.09L174.47 96.8L184.76 96.36L185.2 106.66ZM174.4 107.11L164.11 107.55L163.67 97.25L173.97 96.82L174.4 107.11ZM163.61 107.57L153.31 108.01L152.88 97.71L163.17 97.28L163.61 107.57ZM152.81 108.03L142.52 108.46L142.08 98.17L152.38 97.73L152.81 108.03ZM142 108.5L131.7 108.94L131.27 98.65L141.56 98.21L142 108.5ZM131.2 108.96L120.91 109.4L120.47 99.1L130.77 98.67L131.2 108.96ZM120.41 109.42L110.12 109.85L109.68 99.56L120 99.12L120.41 109.42ZM109.62 109.88L99.32 110.31L98.91 100L109.21 99.56L109.62 109.88ZM98.82 110.33L88.53 110.77L88.09 100.47L98.41 100L98.82 110.33ZM88.03 110.79L77.73 111.23L77.3 100.93L87.59 100.5L88.03 110.79ZM77.23 111.25L67 111.68L66.56 101.39L76.86 100.95L77.23 111.25ZM77.23 111.75L77.72 122L67.42 122.44L67 112.18L77.23 111.75ZM77.69 122.54L78.13 132.84L67.83 133.27L67.45 123L77.69 122.54ZM78.15 133.34L78.58 143.63L68.29 144.07L67.85 133.77L78.15 133.34ZM78.6 144.13L79.04 154.43L68.75 154.86L68.31 144.57L78.6 144.13ZM79.06 154.93L79.5 165.22L69.2 165.66L68.77 155.36L79.06 154.93ZM79.52 165.72L80 176L69.7 176.43L69.26 166.14L79.52 165.72ZM79.98 176.52L80.41 186.81L70.12 187.25L69.73 177L79.98 176.52ZM80.43 187.31L80.87 197.6L70.63 198L70.19 187.71L80.43 187.31ZM81.35 208.9L81.78 219.19L71.49 219.63L71.05 209.34L81.35 208.9ZM81.81 219.69L82.24 229.99L72 230.42L71.56 220.13L81.81 219.69ZM82.26 230.49L82.7 240.78L72.4 241.22L72 230.92L82.26 230.49ZM82.72 241.28L83.16 251.58L72.86 252.01L72.43 241.72L82.72 241.28ZM83.18 252.08L83.61 262.37L73.32 262.81L72.88 252.51L83.18 252.08ZM83.63 262.87L84.07 273.17L73.78 273.6L73.34 263.31L83.63 262.87ZM84.09 273.67L84.58 284L74.28 284.44L73.85 274.14L84.09 273.67ZM84.59 273.67L94.89 273.23L95.32 283.52L85.03 283.96L84.59 273.67ZM95.39 284L95.83 294.3L85.54 294.73L85.1 284.44L95.39 284ZM95.85 294.8L96.29 305.09L85.99 305.53L85.56 295.23L95.85 294.8ZM96.35 294.8L106.65 294.36L107.08 304.66L96.79 305.09L96.35 294.8ZM107.15 294.34L117.44 293.9L117.88 304.2L107.58 304.63L107.15 294.34ZM117.94 293.88L128.24 293.45L128.67 303.74L118.38 304.18L117.94 293.88ZM128.74 293.43L139 293L139.44 303.29L129.14 303.73L128.74 293.43ZM139.53 292.97L149.82 292.53L150.26 302.83L139.97 303.26L139.53 292.97ZM150.32 292.51L160.62 292.07L161.06 302.37L150.76 302.81L150.32 292.51ZM161.12 292.05L171.41 291.62L171.85 301.91L161.56 302.35L161.12 292.05ZM171.91 291.6L182.21 291.16L182.64 301.45L172.35 301.89L171.91 291.6ZM182.71 291.14L193 290.7L193.44 301L183.14 301.43L182.71 291.14ZM193.5 290.68L203.8 290.25L204.23 300.54L193.94 300.98L193.5 290.68ZM204.3 290.22L214.59 289.79L215.03 300.08L204.73 300.52L204.3 290.22ZM215.09 289.77L225.39 289.33L225.82 299.63L215.53 300.06L215.09 289.77ZM225.89 289.31L236.18 288.87L236.62 299.17L226.32 299.6L225.89 289.31ZM236.68 288.85L246.98 288.42L247.41 298.71L237.12 299.15L236.68 288.85ZM247.48 288.4L257.77 287.96L258.21 298.25L247.91 298.69L247.48 288.4ZM258.27 287.94L268.57 287.5L269 297.8L258.71 298.23L258.27 287.94ZM269.07 287.48L279.36 287.04L279.8 297.34L269.5 297.77L269.07 287.48ZM271.07 92.24L260.77 92.68L260.34 82.38L270.63 81.95L271.07 92.24ZM260.27 92.7L250 93.12L249.56 82.82L259.86 82.39L260.27 92.7ZM249.48 93.16L239.18 93.59L238.75 83.3L249.04 82.86L249.48 93.16ZM238.68 93.61L228.43 94L228 83.74L238.3 83.3L238.68 93.61ZM227.89 94.07L217.59 94.51L217.16 84.21L227.45 83.78L227.89 94.07ZM217.09 94.53L206.8 94.96L206.36 84.67L216.66 84.23L217.09 94.53ZM206.34 95L196.05 95.43L195.61 85.14L205.9 84.7L206.34 95ZM195.55 95.45L185.25 95.89L184.81 85.59L195.11 85.16L195.55 95.45ZM184.75 95.91L174.46 96.35L174 86L184.29 85.57L184.75 95.91ZM174 96.34L163.7 96.77L163.27 86.48L173.52 86L174 96.34ZM163.2 96.8L152.91 97.23L152.47 86.94L162.77 86.5L163.2 96.8ZM152.41 97.25L142.11 97.69L141.68 87.39L151.93 87L152.41 97.25ZM141.61 97.71L131.32 98.15L130.88 87.85L141.18 87.41L141.61 97.71ZM130.82 98.17L120.52 98.6L120.09 88.31L130.38 87.87L130.82 98.17ZM120.02 98.62L109.73 99.06L109.29 88.77L119.59 88.33L120.02 98.62ZM109.23 99.08L98.93 99.52L98.5 89.25L108.79 88.82L109.23 99.08ZM98.43 99.54L88.1 100L87.66 89.75L98 89.24L98.43 99.54ZM87.6 100L77.3 100.43L76.87 90.19L87.16 89.75L87.6 100ZM76.8 100.45L66.51 100.89L66.08 90.67V90.59L76.38 90.16L76.8 100.45ZM74.3 284.9L84.6 284.46L85.04 294.76L74.74 295.19L74.3 284.9ZM85.06 295.26L85.49 305.55L75.2 306L74.76 295.7L85.06 295.26ZM85.51 306.05L86 316.34L75.71 316.78L75.27 306.49L85.51 306.05ZM86.01 306.05L96.31 305.61L96.74 315.91L86.45 316.34L86.01 306.05ZM96.81 305.59L107.1 305.16L107.54 315.45L97.24 315.89L96.81 305.59ZM107.6 305.13L117.9 304.7L118.33 314.99L108.04 315.43L107.6 305.13ZM118.4 304.68L128.69 304.24L129.13 314.54L118.83 314.97L118.4 304.68ZM129.19 304.22L139.49 303.78L139.92 314.08L129.63 314.51L129.19 304.22ZM139.99 303.76L150.28 303.33L150.72 313.62L140.42 314.06L139.99 303.76ZM150.78 303.31L161.08 302.87L161.51 313.16L151.22 313.6L150.78 303.31ZM161.58 302.85L171.87 302.41L172.31 312.71L162.01 313.14L161.58 302.85ZM172.37 302.39L182.67 301.95L183.1 312.25L172.81 312.69L172.37 302.39ZM183.17 301.93L193.46 301.5L193.9 311.79L183.6 312.23L183.17 301.93ZM193.96 301.48L204.25 301.04L204.69 311.33L194.4 311.77L193.96 301.48ZM204.75 301.02L215.05 300.58L215.49 310.88L205.19 311.31L204.75 301.02ZM215.55 300.56L225.84 300.13L226.28 310.42L215.99 310.86L215.55 300.56ZM226.34 300.1L236.64 299.67L237.07 309.96L226.78 310.4L226.34 300.1ZM237.14 299.65L247.43 299.21L247.87 309.51L237.57 309.94L237.14 299.65ZM247.93 299.19L258.23 298.75L258.66 309.05L248.37 309.48L247.93 299.19ZM258.73 298.73L269.02 298.3L269.46 308.59L259.16 309.03L258.73 298.73ZM269.52 298.27L279.82 297.84L280.25 308.13L269.96 308.57L269.52 298.27ZM280.32 297.82L290.61 297.38L291.05 307.68L280.75 308.11L280.32 297.82ZM64 296.15L74.29 295.71L74.7 306L66.92 306.33L64.09 299.11L64 296.15ZM67.14 306.83L74.75 306.51L75.19 316.8L69.34 317.05L70.34 315.05L67.14 306.83Z" fill="#407BFF"/>
<path opacity="0.1" d="M291.56 307.88L291.1 297.09L290.64 286.3L290.19 275.51L289.73 264.72L289.27 253.93L288.81 243.14L288.36 232.36L287.9 221.57L287.44 210.78L287 199.94L286.77 194.54L286.54 189.15L286.08 178.36L285.62 167.57L285.17 156.78L284.7 146L284.24 135.21L283.78 124.42L283.33 113.63L282.87 102.84L282.41 92L282 81.2C281.997 81.1354 281.97 81.0744 281.923 81.0296C281.877 80.9849 281.815 80.9599 281.75 80.96L270.96 81.42L260.17 81.87L249.37 82.33L55 90.56C54.9338 90.5699 54.8716 90.5975 54.82 90.64C54.7796 90.6911 54.7584 90.7548 54.76 90.82L59.56 204.17L63.56 297.68L54.47 274.47L65 325.85L69.08 317.56L75.45 317.29L86.24 316.83L97 316.38L107.79 315.92L118.58 315.46L129.36 315.01L140.15 314.55L150.93 314.09L161.72 313.63L172.51 313.18L183.29 312.72L194.08 312.26L205 311.8L215.79 311.35L226.57 310.89L237.36 310.43L248.14 309.98L258.92 309.53L269.7 309.07L280.48 308.61L291.26 308.16C291.326 308.153 291.387 308.121 291.43 308.07C291.466 308.053 291.498 308.026 291.52 307.992C291.543 307.959 291.557 307.92 291.56 307.88ZM63.56 285.35L73.85 284.92L74.29 295.21L64 295.65L63.56 285.35ZM63.1 274.56L73.4 274.12L73.83 284.42L63.54 284.85L63.1 274.56ZM62.65 263.77L72.94 263.33L73.38 273.62L63.08 274.06L62.65 263.77ZM62.14 253L72.43 252.56L72.87 262.86L62.57 263.3L62.14 253ZM61.68 242.21L71.98 241.77L72.41 252L62.12 252.44L61.68 242.21ZM61.22 231.41L71.52 230.98L72 241.24L61.71 241.68L61.22 231.41ZM60.77 220.62L71.06 220.18L71.5 230.48L61.2 230.91L60.77 220.62ZM60.31 209.82L70.6 209.39L71 219.65L60.71 220.09L60.31 209.82ZM60.07 204.18L59.85 199L70.15 198.56L70.36 203.71L70.58 208.86L60.29 209.29L60.07 204.18ZM59.39 188.18L69.69 187.75L70.13 198.04L59.83 198.48L59.39 188.18ZM58.94 177.39L69.23 177L69.67 187.3L59.37 187.73L58.94 177.39ZM58.48 166.59L68.77 166.16L69.21 176.45L58.92 176.89L58.48 166.59ZM58 155.82L68.3 155.38L68.73 165.68L58.44 166.11L58 155.82ZM57.57 145L67.86 144.57L68.3 154.86L58 155.3L57.57 145ZM57.11 134.21L67.4 133.77L67.84 144.07L57.54 144.5L57.11 134.21ZM56.65 123.42L67 123L67.43 133.29L57.14 133.73L56.65 123.42ZM56.19 112.62L66.49 112.18L66.92 122.48L56.63 122.92L56.19 112.62ZM55.74 101.83L66 101.41L66.44 111.7L56.14 112.14L55.74 101.83ZM55.28 91.03L65.57 90.6L66 100.91L55.71 101.35L55.28 91.03ZM281.9 91.75L271.61 92.18L271.17 81.89L281.47 81.45L281.9 91.75ZM282.36 102.54L272.06 102.98L271.63 92.68L281.92 92.25L282.36 102.54ZM282.82 113.33L272.52 113.77L272.09 103.48L282.38 103.04L282.82 113.33ZM283.27 124.13L272.98 124.56L272.54 114.27L282.84 113.83L283.27 124.13ZM283.73 134.92L273.44 135.36L273 125.06L283.29 124.63L283.73 134.92ZM284.19 145.72L273.89 146.15L273.46 135.86L283.75 135.42L284.19 145.72ZM284.65 156.51L274.35 156.95L273.91 146.65L284.21 146.22L284.65 156.51ZM285.1 167.31L274.81 167.74L274.37 157.45L284.67 157.01L285.1 167.31ZM285.56 178.1L275.27 178.54L274.83 168.24L285.12 167.81L285.56 178.1ZM286.02 188.9L275.72 189.33L275.29 179.04L285.58 178.6L286.02 188.9ZM286.26 194.54L286.47 199.69L276.18 200.13L276 195L275.78 189.85L286.08 189.42L286.26 194.54ZM286.93 210.49L276.64 210.92L276.2 200.63L286.5 200.19L286.93 210.49ZM287.39 221.28L277.09 221.72L276.66 211.42L287 211L287.39 221.28ZM287.85 232.07L277.55 232.51L277.12 222.22L287.41 221.78L287.85 232.07ZM288.3 242.87L278.01 243.3L277.57 233L287.87 232.56L288.3 242.87ZM288.76 253.66L278.47 254.1L278.03 243.8L288.33 243.37L288.76 253.66ZM289.22 264.46L278.92 264.89L278.49 254.6L288.78 254.16L289.22 264.46ZM289.68 275.25L279.38 275.69L278.95 265.39L289.24 264.96L289.68 275.25ZM290.13 286.05L279.84 286.48L279.4 276.19L289.7 275.75L290.13 286.05ZM290.59 296.84L280.3 297.28L279.86 286.98L290.15 286.55L290.59 296.84ZM70.86 203.69L70.65 198.54L80.94 198.1L81.16 203.25L81.38 208.4L71.08 208.84L70.86 203.69ZM275.46 195L275.68 200.15L265.39 200.58L265.17 195.44L264.95 190.29L275.24 189.85L275.46 195ZM81.66 203.21L81.44 198.06L91.74 197.63L91.95 202.77L92.17 207.92L81.88 208.36L81.66 203.21ZM264.66 195.46L264.88 200.61L254.58 201.04L254.36 195.89L254.14 190.75L264.44 190.31L264.66 195.46ZM92.45 202.77L92.24 197.63L102.53 197.19L102.75 202.34L102.97 207.48L92.67 207.92L92.45 202.77ZM253.87 195.94L254.09 201.08L243.8 201.52L243.58 196.37L243.36 191.22L253.65 190.79L253.87 195.94ZM103.25 202.32L103.03 197.17L113.32 196.73L113.54 201.88L113.76 207.03L103.47 207.46L103.25 202.32ZM243.08 196.39L243.3 201.54L233 202L232.78 196.85L232.57 191.7L242.86 191.27L243.08 196.39ZM114.08 201.86L113.86 196.71L124.16 196.28L124.38 201.42L124.6 206.57L114.3 207.01L114.08 201.86ZM232.32 196.86L232.54 202.01L222.25 202.44L222.03 197.3L221.81 192.15L232.11 191.71L232.32 196.86ZM124.84 201.4L124.62 196.25L134.91 195.82L135.13 200.97L135.35 206.11L125.06 206.55L124.84 201.4ZM221.49 197.31L221.71 202.45L211.41 202.89L211.19 197.74L211 192.6L221.29 192.16L221.49 197.31ZM135.63 200.94L135.41 195.8L145.71 195.36L145.93 200.51L146.15 205.66L135.85 206.09L135.63 200.94ZM210.69 197.76L210.91 202.91L200.62 203.35L200.4 198.2L200.18 193.05L210.48 192.62L210.69 197.76ZM146.43 200.49L146.21 195.34L156.5 194.9L156.72 200.05L156.94 205.2L146.65 205.63L146.43 200.49ZM199.9 198.22L200.12 203.37L189.82 203.81L189.61 198.66L189.39 193.51L199.68 193.07L199.9 198.22ZM168 199.57L167.78 194.43L178.07 193.99L178.29 199.14L178.51 204.28L168.21 204.72L168 199.57ZM167.32 183.63L177.62 183.19L178.05 193.49L167.76 193.93L167.32 183.63ZM167.28 194L156.98 194.43L156.55 184.14L166.84 183.7L167.28 194ZM189.11 198.73L189.32 203.88L179.03 204.31L178.81 199.17L178.59 194.02L188.89 193.58L189.11 198.73ZM178.57 193.52L178.14 183.22L188.43 182.79L188.87 193.08L178.57 193.52ZM178.57 204.83L179.01 215.13L168.71 215.56L168.28 205.27L178.57 204.83ZM179.07 204.83L189.36 204.4L189.8 214.69L179.51 215.13L179.07 204.83ZM189.86 204.38L200.16 203.94L200.6 214.23L190.3 214.67L189.86 204.38ZM189.39 193.08L188.95 182.79L199.24 182.35L199.68 192.64L189.39 193.08ZM188.93 182.29L188.49 171.99L198.79 171.56L199.22 181.85L188.93 182.29ZM188.43 182.29L178.13 182.72L177.7 172.43L187.99 171.99L188.43 182.29ZM177.63 182.74L167.34 183.18L166.9 172.89L177.2 172.45L177.63 182.74ZM166.84 183.2L156.54 183.64L156.11 173.34L166.4 172.91L166.84 183.2ZM156.04 183.66L145.75 184.1L145.31 173.8L155.61 173.36L156.04 183.66ZM156.04 184.16L156.47 194.45L146.18 194.89L145.74 184.6L156.04 184.16ZM157.22 200L157 194.85L167.3 194.42L167.52 199.56L167.73 204.71L157.44 205.15L157.22 200ZM167.76 205.21L168.19 215.51L157.9 216L157.46 205.71L167.76 205.21ZM168.21 216.01L168.65 226.3L158.35 226.74L157.92 216.44L168.21 216.01ZM168.71 216.01L179.01 215.58L179.44 225.87L169.15 226.31L168.71 216.01ZM179.51 215.56L189.8 215.12L190.24 225.42L179.94 225.85L179.51 215.56ZM190.3 215.1L200.6 214.66L201 225L190.71 225.43L190.3 215.1ZM201.1 214.64L211.39 214.21L211.83 224.5L201.53 224.94L201.1 214.64ZM201.1 214.14L200.66 203.85L210.95 203.41L211.39 213.71L201.1 214.14ZM200.18 192.55L199.74 182.26L210.04 181.82L210.48 192.12L200.18 192.55ZM199.72 181.76L199.29 171.46L209.58 171.03L210.02 181.32L199.72 181.76ZM199.27 170.96L198.83 160.67L209.12 160.23L209.56 170.53L199.27 170.96ZM198.77 170.96L188.47 171.39L188 161.13L198.29 160.69L198.77 170.96ZM187.97 171.41L177.68 171.85L177.24 161.55L187.54 161.12L187.97 171.41ZM177.18 171.87L166.88 172.31L166.45 162.01L176.74 161.58L177.18 171.87ZM166.38 172.33L156.09 172.76L155.65 162.47L165.95 162.03L166.38 172.33ZM155.59 172.78L145.29 173.22L144.84 163L155.13 162.56L155.59 172.78ZM144.79 173.24L134.5 173.68L134.06 163.38L144.36 162.95L144.79 173.24ZM144.79 173.74L145.23 184.04L134.94 184.47L134.5 174.18L144.79 173.74ZM145.25 184.54L145.69 194.83L135.39 195.27L135 185L145.25 184.54ZM146.17 206.13L146.6 216.42L136.31 216.86L135.87 206.56L146.17 206.13ZM146.67 206.13L157 205.7L157.4 216L147.1 216.44L146.67 206.13ZM157.42 216.49L157.85 226.79L147.56 227.22L147.12 216.93L157.42 216.49ZM157.88 227.29L158.31 237.58L148 238L147.56 227.7L157.88 227.29ZM158.38 227.29L168.67 226.85L169.11 237.14L158.81 237.58L158.38 227.29ZM169.17 226.83L179.46 226.39L179.9 236.69L169.61 237.12L169.17 226.83ZM179.96 226.37L190.26 225.94L190.7 236.23L180.4 236.67L179.96 226.37ZM190.76 225.91L201.05 225.48L201.49 235.77L191.2 236.21L190.76 225.91ZM201.55 225.46L211.85 225.02L212.28 235.32L201.99 235.75L201.55 225.46ZM212.35 225L222.64 224.56L223.08 234.86L212.78 235.29L212.35 225ZM212.35 224.5L211.91 214.21L222.21 213.77L222.64 224.06L212.35 224.5ZM211.89 213.71L211.45 203.41L221.75 202.97L222.18 213.27L211.89 213.71ZM211 192.1L210.56 181.8L220.85 181.37L221.29 191.66L211 192.1ZM210.54 181.3L210.06 171L220.36 170.56L220.79 180.86L210.54 181.3ZM210 170.51L209.56 160.21L219.86 159.78L220.3 170.07L210 170.51ZM209.54 159.71L209.11 149.42L219.4 148.98L219.84 159.28L209.54 159.71ZM209.04 159.71L198.75 160.15L198.31 149.85L208.61 149.42L209.04 159.71ZM198.25 160.17L187.95 160.61L187.52 150.31L197.81 149.88L198.25 160.17ZM187.45 160.63L177.16 161.06L176.72 150.77L187.02 150.33L187.45 160.63ZM176.66 161.09L166.36 161.52L166 151.25L176.29 150.81L176.66 161.09ZM165.86 161.54L155.57 161.98L155.13 151.68L165.43 151.25L165.86 161.54ZM155.07 162L144.78 162.44L144.34 152.14L154.63 151.71L155.07 162ZM144.28 162.46L133.98 162.89L133.55 152.6L143.84 152.16L144.28 162.46ZM133.48 162.91L123.19 163.35L122.75 153.06L133.05 152.62L133.48 162.91ZM133.48 163.41L133.92 173.71L123.62 174.14L123.19 163.85L133.48 163.41ZM133.94 174.21L134.38 184.5L124.08 184.94L123.65 174.64L133.94 174.21ZM134.4 185L134.83 195.3L124.54 195.73L124.1 185.44L134.4 185ZM135.31 206.59L135.75 216.89L125.45 217.32L125.02 207.03L135.31 206.59ZM135.77 217.39L136.21 227.68L125.91 228.12L125.47 217.82L135.77 217.39ZM136.27 217.39L146.56 216.95L147 227.24L136.71 227.68L136.27 217.39ZM147.02 227.74L147.46 238.04L137.16 238.48L136.73 228.18L147.02 227.74ZM147.48 238.54L147.91 248.83L137.62 249.27L137.24 239L147.48 238.54ZM147.98 238.54L158.27 238.1L158.71 248.4L148.41 248.83L147.98 238.54ZM158.77 238.08L169.07 237.64L169.5 247.94L159.21 248.38L158.77 238.08ZM169.57 237.62L179.86 237.19L180.3 247.48L170 247.92L169.57 237.62ZM180.36 237.17L190.66 236.73L191.09 247.02L180.8 247.46L180.36 237.17ZM191.16 236.71L201.45 236.27L201.89 246.57L191.59 247L191.16 236.71ZM201.95 236.25L212.25 235.82L212.68 246.11L202.39 246.55L201.95 236.25ZM212.75 235.79L223.04 235.36L223.48 245.65L213.18 246.09L212.75 235.79ZM223.54 235.34L233.84 234.9L234.27 245.2L223.98 245.63L223.54 235.34ZM223.54 234.84L223.1 224.54L233.4 224.11L233.83 234.4L223.54 234.84ZM223.08 224.04L222.65 213.75L232.94 213.31L233.38 223.61L223.08 224.04ZM222.62 213.25L222.19 202.95L232.48 202.52L232.92 212.81L222.62 213.25ZM221.71 191.66L221.27 181.36L231.57 180.93L232 191.2L221.71 191.66ZM221.25 180.86L220.82 170.57L231.11 170.13L231.55 180.43L221.25 180.86ZM220.8 170.07L220.36 159.77L230.65 159.34L231.09 169.63L220.8 170.07ZM220.34 159.27L219.94 149L230.24 148.56L230.67 158.86L220.34 159.27ZM219.88 148.48L219.44 138.19L229.74 137.75L230.18 148.04L219.88 148.48ZM219.38 148.48L209.09 148.92L208.65 138.62L218.94 138.19L219.38 148.48ZM208.59 148.94L198.29 149.37L197.86 139.08L208.15 138.64L208.59 148.94ZM197.79 149.4L187.5 149.83L187.06 139.54L197.36 139.1L197.79 149.4ZM187 149.85L176.7 150.29L176.27 139.99L186.56 139.56L187 149.85ZM176.2 150.31L165.91 150.75L165.47 140.45L175.77 140.02L176.2 150.31ZM165.41 150.77L155.11 151.2L154.68 140.91L164.97 140.47L165.41 150.77ZM154.61 151.23L144.32 151.66L143.88 141.37L154.18 140.93L154.61 151.23ZM143.82 151.68L133.52 152.12L133.09 141.82L143.38 141.39L143.82 151.68ZM133.02 152.14L122.73 152.58L122.29 142.28L132.59 141.85L133.02 152.14ZM122.23 152.6L112 153L111.57 142.71L121.86 142.27L122.23 152.6ZM122.23 153.1L122.67 163.39L112.37 163.83L111.94 153.53L122.23 153.1ZM122.69 163.89L123.12 174.19L112.83 174.62L112.39 164.33L122.69 163.89ZM123.14 174.69L123.58 184.98L113.29 185.42L112.85 175.12L123.14 174.69ZM123.6 185.48L124.04 195.78L113.74 196.21L113.31 185.92L123.6 185.48ZM124.52 207.07L124.95 217.36L114.66 217.8L114.22 207.51L124.52 207.07ZM124.97 217.86L125.41 228.16L115.12 228.6L114.68 218.3L124.97 217.86ZM125.43 228.66L125.87 238.95L115.57 239.39L115.14 229.1L125.43 228.66ZM125.93 228.66L136.23 228.22L136.66 238.52L126.37 238.95L125.93 228.66ZM136.74 239L137.18 249.29L126.88 249.73L126.45 239.43L136.74 239ZM137.2 249.79L137.64 260.09L127.34 260.52L126.91 250.23L137.2 249.79ZM137.7 249.79L148 249.35L148.43 259.65L138.14 260.08L137.7 249.79ZM148.5 249.33L158.79 248.9L159.23 259.19L148.93 259.63L148.5 249.33ZM159.29 248.88L169.58 248.44L170.02 258.73L159.73 259.17L159.29 248.88ZM170.08 248.42L180.38 247.98L180.82 258.28L170.52 258.71L170.08 248.42ZM180.88 247.96L191.17 247.52L191.61 257.82L181.32 258.26L180.88 247.96ZM191.67 247.5L201.97 247.07L202.4 257.36L192.11 257.8L191.67 247.5ZM202.47 247.05L212.76 246.61L213.2 256.9L202.9 257.34L202.47 247.05ZM213.26 246.59L223.56 246.15L223.99 256.45L213.7 256.88L213.26 246.59ZM224.06 246.13L234.35 245.7L234.79 255.99L224.49 256.43L224.06 246.13ZM234.85 245.67L245.15 245.24L245.58 255.53L235.29 255.97L234.85 245.67ZM234.85 245.17L234.42 234.88L244.71 234.44L245.15 244.74L234.85 245.17ZM234.39 234.38L233.96 224.08L244.25 223.65L244.69 233.94L234.39 234.38ZM233.94 223.58L233.5 213.29L243.79 212.85L244.23 223.15L233.94 223.58ZM233.48 212.79L233 202.48L243.3 202.04L243.73 212.33L233.48 212.79ZM232.56 191.2L232.13 180.91L242.42 180.47L242.86 190.77L232.56 191.2ZM232.11 180.41L231.67 170.11L241.97 169.68L242.4 179.97L232.11 180.41ZM231.65 169.61L231.21 159.32L241.51 158.88L241.94 169.18L231.65 169.61ZM231.19 158.82L230.76 148.52L241.05 148.09L241.49 158.38L231.19 158.82ZM230.74 148.02L230.3 137.73L240.59 137.29L241.03 147.59L230.74 148.02ZM230.28 137.23L229.84 126.93L240.14 126.5L240.57 136.79L230.28 137.23ZM229.78 137.23L219.48 137.67L219.05 127.37L229.34 126.94L229.78 137.23ZM218.98 137.69L208.69 138.12L208.25 127.83L218.55 127.39L218.98 137.69ZM208.19 138.14L197.89 138.58L197.46 128.29L207.75 127.85L208.19 138.14ZM197.39 138.6L187.1 139.04L186.66 128.74L196.96 128.31L197.39 138.6ZM186.6 139.06L176.3 139.49L175.87 129.2L186.16 128.76L186.6 139.06ZM175.8 139.52L165.51 139.95L165.07 129.66L175.37 129.22L175.8 139.52ZM165 140L154.71 140.44L154.27 130.14L164.56 129.71L165 140ZM154.21 140.46L143.91 140.9L143.48 130.6L153.77 130.17L154.21 140.46ZM143.41 140.92L133.12 141.35L132.67 131L142.97 130.56L143.41 140.92ZM132.62 141.38L122.32 141.81L121.89 131.52L132.18 131.08L132.62 141.38ZM121.82 141.83L111.53 142.27L111.09 131.97L121.39 131.54L121.82 141.83ZM111.03 142.29L100.73 142.73L100.3 132.43L110.59 132L111.03 142.29ZM111.03 142.79L111.46 153.08L101.17 153.52L100.73 143.23L111.03 142.79ZM111.49 153.58L111.92 163.88L101.63 164.31L101.2 154L111.49 153.58ZM111.94 164.38L112.38 174.67L102.08 175.11L101.65 164.81L111.94 164.38ZM112.4 175.17L112.84 185.47L102.54 185.9L102.11 175.61L112.4 175.17ZM112.86 185.97L113.29 196.26L103 196.7L102.56 186.4L112.86 185.97ZM113.77 207.56L114.21 217.85L103.91 218.29L103.48 207.99L113.77 207.56ZM114.23 218.35L114.67 228.65L104.37 229.08L103.93 218.79L114.23 218.35ZM114.69 229.15L115.12 239.44L104.83 239.88L104.39 229.58L114.69 229.15ZM115.14 239.94L115.58 250.24L105.29 250.67L104.85 240.38L115.14 239.94ZM115.64 239.94L125.94 239.5L126.37 249.8L116.08 250.23L115.64 239.94ZM126.4 250.3L126.83 260.59L116.54 261.03L116.1 250.73L126.4 250.3ZM126.85 261.09L127.29 271.39L116.99 271.82L116.56 261.53L126.85 261.09ZM127.35 261.09L137.65 260.66L138.08 270.95L127.79 271.39L127.35 261.09ZM138.15 260.63L148.44 260.2L148.88 270.49L138.58 270.93L138.15 260.63ZM148.94 260.18L159.24 259.74L159.67 270.04L149.38 270.47L148.94 260.18ZM159.74 259.72L170.03 259.28L170.47 269.58L160.17 270.01L159.74 259.72ZM170.53 259.26L180.83 258.83L181.26 269.12L170.97 269.56L170.53 259.26ZM181.33 258.81L191.62 258.37L192.06 268.66L181.76 269.1L181.33 258.81ZM192.12 258.35L202.42 257.91L202.85 268.21L192.56 268.64L192.12 258.35ZM202.92 257.89L213.21 257.45L213.65 267.75L203.35 268.19L202.92 257.89ZM213.71 257.43L224.01 257L224.44 267.29L214.15 267.73L213.71 257.43ZM224.51 256.98L234.8 256.54L235.24 266.83L224.94 267.27L224.51 256.98ZM235.3 256.52L245.6 256L246.04 266.3L235.75 266.73L235.3 256.52ZM246.1 256L256.4 255.57L256.83 265.86L246.54 266.3L246.1 256ZM246.1 255.5L245.67 245.21L255.96 244.77L256.4 255.07L246.1 255.5ZM245.65 244.71L245.21 234.41L255.5 233.98L255.94 244.27L245.65 244.71ZM245.19 233.91L244.75 223.62L255.05 223.18L255.48 233.48L245.19 233.91ZM244.73 223.12L244.29 212.82L254.59 212.39L255.03 222.68L244.73 223.12ZM244.27 212.32L243.82 202L254.11 201.56L254.55 211.86L244.27 212.32ZM243.36 190.73L242.92 180.44L253.22 180L253.65 190.3L243.36 190.73ZM242.9 179.94L242.47 169.64L252.76 169.21L253.2 179.5L242.9 179.94ZM242.44 169.14L242 158.84L252.29 158.4L252.73 168.7L242.44 169.14ZM242 158.34L241.56 148.05L251.86 147.61L252.29 157.9L242 158.34ZM241.54 147.55L241.1 137.25L251.4 136.82L251.83 147.11L241.54 147.55ZM241.08 136.75L240.65 126.46L250.94 126.02L251.38 136.32L241.08 136.75ZM240.6 126L240.16 115.7L250.45 115.27L250.89 125.56L240.6 126ZM240.1 126L229.8 126.43L229.36 116.14L239.66 115.7L240.1 126ZM229.3 126.46L219.01 126.89L218.57 116.6L228.86 116.16L229.3 126.46ZM218.51 126.91L208.21 127.35L207.78 117.05L218.07 116.62L218.51 126.91ZM207.71 127.37L197.42 127.81L196.98 117.51L207.28 117.08L207.71 127.37ZM196.92 127.83L186.62 128.26L186.19 118L196.48 117.56L196.92 127.83ZM186.12 128.28L175.83 128.72L175.39 118.43L185.69 117.99L186.12 128.28ZM175.33 128.74L165.03 129.18L164.6 118.88L174.89 118.45L175.33 128.74ZM164.53 129.2L154.24 129.63L153.8 119.34L164.1 118.9L164.53 129.2ZM153.74 129.66L143.44 130.09L143 119.78L153.29 119.34L153.74 129.66ZM142.94 130.11L132.65 130.55L132.21 120.25L142.51 119.82L142.94 130.11ZM132.15 130.57L121.85 131.01L121.42 120.71L131.71 120.28L132.15 130.57ZM121.35 131.03L111.06 131.46L110.62 121.17L120.92 120.73L121.35 131.03ZM110.56 131.49L100.27 131.92L99.83 121.63L110.12 121.19L110.56 131.49ZM99.77 131.94L89.47 132.38L89 122.06L99.3 121.63L99.77 131.94ZM99.77 132.44L100.2 142.74L89.91 143.17L89.47 132.88L99.77 132.44ZM100.22 143.24L100.66 153.53L90.39 154L90 143.65L100.22 143.24ZM100.7 154L101.14 164.3L90.84 164.73L90.41 154.44L100.7 154ZM101.16 164.8L101.59 175.09L91.3 175.53L90.86 165.23L101.16 164.8ZM101.62 175.59L102.05 185.89L91.76 186.32L91.32 176L101.62 175.59ZM102.07 186.39L102.51 196.68L92.21 197.12L91.78 186.82L102.07 186.39ZM103 208L103.43 218.3L93.14 218.74L92.7 208.44L103 208ZM103.45 218.8L103.89 229.09L93.6 229.53L93.16 219.24L103.45 218.8ZM103.91 229.59L104.35 239.89L94 240.3L93.61 230L103.91 229.59ZM104.37 240.39L104.81 250.68L94.51 251.12L94.07 240.82L104.37 240.39ZM104.83 251.18L105.26 261.48L95 261.89L94.56 251.6L104.83 251.18ZM105.33 251.18L115.62 250.75L116.06 261.04L105.76 261.48L105.33 251.18ZM116.08 261.54L116.51 271.83L106.22 272.27L105.78 261.98L116.08 261.54ZM116.54 272.33L116.97 282.63L106.68 283.07L106.24 272.77L116.54 272.33ZM117.04 272.33L127.33 271.9L127.77 282.19L117.47 282.63L117.04 272.33ZM127.83 271.88L138.13 271.44L138.56 281.73L128.27 282.17L127.83 271.88ZM138.63 271.42L148.92 270.98L149.36 281.28L139.06 281.71L138.63 271.42ZM149.42 270.96L159.71 270.53L160.15 280.82L149.86 281.26L149.42 270.96ZM160.21 270.5L170.51 270.07L170.95 280.36L160.65 280.8L160.21 270.5ZM171 270L181.29 269.56L181.73 279.86L171.44 280.29L171 270ZM181.79 269.54L192.09 269.1L192.52 279.4L182.23 279.83L181.79 269.54ZM192.59 269.08L202.88 268.65L203.32 278.94L193.02 279.38L192.59 269.08ZM203.38 268.63L213.68 268.19L214.11 278.48L203.82 278.92L203.38 268.63ZM214.18 268.17L224.47 267.73L224.91 278.03L214.61 278.46L214.18 268.17ZM225 267.7L235.3 267.26L235.73 277.56L225.44 278L225 267.7ZM235.8 267.24L246.09 266.81L246.53 277.1L236.23 277.54L235.8 267.24ZM246.59 266.79L256.89 266.35L257.32 276.64L247.03 277.08L246.59 266.79ZM257.39 266.33L267.68 265.89L268.12 276.19L257.82 276.62L257.39 266.33ZM257.39 265.83L256.96 255.53L267.25 255.1L267.69 265.39L257.39 265.83ZM256.94 255.03L256.5 244.74L266.8 244.3L267.23 254.6L256.94 255.03ZM256.48 244.24L256.04 233.94L266.34 233.51L266.77 243.8L256.48 244.24ZM256.02 233.44L255.59 223.15L265.88 222.71L266.32 233.01L256.02 233.44ZM255.57 222.65L255.13 212.36L265.42 211.92L265.86 222.21L255.57 222.65ZM255.11 211.86L254.67 201.56L264.97 201.13L265.4 211.42L255.11 211.86ZM254.19 190.27L253.7 180L263.99 179.57L264.43 189.86L254.19 190.27ZM253.74 179.47L253.3 169.18L263.59 168.74L264 179L253.74 179.47ZM253.28 168.68L252.84 158.38L263.14 157.95L263.57 168.24L253.28 168.68ZM252.82 157.88L252.39 147.59L262.68 147.15L263.12 157.45L252.82 157.88ZM252.36 147.09L251.93 136.79L262.22 136.36L262.66 146.65L252.36 147.09ZM251.91 136.29L251.41 126L261.71 125.56L262.14 135.86L251.91 136.29ZM251.45 125.5L251 115.2L261.3 114.77L261.73 125.06L251.45 125.5ZM250.99 114.7L250.56 104.41L260.85 103.97L261.29 114.27L250.99 114.7ZM250.49 114.7L240.2 115.13L239.76 104.84L250.06 104.4L250.49 114.7ZM239.7 115.15L229.4 115.59L228.97 105.29L239.26 104.86L239.7 115.15ZM228.9 115.61L218.61 116.05L218.17 105.75L228.47 105.32L228.9 115.61ZM218.11 116.07L207.81 116.5L207.38 106.21L217.67 105.77L218.11 116.07ZM207.31 116.53L197 117L196.56 106.71L206.86 106.27L207.31 116.53ZM196.52 116.98L186.22 117.42L185.79 107.12L196.08 106.69L196.52 116.98ZM185.72 117.44L175.43 117.88L174.99 107.58L185.29 107.15L185.72 117.44ZM174.93 117.9L164.64 118.33L164.2 108.04L174.49 107.6L174.93 117.9ZM164.14 118.35L153.84 118.79L153.41 108.5L163.7 108.06L164.14 118.35ZM153.34 118.81L143.05 119.25L142.61 108.95L152.91 108.52L153.34 118.81ZM142.55 119.27L132.25 119.7L131.82 109.41L142.11 108.97L142.55 119.27ZM131.75 119.73L121.46 120.16L121 109.9L131.3 109.46L131.75 119.73ZM120.96 120.18L110.66 120.62L110.23 110.32L120.52 109.89L120.96 120.18ZM110.16 120.64L99.87 121.08L99.43 110.78L109.73 110.35L110.16 120.64ZM99.37 121.1L89.07 121.53L88.64 111.24L98.93 110.8L99.37 121.1ZM88.57 121.56L78.22 122L77.78 111.71L88.08 111.27L88.57 121.56ZM88.57 122.06L89 132.38L78.71 132.82L78.27 122.52L88.57 122.06ZM89 132.88L89.44 143.17L79.14 143.61L78.71 133.32L89 132.88ZM89.46 143.67L89.9 153.97L79.6 154.4L79.16 144.11L89.46 143.67ZM89.92 154.47L90.35 164.76L80.06 165.2L79.62 154.9L89.92 154.47ZM90.37 165.26L90.81 175.56L80.51 176L80.07 165.71L90.37 165.26ZM90.83 176.06L91.27 186.35L80.97 186.79L80.54 176.49L90.83 176.06ZM91.29 186.85L91.72 197.15L81.43 197.58L81 187.29L91.29 186.85ZM92.2 208.44L92.64 218.74L82.34 219.17L81.91 208.88L92.2 208.44ZM92.66 219.24L93.1 229.53L82.8 229.97L82.37 219.67L92.66 219.24ZM93.11 230L93.54 240.3L83.25 240.73L82.81 230.44L93.11 230ZM93.56 240.8L94 251.12L83.71 251.56L83.27 241.26L93.56 240.8ZM94 251.62L94.44 261.91L84.14 262.35L83.71 252.06L94 251.62ZM94.46 262.41L94.9 272.71L84.6 273.15L84.17 262.85L94.46 262.41ZM94.96 262.41L105.25 261.98L105.69 272.27L95.4 272.71L94.96 262.41ZM105.71 272.77L106.15 283.07L95.85 283.5L95.42 273.21L105.71 272.77ZM106.17 283.57L106.6 293.86L96.31 294.3L95.89 284L106.17 283.57ZM106.67 283.57L116.96 283.13L117.4 293.42L107.1 293.86L106.67 283.57ZM117.46 283.11L127.76 282.67L128.19 292.97L117.9 293.4L117.46 283.11ZM128.26 282.65L138.55 282.21L138.99 292.51L128.69 292.95L128.26 282.65ZM139.05 282.19L149.35 281.76L149.8 292L139.51 292.44L139.05 282.19ZM149.85 281.74L160.14 281.3L160.58 291.59L150.28 292.03L149.85 281.74ZM160.64 281.28L170.94 280.84L171.37 291.14L161.08 291.57L160.64 281.28ZM171.44 280.82L181.73 280.39L182.17 290.68L171.87 291.12L171.44 280.82ZM182.23 280.36L192.53 279.93L192.96 290.22L182.67 290.66L182.23 280.36ZM193.03 279.91L203.32 279.47L203.76 289.77L193.46 290.2L193.03 279.91ZM203.82 279.45L214.11 279.01L214.55 289.31L204.26 289.74L203.82 279.45ZM214.61 278.99L224.91 278.56L225.35 288.85L215.05 289.29L214.61 278.99ZM225.41 278.54L235.7 278.1L236.14 288.39L225.85 288.83L225.41 278.54ZM236.2 278.08L246.5 277.64L246.93 287.94L236.64 288.37L236.2 278.08ZM247 277.62L257.29 277.18L257.73 287.48L247.43 287.92L247 277.62ZM257.79 277.16L268.09 276.73L268.52 287.02L258.23 287.46L257.79 277.16ZM268.59 276.71L278.88 276.27L279.32 286.56L269 287L268.59 276.71ZM268.59 276.21L268.15 265.91L278.45 265.48L278.88 275.77L268.59 276.21ZM268.13 265.41L267.69 255.12L277.99 254.68L278.42 264.98L268.13 265.41ZM267.67 254.62L267.24 244.32L277.53 243.89L277.97 254.18L267.67 254.62ZM267.21 243.82L266.78 233.53L277.07 233.09L277.51 243.39L267.21 243.82ZM266.76 233L266.32 222.7L276.62 222.27L277.05 232.56L266.76 233ZM266.3 222.2L265.86 211.91L276.16 211.47L276.59 221.77L266.3 222.2ZM265.84 211.41L265.41 201.11L275.7 200.68L276.14 210.97L265.84 211.41ZM264.93 189.82L264.49 179.53L274.79 179.09L275.22 189.38L264.93 189.82ZM264.47 179.02L264 168.72L274.3 168.28L274.74 178.58L264.47 179.02ZM264 168.22L263.57 157.93L273.86 157.49L274.3 167.78L264 168.22ZM263.55 157.43L263.11 147.13L273.4 146.7L273.84 156.99L263.55 157.43ZM263.09 146.63L262.65 136.34L272.95 135.9L273.38 146.2L263.09 146.63ZM262.63 135.84L262.2 125.54L272.49 125.11L272.93 135.4L262.63 135.84ZM262.17 125.04L261.74 114.75L272.03 114.31L272.47 124.61L262.17 125.04ZM261.72 114.25L261.28 103.95L271.58 103.52L272.01 113.81L261.72 114.25ZM261.26 103.45L260.82 93.16L271.12 92.72L271.55 103.02L261.26 103.45ZM260.76 103.45L250.47 103.89L250 93.62L260.29 93.18L260.76 103.45ZM249.97 103.91L239.67 104.35L239.23 94.05L249.53 93.62L249.97 103.91ZM239.17 104.37L228.88 104.8L228.44 94.51L238.73 94.07L239.17 104.37ZM228.38 104.83L218.08 105.26L217.66 95L228 94.55L228.38 104.83ZM217.58 105.28L207.29 105.72L206.85 95.42L217.15 94.99L217.58 105.28ZM206.79 105.74L196.49 106.18L196.06 95.88L206.35 95.45L206.79 105.74ZM195.99 106.2L185.7 106.63L185.26 96.34L195.56 95.9L195.99 106.2ZM185.2 106.66L174.9 107.09L174.47 96.8L184.76 96.36L185.2 106.66ZM174.4 107.11L164.11 107.55L163.67 97.25L173.97 96.82L174.4 107.11ZM163.61 107.57L153.31 108.01L152.88 97.71L163.17 97.28L163.61 107.57ZM152.81 108.03L142.52 108.46L142.08 98.17L152.38 97.73L152.81 108.03ZM142 108.5L131.7 108.94L131.27 98.65L141.56 98.21L142 108.5ZM131.2 108.96L120.91 109.4L120.47 99.1L130.77 98.67L131.2 108.96ZM120.41 109.42L110.12 109.85L109.68 99.56L120 99.12L120.41 109.42ZM109.62 109.88L99.32 110.31L98.91 100L109.21 99.56L109.62 109.88ZM98.82 110.33L88.53 110.77L88.09 100.47L98.41 100L98.82 110.33ZM88.03 110.79L77.73 111.23L77.3 100.93L87.59 100.5L88.03 110.79ZM77.23 111.25L67 111.68L66.56 101.39L76.86 100.95L77.23 111.25ZM77.23 111.75L77.72 122L67.42 122.44L67 112.18L77.23 111.75ZM77.69 122.54L78.13 132.84L67.83 133.27L67.45 123L77.69 122.54ZM78.15 133.34L78.58 143.63L68.29 144.07L67.85 133.77L78.15 133.34ZM78.6 144.13L79.04 154.43L68.75 154.86L68.31 144.57L78.6 144.13ZM79.06 154.93L79.5 165.22L69.2 165.66L68.77 155.36L79.06 154.93ZM79.52 165.72L80 176L69.7 176.43L69.26 166.14L79.52 165.72ZM79.98 176.52L80.41 186.81L70.12 187.25L69.73 177L79.98 176.52ZM80.43 187.31L80.87 197.6L70.63 198L70.19 187.71L80.43 187.31ZM81.35 208.9L81.78 219.19L71.49 219.63L71.05 209.34L81.35 208.9ZM81.81 219.69L82.24 229.99L72 230.42L71.56 220.13L81.81 219.69ZM82.26 230.49L82.7 240.78L72.4 241.22L72 230.92L82.26 230.49ZM82.72 241.28L83.16 251.58L72.86 252.01L72.43 241.72L82.72 241.28ZM83.18 252.08L83.61 262.37L73.32 262.81L72.88 252.51L83.18 252.08ZM83.63 262.87L84.07 273.17L73.78 273.6L73.34 263.31L83.63 262.87ZM84.09 273.67L84.58 284L74.28 284.44L73.85 274.14L84.09 273.67ZM84.59 273.67L94.89 273.23L95.32 283.52L85.03 283.96L84.59 273.67ZM95.39 284L95.83 294.3L85.54 294.73L85.1 284.44L95.39 284ZM95.85 294.8L96.29 305.09L85.99 305.53L85.56 295.23L95.85 294.8ZM96.35 294.8L106.65 294.36L107.08 304.66L96.79 305.09L96.35 294.8ZM107.15 294.34L117.44 293.9L117.88 304.2L107.58 304.63L107.15 294.34ZM117.94 293.88L128.24 293.45L128.67 303.74L118.38 304.18L117.94 293.88ZM128.74 293.43L139 293L139.44 303.29L129.14 303.73L128.74 293.43ZM139.53 292.97L149.82 292.53L150.26 302.83L139.97 303.26L139.53 292.97ZM150.32 292.51L160.62 292.07L161.06 302.37L150.76 302.81L150.32 292.51ZM161.12 292.05L171.41 291.62L171.85 301.91L161.56 302.35L161.12 292.05ZM171.91 291.6L182.21 291.16L182.64 301.45L172.35 301.89L171.91 291.6ZM182.71 291.14L193 290.7L193.44 301L183.14 301.43L182.71 291.14ZM193.5 290.68L203.8 290.25L204.23 300.54L193.94 300.98L193.5 290.68ZM204.3 290.22L214.59 289.79L215.03 300.08L204.73 300.52L204.3 290.22ZM215.09 289.77L225.39 289.33L225.82 299.63L215.53 300.06L215.09 289.77ZM225.89 289.31L236.18 288.87L236.62 299.17L226.32 299.6L225.89 289.31ZM236.68 288.85L246.98 288.42L247.41 298.71L237.12 299.15L236.68 288.85ZM247.48 288.4L257.77 287.96L258.21 298.25L247.91 298.69L247.48 288.4ZM258.27 287.94L268.57 287.5L269 297.8L258.71 298.23L258.27 287.94ZM269.07 287.48L279.36 287.04L279.8 297.34L269.5 297.77L269.07 287.48ZM271.07 92.24L260.77 92.68L260.34 82.38L270.63 81.95L271.07 92.24ZM260.27 92.7L250 93.12L249.56 82.82L259.86 82.39L260.27 92.7ZM249.48 93.16L239.18 93.59L238.75 83.3L249.04 82.86L249.48 93.16ZM238.68 93.61L228.43 94L228 83.74L238.3 83.3L238.68 93.61ZM227.89 94.07L217.59 94.51L217.16 84.21L227.45 83.78L227.89 94.07ZM217.09 94.53L206.8 94.96L206.36 84.67L216.66 84.23L217.09 94.53ZM206.34 95L196.05 95.43L195.61 85.14L205.9 84.7L206.34 95ZM195.55 95.45L185.25 95.89L184.81 85.59L195.11 85.16L195.55 95.45ZM184.75 95.91L174.46 96.35L174 86L184.29 85.57L184.75 95.91ZM174 96.34L163.7 96.77L163.27 86.48L173.52 86L174 96.34ZM163.2 96.8L152.91 97.23L152.47 86.94L162.77 86.5L163.2 96.8ZM152.41 97.25L142.11 97.69L141.68 87.39L151.93 87L152.41 97.25ZM141.61 97.71L131.32 98.15L130.88 87.85L141.18 87.41L141.61 97.71ZM130.82 98.17L120.52 98.6L120.09 88.31L130.38 87.87L130.82 98.17ZM120.02 98.62L109.73 99.06L109.29 88.77L119.59 88.33L120.02 98.62ZM109.23 99.08L98.93 99.52L98.5 89.25L108.79 88.82L109.23 99.08ZM98.43 99.54L88.1 100L87.66 89.75L98 89.24L98.43 99.54ZM87.6 100L77.3 100.43L76.87 90.19L87.16 89.75L87.6 100ZM76.8 100.45L66.51 100.89L66.08 90.67V90.59L76.38 90.16L76.8 100.45ZM74.3 284.9L84.6 284.46L85.04 294.76L74.74 295.19L74.3 284.9ZM85.06 295.26L85.49 305.55L75.2 306L74.76 295.7L85.06 295.26ZM85.51 306.05L86 316.34L75.71 316.78L75.27 306.49L85.51 306.05ZM86.01 306.05L96.31 305.61L96.74 315.91L86.45 316.34L86.01 306.05ZM96.81 305.59L107.1 305.16L107.54 315.45L97.24 315.89L96.81 305.59ZM107.6 305.13L117.9 304.7L118.33 314.99L108.04 315.43L107.6 305.13ZM118.4 304.68L128.69 304.24L129.13 314.54L118.83 314.97L118.4 304.68ZM129.19 304.22L139.49 303.78L139.92 314.08L129.63 314.51L129.19 304.22ZM139.99 303.76L150.28 303.33L150.72 313.62L140.42 314.06L139.99 303.76ZM150.78 303.31L161.08 302.87L161.51 313.16L151.22 313.6L150.78 303.31ZM161.58 302.85L171.87 302.41L172.31 312.71L162.01 313.14L161.58 302.85ZM172.37 302.39L182.67 301.95L183.1 312.25L172.81 312.69L172.37 302.39ZM183.17 301.93L193.46 301.5L193.9 311.79L183.6 312.23L183.17 301.93ZM193.96 301.48L204.25 301.04L204.69 311.33L194.4 311.77L193.96 301.48ZM204.75 301.02L215.05 300.58L215.49 310.88L205.19 311.31L204.75 301.02ZM215.55 300.56L225.84 300.13L226.28 310.42L215.99 310.86L215.55 300.56ZM226.34 300.1L236.64 299.67L237.07 309.96L226.78 310.4L226.34 300.1ZM237.14 299.65L247.43 299.21L247.87 309.51L237.57 309.94L237.14 299.65ZM247.93 299.19L258.23 298.75L258.66 309.05L248.37 309.48L247.93 299.19ZM258.73 298.73L269.02 298.3L269.46 308.59L259.16 309.03L258.73 298.73ZM269.52 298.27L279.82 297.84L280.25 308.13L269.96 308.57L269.52 298.27ZM280.32 297.82L290.61 297.38L291.05 307.68L280.75 308.11L280.32 297.82ZM64 296.15L74.29 295.71L74.7 306L66.92 306.33L64.09 299.11L64 296.15ZM67.14 306.83L74.75 306.51L75.19 316.8L69.34 317.05L70.34 315.05L67.14 306.83Z" fill="#FAFAFA"/>
<path d="M159 136.07C155.9 136.07 152.82 136.01 149.78 135.91C149.742 135.908 149.705 135.897 149.672 135.878C149.639 135.859 149.611 135.832 149.59 135.8C149.573 135.767 149.565 135.732 149.565 135.695C149.565 135.658 149.573 135.622 149.59 135.59C154.088 120.036 160.055 104.944 167.41 90.52C167.527 90.3004 167.7 90.1149 167.91 89.9817C168.12 89.8485 168.361 89.7721 168.61 89.76C168.858 89.7492 169.105 89.8047 169.324 89.9206C169.544 90.0366 169.729 90.209 169.86 90.42C178.408 104.168 185.63 118.696 191.43 133.81C191.448 133.844 191.457 133.882 191.457 133.92C191.457 133.958 191.448 133.996 191.43 134.03C191.412 134.063 191.386 134.092 191.355 134.112C191.324 134.133 191.288 134.146 191.25 134.15C184.5 134.96 177.54 135.53 170.58 135.82C166.62 136 162.77 136.07 159 136.07ZM150.12 135.42C156.81 135.64 163.66 135.61 170.49 135.32C177.32 135.03 184.17 134.48 190.81 133.69C185.026 118.722 177.858 104.326 169.4 90.69C169.314 90.5537 169.195 90.4423 169.052 90.3669C168.91 90.2914 168.751 90.2546 168.59 90.26C168.428 90.2689 168.271 90.3196 168.134 90.4072C167.997 90.4948 167.886 90.6164 167.81 90.76C160.524 105.064 154.585 120.015 150.07 135.42H150.12Z" fill="#FAFAFA"/>
<path d="M141.84 230.68C141.778 230.683 141.717 230.661 141.671 230.62C141.624 230.579 141.595 230.522 141.59 230.46C140.59 222.53 140 215.46 139.73 209C138.73 185.7 142.03 161 149.5 135.59C149.518 135.538 149.552 135.493 149.597 135.461C149.642 135.429 149.695 135.411 149.75 135.41C156.54 135.65 163.5 135.62 170.44 135.32C177.38 135.02 184.34 134.47 191.08 133.66C191.134 133.652 191.189 133.662 191.236 133.689C191.284 133.717 191.32 133.759 191.34 133.81C196.989 148.209 201.268 163.108 204.12 178.31C204.126 178.343 204.125 178.377 204.117 178.409C204.11 178.442 204.096 178.472 204.076 178.499C204.057 178.526 204.032 178.549 204.003 178.566C203.975 178.584 203.943 178.595 203.91 178.6C203.845 178.612 203.778 178.597 203.724 178.56C203.67 178.522 203.632 178.465 203.62 178.4C200.808 163.294 196.582 148.486 191 134.17C184.3 134.98 177.41 135.53 170.52 135.82C163.63 136.11 156.72 136.15 149.97 135.91C142.56 161.21 139.29 185.79 140.28 208.98C140.55 215.48 141.16 222.48 142.14 230.4C142.146 230.466 142.126 230.532 142.085 230.584C142.045 230.636 141.985 230.67 141.92 230.68H141.84ZM207 227.92C206.967 227.919 206.935 227.911 206.905 227.897C206.875 227.883 206.848 227.864 206.826 227.84C206.804 227.816 206.787 227.787 206.775 227.756C206.764 227.726 206.759 227.693 206.76 227.66C207.06 219.66 207.08 212.66 206.76 206.16C206.759 206.127 206.764 206.094 206.775 206.064C206.787 206.033 206.804 206.004 206.826 205.98C206.848 205.956 206.875 205.937 206.905 205.923C206.935 205.909 206.967 205.901 207 205.9C207.033 205.897 207.067 205.901 207.098 205.912C207.13 205.923 207.158 205.94 207.183 205.963C207.207 205.985 207.227 206.013 207.24 206.043C207.253 206.074 207.26 206.107 207.26 206.14C207.54 212.65 207.52 219.7 207.26 227.68C207.259 227.713 207.251 227.745 207.237 227.775C207.223 227.805 207.204 227.832 207.18 227.854C207.156 227.876 207.127 227.894 207.097 227.905C207.066 227.916 207.033 227.921 207 227.92Z" fill="#FAFAFA"/>
<path d="M172.22 200.38C166.588 200.403 161.161 198.271 157.052 194.42C152.942 190.569 150.462 185.291 150.12 179.67V179.48C150.12 179.36 150.12 179.24 150.12 179.12C149.997 176.207 150.448 173.297 151.449 170.559C152.45 167.82 153.98 165.305 155.953 163.158C157.926 161.01 160.302 159.272 162.947 158.043C165.591 156.815 168.452 156.118 171.365 155.995C174.278 155.872 177.188 156.323 179.926 157.324C182.665 158.325 185.18 159.855 187.327 161.828C189.475 163.801 191.213 166.177 192.442 168.822C193.67 171.466 194.367 174.327 194.49 177.24C194.49 177.36 194.49 177.49 194.49 177.62V177.79C194.625 183.592 192.47 189.213 188.491 193.437C184.512 197.662 179.029 200.149 173.23 200.36C172.88 200.38 172.55 200.38 172.22 200.38ZM172.29 156.47H171.35C168.501 156.59 165.704 157.269 163.118 158.471C160.532 159.672 158.208 161.371 156.279 163.471C154.351 165.571 152.854 168.03 151.876 170.708C150.898 173.387 150.458 176.231 150.58 179.08C150.58 179.19 150.58 179.31 150.58 179.43V179.62C150.821 185.378 153.34 190.804 157.582 194.705C159.683 196.636 162.143 198.135 164.823 199.116C167.502 200.096 170.349 200.54 173.2 200.42C176.051 200.301 178.851 199.621 181.439 198.419C184.027 197.218 186.353 195.518 188.285 193.418C190.216 191.317 191.715 188.857 192.696 186.177C193.676 183.498 194.12 180.651 194 177.8V177.62C194 177.5 194 177.38 194 177.26C193.765 171.671 191.381 166.388 187.346 162.515C183.31 158.641 177.934 156.475 172.34 156.47H172.29ZM172.29 194.39C168.049 194.298 164.015 192.536 161.064 189.488C158.114 186.44 156.485 182.351 156.531 178.109C156.577 173.867 158.295 169.814 161.311 166.831C164.327 163.847 168.398 162.174 172.64 162.174C176.882 162.174 180.953 163.847 183.969 166.831C186.985 169.814 188.703 173.867 188.749 178.109C188.795 182.351 187.166 186.44 184.216 189.488C181.265 192.536 177.231 194.298 172.99 194.39H172.29ZM172.31 162.46H171.64C169.578 162.547 167.554 163.04 165.683 163.91C163.811 164.779 162.129 166.009 160.733 167.529C159.337 169.048 158.254 170.828 157.546 172.766C156.837 174.704 156.518 176.763 156.605 178.825C156.692 180.887 157.185 182.911 158.055 184.783C158.924 186.654 160.154 188.336 161.674 189.732C163.193 191.128 164.973 192.211 166.911 192.919C168.849 193.628 170.908 193.947 172.97 193.86C177.056 193.656 180.901 191.868 183.689 188.875C186.478 185.881 187.989 181.919 187.903 177.829C187.818 173.74 186.141 169.844 183.229 166.971C180.318 164.097 176.401 162.472 172.31 162.44V162.46Z" fill="#FAFAFA"/>
<path d="M172.25 194.39C168.009 194.298 163.975 192.536 161.024 189.488C158.074 186.44 156.445 182.351 156.491 178.109C156.537 173.867 158.255 169.814 161.271 166.831C164.287 163.847 168.358 162.174 172.6 162.174C176.842 162.174 180.913 163.847 183.929 166.831C186.945 169.814 188.663 173.867 188.709 178.109C188.755 182.351 187.126 186.44 184.176 189.488C181.225 192.536 177.191 194.298 172.95 194.39H172.25ZM172.28 162.46H171.6C169.538 162.547 167.514 163.04 165.642 163.91C163.771 164.779 162.089 166.009 160.693 167.529C159.297 169.048 158.214 170.828 157.506 172.766C156.797 174.705 156.478 176.763 156.565 178.825C156.652 180.887 157.145 182.911 158.015 184.783C158.884 186.654 160.114 188.336 161.634 189.732C163.153 191.128 164.933 192.211 166.871 192.919C168.809 193.628 170.868 193.947 172.93 193.86C177.087 193.671 181 191.841 183.811 188.773C186.623 185.705 188.104 181.648 187.93 177.49C187.743 173.455 186.01 169.646 183.091 166.853C180.171 164.061 176.29 162.499 172.25 162.49L172.28 162.46Z" fill="#FAFAFA"/>
<path d="M130.68 309.58C130.126 309.577 129.578 309.475 129.06 309.28C126.94 308.48 124.9 306.01 125.06 302.28L126.83 268.81C126.87 267.964 127.045 267.13 127.35 266.34L141.56 230.34C141.581 230.288 141.619 230.244 141.668 230.215C141.717 230.186 141.774 230.174 141.83 230.18C141.884 230.191 141.934 230.218 141.973 230.257C142.013 230.296 142.039 230.346 142.05 230.4C143.4 241.35 145.24 252.29 147.05 262.86C147.61 266.15 148.16 269.41 148.68 272.61L167.3 271.82L166.3 267.54C166.05 266.471 166.02 265.362 166.21 264.28C166.596 262.053 167.733 260.026 169.431 258.534C171.129 257.043 173.287 256.178 175.545 256.082C177.803 255.986 180.025 256.666 181.844 258.008C183.662 259.35 184.966 261.274 185.54 263.46C185.819 264.52 185.881 265.626 185.72 266.71L185.1 271.07L203.72 270.28C203.973 267.04 204.24 263.753 204.52 260.42C205.4 249.74 206.31 238.69 206.73 227.66C206.732 227.604 206.752 227.551 206.789 227.509C206.825 227.467 206.875 227.439 206.93 227.43C206.983 227.418 207.039 227.424 207.088 227.448C207.137 227.471 207.176 227.511 207.2 227.56L224.41 262.23C224.786 262.991 225.033 263.808 225.14 264.65L229.74 297.85C230.25 301.55 228.42 304.18 226.38 305.15C225.444 305.591 224.387 305.707 223.378 305.478C222.369 305.25 221.465 304.691 220.81 303.89L202.91 284.65L183.03 285.49L182.28 290.72C182.11 291.962 181.509 293.106 180.582 293.95C179.655 294.795 178.461 295.286 177.208 295.34C175.955 295.394 174.723 295.005 173.728 294.243C172.732 293.481 172.035 292.393 171.76 291.17L170.59 286L150.71 286.84L134.5 307.55C134.064 308.161 133.492 308.662 132.829 309.015C132.166 309.367 131.43 309.56 130.68 309.58ZM141.68 231.44L127.83 266.53C127.54 267.268 127.372 268.048 127.33 268.84L125.57 302.31C125.38 305.79 127.26 308.08 129.21 308.81C130.081 309.127 131.032 309.144 131.914 308.86C132.796 308.575 133.558 308.006 134.08 307.24L150.36 286.46C150.382 286.433 150.409 286.411 150.44 286.395C150.471 286.38 150.505 286.371 150.54 286.37L170.74 285.51C170.8 285.508 170.858 285.527 170.905 285.564C170.953 285.6 170.986 285.652 171 285.71L172.23 291.06C172.484 292.167 173.117 293.151 174.021 293.84C174.924 294.528 176.041 294.879 177.176 294.83C178.311 294.781 179.393 294.336 180.234 293.573C181.075 292.809 181.622 291.775 181.78 290.65L182.56 285.22C182.567 285.162 182.593 285.109 182.635 285.069C182.677 285.029 182.732 285.004 182.79 285L203 284.15C203.036 284.146 203.072 284.151 203.105 284.165C203.139 284.179 203.168 284.201 203.19 284.23L221.19 303.55C221.774 304.274 222.584 304.782 223.491 304.99C224.398 305.199 225.348 305.097 226.19 304.7C228.07 303.81 229.75 301.37 229.27 297.92L224.68 264.72C224.577 263.93 224.344 263.163 223.99 262.45L207.22 228.66C206.79 239.37 205.9 250.09 205.04 260.47C204.76 263.87 204.49 267.227 204.23 270.54C204.225 270.601 204.198 270.658 204.154 270.701C204.11 270.743 204.051 270.768 203.99 270.77L184.85 271.58C184.813 271.581 184.776 271.574 184.742 271.56C184.708 271.546 184.676 271.526 184.65 271.5C184.626 271.473 184.608 271.441 184.598 271.407C184.588 271.372 184.585 271.336 184.59 271.3L185.26 266.64C185.409 265.622 185.351 264.585 185.09 263.59C184.548 261.511 183.31 259.681 181.582 258.403C179.855 257.126 177.742 256.479 175.595 256.571C173.449 256.662 171.398 257.485 169.785 258.905C168.172 260.324 167.094 262.253 166.73 264.37C166.551 265.382 166.579 266.419 166.81 267.42L167.87 272C167.885 272.033 167.893 272.069 167.893 272.105C167.893 272.141 167.885 272.177 167.87 272.21C167.847 272.239 167.819 272.263 167.786 272.281C167.753 272.298 167.717 272.308 167.68 272.31L148.54 273.12C148.51 273.123 148.479 273.12 148.45 273.11C148.421 273.101 148.394 273.087 148.371 273.067C148.348 273.048 148.329 273.024 148.315 272.997C148.301 272.97 148.292 272.94 148.29 272.91C147.75 269.64 147.19 266.31 146.62 262.91C144.84 252.68 143.05 242.07 141.71 231.44H141.68Z" fill="#FAFAFA"/>
<path d="M381.26 214.79L376.53 214.58L378.67 223.58C380.358 222.424 381.896 221.064 383.25 219.53C383.446 219.304 383.595 219.041 383.689 218.757C383.783 218.473 383.82 218.173 383.797 217.875C383.775 217.577 383.694 217.286 383.559 217.019C383.424 216.752 383.237 216.515 383.01 216.32L381.26 214.79Z" fill="#EBB376"/>
<path d="M371.04 219.43L373.17 226.75L378.67 223.56L376.53 214.58L371.04 219.43Z" fill="#EBB376"/>
<path d="M376.099 215.617L377.575 209.318L221.621 172.768L220.144 179.067L376.099 215.617Z" fill="#407BFF"/>
<path opacity="0.6" d="M376.099 215.617L377.575 209.318L221.621 172.768L220.144 179.067L376.099 215.617Z" fill="black"/>
<path d="M373.144 228.21L374.621 221.911L218.666 185.361L217.19 191.66L373.144 228.21Z" fill="#407BFF"/>
<path opacity="0.6" d="M373.144 228.21L374.621 221.911L218.666 185.361L217.19 191.66L373.144 228.21Z" fill="black"/>
<path d="M374.62 221.909L376.097 215.609L220.142 179.059L218.666 185.359L374.62 221.909Z" fill="#263238"/>
<path d="M207.8 182.48L209.13 176.81L221.62 172.76L217.19 191.65L207.8 182.48Z" fill="#E4897B"/>
<path d="M203.78 178.55L209.13 176.81L207.8 182.48L203.78 178.55Z" fill="#FAFAFA"/>
<path d="M304.66 172.25C301.31 176.75 297.85 180.99 294.16 185.16C292.31 187.23 290.44 189.29 288.47 191.29C286.5 193.29 284.47 195.29 282.34 197.17L281.94 197.53L281.39 198.01C280.842 198.457 280.249 198.846 279.62 199.17C278.541 199.713 277.378 200.071 276.18 200.23C274.335 200.459 272.464 200.391 270.64 200.03C267.643 199.418 264.727 198.461 261.95 197.18C256.793 194.804 251.902 191.888 247.36 188.48L250.2 183.75C252.59 184.75 255.08 185.82 257.54 186.75C260 187.68 262.47 188.57 264.91 189.28C267.189 189.999 269.534 190.488 271.91 190.74C272.773 190.832 273.644 190.782 274.49 190.59C274.76 190.51 274.91 190.42 274.9 190.4C274.89 190.38 274.9 190.4 274.82 190.4C274.74 190.4 274.91 190.3 275.01 190.19L275.35 189.85C278.92 186.14 282.35 182.09 285.75 177.99C289.15 173.89 292.5 169.67 295.75 165.54L304.66 172.25Z" fill="#EBB376"/>
<path d="M239.55 175.03L235.42 180.29L242.55 185.56L246.67 177.83L239.55 175.03Z" fill="#EBB376"/>
<path d="M250.48 183.9L246.67 177.83L242.55 185.56C242.55 185.56 246.06 190.76 250.55 188.75L250.48 183.9Z" fill="#EBB376"/>
<path d="M345.37 164.64C348.123 169.5 350.773 174.423 353.32 179.41C354.61 181.88 355.85 184.41 357.12 186.88L358.97 190.65L359.44 191.58C359.54 191.74 359.56 191.86 359.71 192.08C359.86 192.3 359.95 192.48 360.12 192.72C360.29 192.96 360.44 193.17 360.63 193.41C362.23 195.464 363.942 197.427 365.76 199.29C367.61 201.29 369.57 203.19 371.51 205.15L383.37 216.82L379.94 221.14C375.18 218.04 370.58 214.79 366.11 211.3C363.85 209.57 361.66 207.75 359.47 205.88C357.201 203.938 355.05 201.861 353.03 199.66C352.77 199.37 352.5 199.05 352.24 198.71C351.98 198.37 351.7 198.03 351.43 197.65C351.16 197.27 350.86 196.8 350.59 196.37L350.05 195.47L347.9 191.87C346.5 189.46 345.06 187.07 343.69 184.64C340.89 179.813 338.197 174.93 335.61 169.99L345.37 164.64Z" fill="#EBB376"/>
<path d="M307.55 136.22C307.67 136.8 307.46 137.35 307.09 137.45C306.72 137.55 306.31 137.15 306.19 136.57C306.07 135.99 306.27 135.44 306.64 135.34C307.01 135.24 307.42 135.64 307.55 136.22Z" fill="#263238"/>
<path d="M307.52 137.34C307.207 139.29 306.635 141.191 305.82 142.99C306.28 143.172 306.775 143.251 307.269 143.222C307.763 143.193 308.245 143.055 308.68 142.82L307.52 137.34Z" fill="#DE5753"/>
<path d="M306 132.7C305.943 132.7 305.887 132.687 305.836 132.661C305.786 132.635 305.742 132.597 305.71 132.55C305.684 132.513 305.665 132.471 305.655 132.426C305.646 132.382 305.645 132.336 305.653 132.291C305.662 132.246 305.679 132.204 305.704 132.166C305.729 132.128 305.762 132.095 305.8 132.07C306.267 131.779 306.797 131.605 307.345 131.563C307.894 131.521 308.444 131.613 308.95 131.83C309.035 131.867 309.102 131.936 309.137 132.022C309.173 132.108 309.174 132.204 309.14 132.29C309.104 132.374 309.038 132.441 308.954 132.476C308.869 132.512 308.775 132.513 308.69 132.48C308.293 132.304 307.859 132.226 307.425 132.254C306.992 132.282 306.571 132.414 306.2 132.64C306.141 132.679 306.071 132.7 306 132.7Z" fill="#263238"/>
<path d="M327.77 138.43C326.51 143.81 325.08 153.65 328.7 157.24C328.7 157.24 327.02 162.69 317.03 162.69C306.03 162.69 312.03 157.24 312.03 157.24C318.08 155.81 318.1 151.36 317.22 147.19L327.77 138.43Z" fill="#EBB376"/>
<path d="M330.06 159.11C330.92 157.39 331.86 155.41 330.06 154.79C328.12 154.11 317.35 153.42 313.58 154.69C312.577 154.961 311.719 155.611 311.187 156.503C310.656 157.395 310.491 158.459 310.73 159.47L330.06 159.11Z" fill="#407BFF"/>
<path opacity="0.6" d="M330.06 159.11C330.92 157.39 331.86 155.41 330.06 154.79C328.12 154.11 317.35 153.42 313.58 154.69C312.577 154.961 311.719 155.611 311.187 156.503C310.656 157.395 310.491 158.459 310.73 159.47L330.06 159.11Z" fill="#FAFAFA"/>
<path d="M346.33 409.64C346.33 409.64 343.54 407.64 342.88 408.79C342.1 410.12 345.15 409.93 346.33 409.64Z" fill="#407BFF"/>
<path d="M346.33 409.64C346.33 409.64 346.21 406.51 344.86 406.64C343.51 406.77 345.4 409.13 346.33 409.64Z" fill="#407BFF"/>
<path d="M302.56 409.64C302.56 409.64 299.1 407.64 298.38 408.79C297.66 409.94 301.14 409.93 302.56 409.64Z" fill="#407BFF"/>
<path d="M302.56 409.64C302.56 409.64 302.38 406.51 300.76 406.64C299.14 406.77 301.43 409.13 302.56 409.64Z" fill="#407BFF"/>
<path d="M310.64 409.64H303.29L303.22 392.63H310.56L310.64 409.64Z" fill="#EBB376"/>
<path d="M354.75 409.64H347.4L344.37 392.63H351.71L354.75 409.64Z" fill="#EBB376"/>
<path d="M346.91 408.79H355.16C355.306 408.788 355.448 408.838 355.56 408.932C355.672 409.025 355.746 409.156 355.77 409.3L356.97 415.83C356.995 415.992 356.984 416.157 356.938 416.315C356.893 416.472 356.813 416.618 356.706 416.741C356.598 416.865 356.465 416.964 356.316 417.031C356.166 417.098 356.004 417.132 355.84 417.13C352.96 417.08 351.57 416.91 347.94 416.91C345.71 416.91 341.1 417.15 338.02 417.15C334.94 417.15 334.65 414.15 335.92 413.82C341.63 412.58 343.83 410.87 345.7 409.25C346.034 408.954 346.464 408.791 346.91 408.79Z" fill="#263238"/>
<path d="M303.37 408.79H311.37C311.515 408.788 311.655 408.839 311.766 408.933C311.876 409.027 311.948 409.157 311.97 409.3L313.17 415.83C313.198 415.991 313.19 416.156 313.147 416.313C313.104 416.471 313.027 416.617 312.921 416.741C312.815 416.865 312.683 416.964 312.534 417.032C312.385 417.099 312.223 417.132 312.06 417.13C309.17 417.08 305 416.91 301.36 416.91C297.11 416.91 293.42 417.15 288.44 417.15C285.44 417.15 284.7 414.15 285.97 413.82C291.77 412.56 296.47 412.43 301.55 409.37C302.09 409.01 302.721 408.809 303.37 408.79Z" fill="#263238"/>
<path d="M342.72 158.9C349.54 160.48 356.72 179.25 356.72 179.25L342.53 188.73C339.276 183.79 336.423 178.597 334 173.2C330.23 164.61 335.74 157.29 342.72 158.9Z" fill="#407BFF"/>
<path d="M337.32 170.87L343.19 188.28L342.52 188.73C342.52 188.73 339.84 184.73 336.99 179.4L337.32 170.87Z" fill="#407BFF"/>
<path opacity="0.2" d="M337.32 170.87L343.19 188.28L342.52 188.73C342.52 188.73 339.84 184.73 336.99 179.4L337.32 170.87Z" fill="black"/>
<path d="M296.88 191.72C296.94 199.92 297.43 210.12 298.66 222.78H338C338.5 216.78 335.84 187.32 342.75 158.9C338.431 158.063 334.062 157.508 329.67 157.24C324.108 156.92 318.532 156.92 312.97 157.24C309.131 157.614 305.326 158.282 301.59 159.24C301.59 159.24 298.23 162.88 297.21 179.95C297 183.36 296.86 187.24 296.88 191.72Z" fill="#407BFF"/>
<path d="M296.88 191.72C299.26 187.38 303.58 178.67 302.97 173.72L297.17 180C297 183.36 296.86 187.24 296.88 191.72Z" fill="#407BFF"/>
<path opacity="0.2" d="M296.88 191.72C299.26 187.38 303.58 178.67 302.97 173.72L297.17 180C297 183.36 296.86 187.24 296.88 191.72Z" fill="black"/>
<path d="M309.25 165.92C309.87 172.92 294 189.76 294 189.76L281.28 179.4C284.612 173.778 288.603 168.574 293.17 163.9C300.61 156.71 308.56 158.08 309.25 165.92Z" fill="#407BFF"/>
<path d="M303.22 392.64L303.26 401.4H310.61L310.57 392.64H303.22Z" fill="#DA9D62"/>
<path d="M351.71 392.64H344.36L345.93 401.4H353.28L351.71 392.64Z" fill="#DA9D62"/>
<path d="M326.45 130.15C327.52 137.39 328.52 141.55 325.73 146.15C324.846 147.64 323.572 148.859 322.045 149.676C320.517 150.493 318.795 150.877 317.066 150.785C315.336 150.693 313.665 150.13 312.232 149.156C310.8 148.182 309.661 146.835 308.94 145.26C306.07 139.26 304.79 128.42 311.1 123.84C312.432 122.812 314.01 122.153 315.677 121.928C317.345 121.704 319.041 121.923 320.597 122.562C322.153 123.202 323.513 124.24 324.541 125.572C325.568 126.904 326.227 128.483 326.45 130.15Z" fill="#EBB376"/>
<path d="M333.67 133.72C331.15 140.2 329.33 143.05 326.31 144.1C318.43 146.84 313.56 137.24 311.73 128.87C309.253 128.754 306.845 128.014 304.73 126.72C301.25 124.5 300.05 120.56 306.04 117.17C306.09 117.39 307.31 119.81 311.89 118.17C319.57 115.42 334.28 112.5 331.97 120.89C335.61 120.94 336.18 127.25 333.67 133.72Z" fill="#263238"/>
<path d="M317.36 134.63C317.332 136.471 316.715 138.255 315.6 139.72C314.11 141.64 312.4 140.72 311.99 138.56C311.63 136.64 311.99 133.32 313.85 132.16C315.71 131 317.37 132.43 317.36 134.63Z" fill="#EBB376"/>
<path d="M330.66 120.78C331.623 120.5 332.504 119.989 333.225 119.292C333.947 118.595 334.487 117.733 334.8 116.78C334.8 116.78 336.17 122.52 330.66 120.78Z" fill="#263238"/>
<path d="M312.6 222.78C312.6 222.78 318.77 278.92 322.53 299.95C326.65 322.95 342.53 399.71 342.53 399.71H356C356 399.71 346.44 324.84 344.46 302.04C342.31 277.29 337.92 222.78 337.92 222.78H312.6Z" fill="#407BFF"/>
<path opacity="0.6" d="M312.6 222.78C312.6 222.78 318.77 278.92 322.53 299.95C326.65 322.95 342.53 399.71 342.53 399.71H356C356 399.71 346.44 324.84 344.46 302.04C342.31 277.29 337.92 222.78 337.92 222.78H312.6Z" fill="#FAFAFA"/>
<path d="M340.62 394.75C340.56 394.75 341.81 399.92 341.81 399.92H356.94L356.85 395.31L340.62 394.75Z" fill="#407BFF"/>
<path opacity="0.1" d="M340.62 394.75C340.56 394.75 341.81 399.92 341.81 399.92H356.94L356.85 395.31L340.62 394.75Z" fill="#FAFAFA"/>
<path d="M317.09 242.78C326.66 244.67 324.25 280.62 322.38 299.11C320.1 286 317 260.89 314.91 243C315.592 242.684 316.359 242.607 317.09 242.78Z" fill="#407BFF"/>
<path opacity="0.4" d="M317.09 242.78C326.66 244.67 324.25 280.62 322.38 299.11C320.1 286 317 260.89 314.91 243C315.592 242.684 316.359 242.607 317.09 242.78Z" fill="#FAFAFA"/>
<path d="M298.66 222.78C298.66 222.78 295.53 277.7 295.46 300.11C295.39 323.41 300.58 399.71 300.58 399.71H313C313 399.71 316.35 324.77 317.79 301.89C319.35 276.94 324.46 222.78 324.46 222.78H298.66Z" fill="#407BFF"/>
<path opacity="0.6" d="M298.66 222.78C298.66 222.78 295.53 277.7 295.46 300.11C295.39 323.41 300.58 399.71 300.58 399.71H313C313 399.71 316.35 324.77 317.79 301.89C319.35 276.94 324.46 222.78 324.46 222.78H298.66Z" fill="#FAFAFA"/>
<path d="M303.53 390.77C303.497 390.77 303.466 390.758 303.441 390.736C303.417 390.713 303.402 390.683 303.4 390.65C302.02 369.53 298.82 318.43 298.88 300.11C298.93 281.35 301.16 239.41 301.88 227C301.874 226.981 301.873 226.96 301.877 226.941C301.881 226.921 301.889 226.902 301.901 226.886C301.913 226.87 301.929 226.857 301.947 226.848C301.965 226.839 301.985 226.834 302.005 226.834C302.025 226.834 302.045 226.839 302.063 226.848C302.081 226.857 302.097 226.87 302.109 226.886C302.121 226.902 302.129 226.921 302.133 226.941C302.136 226.96 302.136 226.981 302.13 227C301.45 239.41 299.22 281.35 299.13 300.1C299.07 318.41 302.27 369.51 303.65 390.62C303.651 390.637 303.649 390.654 303.644 390.671C303.639 390.687 303.63 390.702 303.619 390.715C303.608 390.728 303.594 390.739 303.579 390.746C303.564 390.754 303.547 390.759 303.53 390.76V390.77Z" fill="#407BFF"/>
<path opacity="0.4" d="M303.53 390.77C303.497 390.77 303.466 390.758 303.441 390.736C303.417 390.713 303.402 390.683 303.4 390.65C302.02 369.53 298.82 318.43 298.88 300.11C298.93 281.35 301.16 239.41 301.88 227C301.874 226.981 301.873 226.96 301.877 226.941C301.881 226.921 301.889 226.902 301.901 226.886C301.913 226.87 301.929 226.857 301.947 226.848C301.965 226.839 301.985 226.834 302.005 226.834C302.025 226.834 302.045 226.839 302.063 226.848C302.081 226.857 302.097 226.87 302.109 226.886C302.121 226.902 302.129 226.921 302.133 226.941C302.136 226.96 302.136 226.981 302.13 227C301.45 239.41 299.22 281.35 299.13 300.1C299.07 318.41 302.27 369.51 303.65 390.62C303.651 390.637 303.649 390.654 303.644 390.671C303.639 390.687 303.63 390.702 303.619 390.715C303.608 390.728 303.594 390.739 303.579 390.746C303.564 390.754 303.547 390.759 303.53 390.76V390.77Z" fill="#FAFAFA"/>
<path d="M298.38 394.75C298.32 394.75 298.88 399.92 298.88 399.92H314L314.59 395.31L298.38 394.75Z" fill="#407BFF"/>
<path opacity="0.1" d="M298.38 394.75C298.32 394.75 298.88 399.92 298.88 399.92H314L314.59 395.31L298.38 394.75Z" fill="#FAFAFA"/>
</svg>
