<svg width="32" height="32" viewBox="0 0 32 32" fill="none" xmlns="http://www.w3.org/2000/svg">
<path d="M16 0.315674C19.6227 0.315674 20.0747 0.329007 21.496 0.395674C22.916 0.46234 23.8827 0.685007 24.7333 1.01567C25.6133 1.35434 26.3547 1.81301 27.096 2.55301C27.774 3.21953 28.2986 4.02579 28.6333 4.91567C28.9627 5.76501 29.1867 6.73301 29.2533 8.15301C29.316 9.57434 29.3333 10.0263 29.3333 13.649C29.3333 17.2717 29.32 17.7237 29.2533 19.145C29.1867 20.565 28.9627 21.5317 28.6333 22.3823C28.2996 23.2727 27.7748 24.0792 27.096 24.745C26.4293 25.4228 25.6231 25.9473 24.7333 26.2823C23.884 26.6117 22.916 26.8357 21.496 26.9023C20.0747 26.965 19.6227 26.9823 16 26.9823C12.3773 26.9823 11.9253 26.969 10.504 26.9023C9.084 26.8357 8.11733 26.6117 7.26666 26.2823C6.37643 25.9483 5.57003 25.4236 4.904 24.745C4.22587 24.0786 3.70124 23.2723 3.36666 22.3823C3.036 21.533 2.81333 20.565 2.74666 19.145C2.684 17.7237 2.66666 17.2717 2.66666 13.649C2.66666 10.0263 2.68 9.57434 2.74666 8.15301C2.81333 6.73167 3.036 5.76634 3.36666 4.91567C3.70031 4.02525 4.22507 3.21877 4.904 2.55301C5.57023 1.87465 6.37657 1.34998 7.26666 1.01567C8.11733 0.685007 9.08266 0.46234 10.504 0.395674C11.9253 0.333007 12.3773 0.315674 16 0.315674ZM16 6.98234C14.2319 6.98234 12.5362 7.68472 11.286 8.93496C10.0357 10.1852 9.33333 11.8809 9.33333 13.649C9.33333 15.4171 10.0357 17.1128 11.286 18.3631C12.5362 19.6133 14.2319 20.3157 16 20.3157C17.7681 20.3157 19.4638 19.6133 20.714 18.3631C21.9643 17.1128 22.6667 15.4171 22.6667 13.649C22.6667 11.8809 21.9643 10.1852 20.714 8.93496C19.4638 7.68472 17.7681 6.98234 16 6.98234V6.98234ZM24.6667 6.64901C24.6667 6.20698 24.4911 5.78306 24.1785 5.4705C23.8659 5.15793 23.442 4.98234 23 4.98234C22.558 4.98234 22.134 5.15793 21.8215 5.4705C21.5089 5.78306 21.3333 6.20698 21.3333 6.64901C21.3333 7.09103 21.5089 7.51496 21.8215 7.82752C22.134 8.14008 22.558 8.31567 23 8.31567C23.442 8.31567 23.8659 8.14008 24.1785 7.82752C24.4911 7.51496 24.6667 7.09103 24.6667 6.64901ZM16 9.64901C17.0609 9.64901 18.0783 10.0704 18.8284 10.8206C19.5786 11.5707 20 12.5881 20 13.649C20 14.7099 19.5786 15.7273 18.8284 16.4774C18.0783 17.2276 17.0609 17.649 16 17.649C14.9391 17.649 13.9217 17.2276 13.1716 16.4774C12.4214 15.7273 12 14.7099 12 13.649C12 12.5881 12.4214 11.5707 13.1716 10.8206C13.9217 10.0704 14.9391 9.64901 16 9.64901V9.64901Z" fill="white"/>
</svg>
