<svg width="27" height="18" viewBox="0 0 27 18" fill="none" xmlns="http://www.w3.org/2000/svg">
<path d="M25.459 2.72129C25.3118 2.19612 25.025 1.72066 24.6292 1.34546C24.2221 0.958709 23.7233 0.682061 23.1797 0.541622C21.1452 0.00537199 12.9942 0.00537213 12.9942 0.00537213C9.59611 -0.0332892 6.19888 0.136753 2.82167 0.514539C2.27804 0.665353 1.78011 0.948183 1.37217 1.33787C0.971335 1.72354 0.681002 2.19912 0.529335 2.72021C0.165003 4.68293 -0.012015 6.67583 0.000668615 8.67204C-0.0123314 10.6665 0.164252 12.6587 0.529335 14.6239C0.677752 15.1428 0.967002 15.6162 1.36892 15.9986C1.77084 16.381 2.27134 16.6573 2.82167 16.8035C4.88325 17.3387 12.9942 17.3387 12.9942 17.3387C16.3966 17.3774 19.7981 17.2074 23.1797 16.8295C23.7233 16.6891 24.2221 16.4125 24.6292 16.0257C25.03 15.6433 25.3149 15.1677 25.4579 14.6499C25.8318 12.6879 26.0135 10.6942 26.0007 8.69695C26.0288 6.69128 25.8472 4.68815 25.459 2.72021V2.72129ZM10.4028 12.3814V4.96379L17.1845 8.67312L10.4028 12.3814Z" fill="white"/>
</svg>
