<svg width="16" height="16" viewBox="0 0 16 16" fill="none" xmlns="http://www.w3.org/2000/svg">
<circle cx="8" cy="8" r="8" fill="#0444A2"/>
<path d="M3.13281 7.542L7.67051 12.7715C7.71152 12.8188 7.76223 12.8568 7.8192 12.8828C7.87617 12.9088 7.93806 12.9222 8.00068 12.9222C8.0633 12.9222 8.1252 12.9088 8.18216 12.8828C8.23913 12.8568 8.28984 12.8188 8.33086 12.7715L12.8672 7.542C12.8809 7.52624 12.8898 7.50687 12.8928 7.48619C12.8958 7.46552 12.8928 7.44442 12.8842 7.42541C12.8755 7.40639 12.8616 7.39026 12.844 7.37893C12.8265 7.36761 12.806 7.36157 12.7852 7.36153H11.6777C11.6148 7.36153 11.5547 7.38887 11.5123 7.43673L8.51953 10.8861V3.18751C8.51953 3.12735 8.47031 3.07813 8.41015 3.07813H7.58984C7.52969 3.07813 7.48047 3.12735 7.48047 3.18751L7.48047 10.8861L4.48769 7.43673C4.44668 7.38887 4.38652 7.36153 4.32226 7.36153H3.21484C3.12187 7.36153 3.07129 7.47091 3.13281 7.542Z" fill="white"/>
</svg>
