<svg width="761" height="500" viewBox="0 0 761 500" fill="none" xmlns="http://www.w3.org/2000/svg">
<path d="M469.87 454.86C469.87 454.86 547.74 468.93 612.22 415.33C676.7 361.73 698.28 273 717.66 201.5C737.04 130 707.13 65.57 646.8 43.9C586.47 22.23 557.21 73.74 480.63 88.69C404.05 103.64 381.38 96 325.27 150.31C269.16 204.62 276 309.83 339.9 377.92C403.8 446.01 469.87 454.86 469.87 454.86Z" fill="white"/>
<path opacity="0.8" d="M469.87 454.86C469.87 454.86 547.74 468.93 612.22 415.33C676.7 361.73 698.28 273 717.66 201.5C737.04 130 707.13 65.57 646.8 43.9C586.47 22.23 557.21 73.74 480.63 88.69C404.05 103.64 381.38 96 325.27 150.31C269.16 204.62 276 309.83 339.9 377.92C403.8 446.01 469.87 454.86 469.87 454.86Z" fill="white"/>
<path d="M558.85 195C558.85 195 558.85 188.26 549.41 178.82C539.97 169.38 533.9 164 533.9 164C533.9 164 529.17 179.51 537.9 188.95C546.63 198.39 558.81 207.16 558.81 207.16L558.85 195Z" fill="#0041A1"/>
<path d="M545.14 237.14C545.14 237.14 545.14 230.39 535.7 220.95C526.26 211.51 520.19 206.11 520.19 206.11C520.19 206.11 515.47 221.63 524.24 231.11C533.01 240.59 545.14 249.31 545.14 249.31V237.14Z" fill="#0041A1"/>
<path d="M558.25 206.51C558.25 206.51 558.97 199.8 569.35 191.41C579.73 183.02 586.35 178.3 586.35 178.3C586.35 178.3 589.41 194.22 579.69 202.68C569.97 211.14 557 218.58 557 218.58L558.25 206.51Z" fill="#0041A1"/>
<path d="M541.7 256.24C541.7 256.24 543.11 249.65 554.32 242.4C565.53 235.15 572.6 231.14 572.6 231.14C572.6 231.14 573.96 247.29 563.41 254.69C552.86 262.09 539.16 268.11 539.16 268.11L541.7 256.24Z" fill="#0041A1"/>
<path d="M544.81 310.47C544.81 310.47 544.81 303.73 554.25 294.29C563.69 284.85 569.76 279.45 569.76 279.45C569.76 279.45 574.48 294.96 565.76 304.4C557.04 313.84 544.85 322.61 544.85 322.61L544.81 310.47Z" fill="#0041A1"/>
<path d="M544.65 323.71C544.65 323.71 545.65 317.03 537.65 306.35C529.65 295.67 524.4 289.46 524.4 289.46C524.4 289.46 517.53 304.14 524.86 314.73C532.19 325.32 542.97 335.73 542.97 335.73L544.65 323.71Z" fill="#0041A1"/>
<path d="M535.35 362.94C535.35 362.94 535.35 356.19 544.79 346.75C554.23 337.31 560.3 331.92 560.3 331.92C560.3 331.92 565.02 347.43 556.25 356.87C547.48 366.31 535.35 375.07 535.35 375.07V362.94Z" fill="#0041A1"/>
<path d="M541.65 398.5C541.65 398.5 539.94 391.98 546.65 380.45C553.36 368.92 557.9 362.17 557.9 362.17C557.9 362.17 566.4 375.98 560.31 387.33C554.22 398.68 544.69 410.24 544.69 410.24L541.65 398.5Z" fill="#0041A1"/>
<path d="M559.7 193.29C559.223 200.312 558.362 207.302 557.12 214.23C553.38 233.51 544.05 245.95 540.32 263.37C536.59 280.79 547.32 303.22 544.43 325.59C541.54 347.96 532.86 360.4 535.35 375.33C537.84 390.26 550.9 430.69 550.9 430.69" stroke="#263238" stroke-width="0.5" stroke-linecap="round" stroke-linejoin="round"/>
<path d="M558.16 210.99L568.33 203.18" stroke="#263238" stroke-width="0.5" stroke-linecap="round" stroke-linejoin="round"/>
<path d="M558.63 202L554.37 194.43" stroke="#263238" stroke-width="0.5" stroke-linecap="round" stroke-linejoin="round"/>
<path d="M540.89 262.57C540.89 262.57 549.41 256.18 558.16 249.79" stroke="#263238" stroke-width="0.5" stroke-linecap="round" stroke-linejoin="round"/>
<path d="M545.14 249.27C545.14 249.27 538.05 235.36 530 226.13" stroke="#263238" stroke-width="0.5" stroke-linecap="round" stroke-linejoin="round"/>
<path d="M545.15 320.07C550.01 311.103 556.147 302.891 563.37 295.69" stroke="#263238" stroke-width="0.5" stroke-linecap="round" stroke-linejoin="round"/>
<path d="M543.49 329.53C540.904 323.441 537.817 317.578 534.26 312C529.26 304.67 528.58 303.72 528.58 303.72" stroke="#263238" stroke-width="0.5" stroke-linecap="round" stroke-linejoin="round"/>
<path d="M535.35 375.33C537.5 369.972 540.057 364.787 543 359.82C545.947 355.221 549.268 350.873 552.93 346.82" stroke="#263238" stroke-width="0.5" stroke-linecap="round" stroke-linejoin="round"/>
<path d="M544.72 410.24C544.72 410.24 543.72 402.17 547.28 395.31C550.84 388.45 554.85 379.45 556.5 375.9" stroke="#263238" stroke-width="0.5" stroke-linecap="round" stroke-linejoin="round"/>
<path d="M497 285.11C497 285.11 496.27 280.88 501.17 273.94C506.07 267 509.28 262.94 509.28 262.94C509.28 262.94 513.93 272.15 509.45 279.02C506.131 283.888 502.408 288.467 498.32 292.71L497 285.11Z" fill="#0041A1"/>
<path d="M510.19 310C510.19 310 509.46 305.77 514.35 298.83C519.24 291.89 522.47 287.83 522.47 287.83C522.47 287.83 527.11 297.04 522.64 303.92C519.319 308.783 515.596 313.359 511.51 317.6L510.19 310Z" fill="#0041A1"/>
<path d="M498.64 292.25C498.64 292.25 497.47 288.12 490.04 283.99C482.61 279.86 478 277.61 478 277.61C478 277.61 477.81 287.92 484.82 292.18C489.934 295.123 495.286 297.632 500.82 299.68L498.64 292.25Z" fill="#0041A1"/>
<path d="M514.42 321.64C514.42 321.64 512.82 317.64 505 314.33C497.18 311.02 492.32 309.25 492.32 309.25C492.32 309.25 493.22 319.53 500.64 323.02C506.026 325.409 511.602 327.346 517.31 328.81L514.42 321.64Z" fill="#0041A1"/>
<path d="M518.36 356C518.36 356 517.63 351.78 510.68 346.88C503.73 341.98 499.34 339.26 499.34 339.26C499.34 339.26 498.07 349.5 504.59 354.47C509.355 357.937 514.403 360.998 519.68 363.62L518.36 356Z" fill="#0041A1"/>
<path d="M519.89 364.27C519.89 364.27 518.57 360.18 522.43 352.61C526.29 345.04 528.9 340.61 528.9 340.61C528.9 340.61 534.8 349.07 531.35 356.5C528.754 361.788 525.72 366.849 522.28 371.63L519.89 364.27Z" fill="#0041A1"/>
<path d="M531.74 398.38C531.74 398.38 532.23 394.11 538.89 388.83C545.55 383.55 549.77 380.58 549.77 380.58C549.77 380.58 551.63 390.73 545.4 396.06C540.84 399.793 535.977 403.138 530.86 406.06L531.74 398.38Z" fill="#0041A1"/>
<path d="M530 387.86C530 387.86 529.27 383.63 522.32 378.73C515.37 373.83 511 371.11 511 371.11C511 371.11 509.72 381.35 516.24 386.32C521.005 389.787 526.053 392.848 531.33 395.47L530 387.86Z" fill="#0041A1"/>
<path d="M529.9 410.84C529.9 410.84 530.26 406.57 524.78 400.07C519.3 393.57 515.78 389.83 515.78 389.83C515.78 389.83 511.96 399.41 517.01 405.83C520.739 410.388 524.844 414.627 529.28 418.5L529.9 410.84Z" fill="#0041A1"/>
<path d="M496.3 284.12C497.361 288.481 498.66 292.781 500.19 297C504.63 308.69 511.83 315.47 516.06 326C520.29 336.53 516.01 351.75 520.24 365.46C524.47 379.17 531.24 386.04 531.33 395.67C531.42 405.3 527.59 432.07 527.59 432.07" stroke="#263238" stroke-width="0.5" stroke-linecap="round" stroke-linejoin="round"/>
<path d="M499.19 295.05L491.96 291.26" stroke="#263238" stroke-width="0.5" stroke-linecap="round" stroke-linejoin="round"/>
<path d="M497.91 289.46L499.76 284.25" stroke="#263238" stroke-width="0.5" stroke-linecap="round" stroke-linejoin="round"/>
<path d="M515.62 325.52C515.62 325.52 509.62 322.44 503.4 319.38" stroke="#263238" stroke-width="0.5" stroke-linecap="round" stroke-linejoin="round"/>
<path d="M511.51 317.64C511.51 317.64 514.44 308.15 518.51 301.49" stroke="#263238" stroke-width="0.5" stroke-linecap="round" stroke-linejoin="round"/>
<path d="M519.19 362C515.169 356.905 510.43 352.422 505.12 348.69" stroke="#263238" stroke-width="0.5" stroke-linecap="round" stroke-linejoin="round"/>
<path d="M521.26 367.79C522.216 363.689 523.514 359.675 525.14 355.79C527.46 350.65 527.8 349.98 527.8 349.98" stroke="#263238" stroke-width="0.5" stroke-linecap="round" stroke-linejoin="round"/>
<path d="M531 402.93C531 402.93 535.79 397.06 538.77 394.86C540.57 393.537 542.259 392.068 543.82 390.47" stroke="#263238" stroke-width="0.5" stroke-linecap="round" stroke-linejoin="round"/>
<path d="M531.33 395.63C529.4 392.5 527.23 389.524 524.84 386.73C522.491 384.165 519.936 381.797 517.2 379.65" stroke="#263238" stroke-width="0.5" stroke-linecap="round" stroke-linejoin="round"/>
<path d="M529.24 418.54C528.994 415.278 527.882 412.14 526.02 409.45C523.02 405.53 519.55 400.33 518.13 398.28" stroke="#263238" stroke-width="0.5" stroke-linecap="round" stroke-linejoin="round"/>
<path d="M678 343.12C678 343.12 681.16 339.82 681 330.79C680.84 321.76 680.36 316.28 680.36 316.28C680.36 316.28 670.8 321.65 670.66 330.36C670.699 336.626 671.264 342.878 672.35 349.05L678 343.12Z" fill="#0041A1"/>
<path d="M651.63 357.28C651.63 357.28 654.79 353.98 654.63 344.95C654.47 335.92 654 330.44 654 330.44C654 330.44 644.43 335.81 644.3 344.52C644.342 350.787 644.911 357.039 646 363.21L651.63 357.28Z" fill="#0041A1"/>
<path d="M672.37 348.45C672.37 348.45 675.86 345.51 684.86 346.27C693.86 347.03 699.3 347.82 699.3 347.82C699.3 347.82 693.3 357.03 684.63 356.61C678.381 356.175 672.179 355.219 666.09 353.75L672.37 348.45Z" fill="#0041A1"/>
<path d="M641 365C641 365 644.78 362.44 653.65 364.14C662.52 365.84 667.85 367.2 667.85 367.2C667.85 367.2 660.95 375.73 652.34 374.41C646.17 373.318 640.103 371.712 634.2 369.61L641 365Z" fill="#0041A1"/>
<path d="M617.13 393C617.13 393 620.29 389.71 629.32 389.51C638.35 389.31 643.84 389.51 643.84 389.51C643.84 389.51 638.89 399.29 630.19 399.8C623.929 400.028 617.661 399.73 611.45 398.91L617.13 393Z" fill="#0041A1"/>
<path d="M610.86 399.34C610.86 399.34 614.45 396.53 615.54 387.56C616.63 378.59 617 373.11 617 373.11C617 373.11 606.77 377.06 605.39 385.67C604.536 391.875 604.202 398.14 604.39 404.4L610.86 399.34Z" fill="#0041A1"/>
<path d="M587.94 414.15C587.94 414.15 591.1 410.85 600.13 410.66C609.16 410.47 614.66 410.66 614.66 410.66C614.66 410.66 609.66 420.44 601 420.95C594.739 421.177 588.471 420.879 582.26 420.06L587.94 414.15Z" fill="#0041A1"/>
<path d="M574.37 434.48C574.37 434.48 576.59 430.48 585.28 428.02C593.97 425.56 599.33 424.35 599.33 424.35C599.33 424.35 597.02 435.07 588.73 437.77C582.732 439.571 576.594 440.869 570.38 441.65L574.37 434.48Z" fill="#0041A1"/>
<path d="M679.27 342.67C675.75 345.873 672.054 348.877 668.2 351.67C657.35 359.34 646.97 361.05 636.99 367.82C627.01 374.59 621.74 390.55 609.87 400.14C598 409.73 587.92 411.73 582.14 420.14C576.36 428.55 563.82 454.47 563.82 454.47" stroke="#263238" stroke-width="0.5" stroke-linecap="round" stroke-linejoin="round"/>
<path d="M670.23 350.6L678.86 351.55" stroke="#263238" stroke-width="0.5" stroke-linecap="round" stroke-linejoin="round"/>
<path d="M674.67 346.43L676.13 340.73" stroke="#263238" stroke-width="0.5" stroke-linecap="round" stroke-linejoin="round"/>
<path d="M637.64 367.71C637.64 367.71 644.79 368.58 652.06 369.55" stroke="#263238" stroke-width="0.5" stroke-linecap="round" stroke-linejoin="round"/>
<path d="M646 363.21C646 363.21 649 353.09 649.43 344.81" stroke="#263238" stroke-width="0.5" stroke-linecap="round" stroke-linejoin="round"/>
<path d="M612.8 397.79C619.372 395.692 626.213 394.557 633.11 394.42" stroke="#263238" stroke-width="0.5" stroke-linecap="round" stroke-linejoin="round"/>
<path d="M607.56 401.64C609.149 397.461 610.383 393.156 611.25 388.77C612.25 382.86 612.36 382.06 612.36 382.06" stroke="#263238" stroke-width="0.5" stroke-linecap="round" stroke-linejoin="round"/>
<path d="M582.14 420.2C585.698 418.586 589.376 417.249 593.14 416.2C596.753 415.328 600.432 414.756 604.14 414.49" stroke="#263238" stroke-width="0.5" stroke-linecap="round" stroke-linejoin="round"/>
<path d="M570.38 441.65C572.534 438.919 575.379 436.813 578.62 435.55C583.56 433.86 589.74 431.35 592.21 430.39" stroke="#263238" stroke-width="0.5" stroke-linecap="round" stroke-linejoin="round"/>
<path d="M605.66 358.19C605.66 358.19 607.28 355.78 612.92 354.68C618.56 353.58 622.03 353.11 622.03 353.11C622.03 353.11 620.03 359.78 614.59 361.05C610.688 361.869 606.724 362.36 602.74 362.52L605.66 358.19Z" fill="#0041A1"/>
<path d="M600.42 376.52C600.42 376.52 602.04 374.12 607.69 373.01C613.34 371.9 616.8 371.45 616.8 371.45C616.8 371.45 614.75 378.12 609.35 379.39C605.448 380.209 601.484 380.701 597.5 380.86L600.42 376.52Z" fill="#0041A1"/>
<path d="M603.11 362.43C603.11 362.43 604.47 359.86 602.77 354.37C601.07 348.88 599.86 345.6 599.86 345.6C599.86 345.6 594.94 350.55 596.37 355.91C597.489 359.736 598.924 363.462 600.66 367.05L603.11 362.43Z" fill="#0041A1"/>
<path d="M597.05 384.18C597.05 384.18 598.14 381.48 595.88 376.18C593.62 370.88 592.06 367.76 592.06 367.76C592.06 367.76 587.68 373.2 589.67 378.38C591.183 382.066 593.003 385.618 595.11 389L597.05 384.18Z" fill="#0041A1"/>
<path d="M582.9 402.8C582.9 402.8 584.52 400.39 583.42 394.75C582.32 389.11 581.42 385.75 581.42 385.75C581.42 385.75 576 390.15 576.86 395.63C577.583 399.544 578.634 403.391 580 407.13L582.9 402.8Z" fill="#0041A1"/>
<path d="M579.77 407.56C579.77 407.56 581.03 404.95 586.46 403.06C591.89 401.17 595.26 400.21 595.26 400.21C595.26 400.21 594.18 407.11 589.01 409.13C585.268 410.499 581.418 411.549 577.5 412.27L579.77 407.56Z" fill="#0041A1"/>
<path d="M569.59 429.78C569.59 429.78 571.83 427.92 577.59 428.46C583.35 429 586.77 429.52 586.77 429.52C586.77 429.52 582.93 435.35 577.39 435.04C573.416 434.729 569.476 434.083 565.61 433.11L569.59 429.78Z" fill="#0041A1"/>
<path d="M573.66 423.82C573.66 423.82 575.28 421.41 574.18 415.76C573.08 410.11 572.18 406.76 572.18 406.76C572.18 406.76 566.76 411.17 567.62 416.65C568.326 420.573 569.359 424.43 570.71 428.18L573.66 423.82Z" fill="#0041A1"/>
<path d="M562.85 435C562.85 435 565.03 433.08 565.4 427.34C565.77 421.6 565.78 418.11 565.78 418.11C565.78 418.11 559.42 421 558.86 426.52C558.553 430.495 558.576 434.489 558.93 438.46L562.85 435Z" fill="#0041A1"/>
<path d="M605.77 357.36C604.25 359.981 602.878 362.686 601.66 365.46C598.35 373.25 598.66 379.94 595.83 387.05C593 394.16 583.75 399.61 579.4 408.29C575.05 416.97 575.16 423.51 570.68 428.24C566.2 432.97 551.81 444.24 551.81 444.24" stroke="#263238" stroke-width="0.5" stroke-linecap="round" stroke-linejoin="round"/>
<path d="M602.06 364.05L600.31 358.82" stroke="#263238" stroke-width="0.5" stroke-linecap="round" stroke-linejoin="round"/>
<path d="M604.06 360.73L607.4 359.05" stroke="#263238" stroke-width="0.5" stroke-linecap="round" stroke-linejoin="round"/>
<path d="M595.82 386.63C595.82 386.63 594.32 382.3 592.73 377.91" stroke="#263238" stroke-width="0.5" stroke-linecap="round" stroke-linejoin="round"/>
<path d="M597.5 380.86C600.999 378.948 604.685 377.4 608.5 376.24" stroke="#263238" stroke-width="0.5" stroke-linecap="round" stroke-linejoin="round"/>
<path d="M580.47 406.15C580.893 401.779 580.677 397.369 579.83 393.06" stroke="#263238" stroke-width="0.5" stroke-linecap="round" stroke-linejoin="round"/>
<path d="M578.79 409.92C581.175 408.381 583.684 407.043 586.29 405.92C589.83 404.5 590.29 404.33 590.29 404.33" stroke="#263238" stroke-width="0.5" stroke-linecap="round" stroke-linejoin="round"/>
<path d="M567.1 431.66C569.609 431.333 572.142 431.229 574.67 431.35C576.168 431.549 577.68 431.623 579.19 431.57" stroke="#263238" stroke-width="0.5" stroke-linecap="round" stroke-linejoin="round"/>
<path d="M570.68 428.24C571.2 425.809 571.535 423.342 571.68 420.86C571.733 418.519 571.592 416.178 571.26 413.86" stroke="#263238" stroke-width="0.5" stroke-linecap="round" stroke-linejoin="round"/>
<path d="M558.93 438.46C560.336 436.75 561.261 434.696 561.61 432.51C561.99 429.2 562.72 425.02 562.98 423.36" stroke="#263238" stroke-width="0.5" stroke-linecap="round" stroke-linejoin="round"/>
<path d="M375.89 370.8C375.89 370.8 373.52 368.33 373.66 361.54C373.8 354.75 374.13 350.64 374.13 350.64C374.13 350.64 381.32 354.64 381.43 361.22C381.395 365.914 380.971 370.597 380.16 375.22L375.89 370.8Z" fill="#0041A1"/>
<path d="M395.74 381.44C395.74 381.44 393.36 378.97 393.51 372.18C393.66 365.39 393.98 361.28 393.98 361.28C393.98 361.28 401.17 365.28 401.28 371.86C401.245 376.554 400.821 381.237 400.01 385.86L395.74 381.44Z" fill="#0041A1"/>
<path d="M380.15 374.81C380.15 374.81 377.53 372.6 370.76 373.17C363.99 373.74 359.91 374.34 359.91 374.34C359.91 374.34 364.39 381.26 370.91 380.95C375.605 380.617 380.265 379.895 384.84 378.79L380.15 374.81Z" fill="#0041A1"/>
<path d="M403.72 387.25C403.72 387.25 400.88 385.32 394.22 386.61C387.56 387.9 383.55 388.9 383.55 388.9C383.55 388.9 388.73 395.31 395.21 394.32C399.843 393.498 404.399 392.291 408.83 390.71L403.72 387.25Z" fill="#0041A1"/>
<path d="M421.66 408.25C421.66 408.25 419.29 405.78 412.5 405.63C405.71 405.48 401.59 405.63 401.59 405.63C401.59 405.63 405.31 412.99 411.85 413.37C416.554 413.539 421.263 413.315 425.93 412.7L421.66 408.25Z" fill="#0041A1"/>
<path d="M426.38 413.06C426.38 413.06 423.68 410.94 422.85 404.2C422.02 397.46 421.77 393.34 421.77 393.34C421.77 393.34 429.46 396.34 430.5 402.78C431.137 407.445 431.385 412.154 431.24 416.86L426.38 413.06Z" fill="#0041A1"/>
<path d="M443.6 424.18C443.6 424.18 441.22 421.71 434.43 421.56C427.64 421.41 423.52 421.56 423.52 421.56C423.52 421.56 427.24 428.92 433.78 429.3C438.487 429.469 443.2 429.245 447.87 428.63L443.6 424.18Z" fill="#0041A1"/>
<path d="M453.79 439.46C453.79 439.46 452.13 436.46 445.6 434.6C439.07 432.74 435 431.85 435 431.85C435 431.85 436.74 439.91 443 441.93C447.51 443.288 452.126 444.264 456.8 444.85L453.79 439.46Z" fill="#0041A1"/>
<path d="M375 370.47C377.644 372.88 380.418 375.143 383.31 377.25C391.47 383.01 399.31 384.3 406.77 389.38C414.23 394.46 418.23 406.47 427.15 413.67C436.07 420.87 443.65 422.38 447.99 428.73C452.33 435.08 461.75 454.53 461.75 454.53" stroke="#263238" stroke-width="0.5" stroke-linecap="round" stroke-linejoin="round"/>
<path d="M381.76 376.42L375.28 377.14" stroke="#263238" stroke-width="0.5" stroke-linecap="round" stroke-linejoin="round"/>
<path d="M378.42 373.29L377.32 369.01" stroke="#263238" stroke-width="0.5" stroke-linecap="round" stroke-linejoin="round"/>
<path d="M406.25 389.28C406.25 389.28 400.87 389.94 395.41 390.67" stroke="#263238" stroke-width="0.5" stroke-linecap="round" stroke-linejoin="round"/>
<path d="M400 385.9C398.67 381.393 397.802 376.763 397.41 372.08" stroke="#263238" stroke-width="0.5" stroke-linecap="round" stroke-linejoin="round"/>
<path d="M424.91 411.89C419.972 410.314 414.832 409.459 409.65 409.35" stroke="#263238" stroke-width="0.5" stroke-linecap="round" stroke-linejoin="round"/>
<path d="M428.85 414.78C427.662 411.638 426.736 408.404 426.08 405.11C425.32 400.67 425.25 400.11 425.25 400.11" stroke="#263238" stroke-width="0.5" stroke-linecap="round" stroke-linejoin="round"/>
<path d="M448 428.73C445.32 427.521 442.552 426.518 439.72 425.73C437.017 425.078 434.264 424.65 431.49 424.45" stroke="#263238" stroke-width="0.5" stroke-linecap="round" stroke-linejoin="round"/>
<path d="M456.8 444.85C455.176 442.8 453.036 441.22 450.6 440.27C446.89 439 442.25 437.11 440.39 436.39" stroke="#263238" stroke-width="0.5" stroke-linecap="round" stroke-linejoin="round"/>
<path d="M430.28 382.13C430.28 382.13 429.06 380.32 424.82 379.49C420.58 378.66 417.98 378.31 417.98 378.31C417.98 378.31 419.51 383.31 423.57 384.31C426.504 384.928 429.484 385.299 432.48 385.42L430.28 382.13Z" fill="#0041A1"/>
<path d="M434.22 395.91C434.22 395.91 433 394.1 428.76 393.27C424.52 392.44 421.91 392.09 421.91 392.09C421.91 392.09 423.45 397.09 427.51 398.09C430.441 398.708 433.418 399.079 436.41 399.2L434.22 395.91Z" fill="#0041A1"/>
<path d="M432.2 385.32C432.2 385.32 431.2 383.39 432.45 379.26C433.7 375.13 434.64 372.67 434.64 372.67C434.64 372.67 438.34 376.39 437.26 380.42C436.419 383.294 435.342 386.094 434.04 388.79L432.2 385.32Z" fill="#0041A1"/>
<path d="M436.75 401.66C436.75 401.66 435.94 399.66 437.63 395.66C439.32 391.66 440.5 389.34 440.5 389.34C440.5 389.34 443.79 393.43 442.3 397.34C441.161 400.115 439.793 402.791 438.21 405.34L436.75 401.66Z" fill="#0041A1"/>
<path d="M447.39 415.65C447.39 415.65 446.17 413.84 446.99 409.65C447.81 405.46 448.48 402.87 448.48 402.87C448.48 402.87 452.55 406.18 451.9 410.3C451.367 413.246 450.591 416.142 449.58 418.96L447.39 415.65Z" fill="#0041A1"/>
<path d="M449.74 419.24C449.74 419.24 448.74 417.24 444.74 415.85C440.74 414.46 438.13 413.71 438.13 413.71C438.13 413.71 438.94 418.89 442.82 420.41C445.635 421.44 448.532 422.229 451.48 422.77L449.74 419.24Z" fill="#0041A1"/>
<path d="M457.39 435.93C457.39 435.93 455.71 434.53 451.39 434.93C447.07 435.33 444.49 435.72 444.49 435.72C444.49 435.72 447.37 440.1 451.54 439.87C454.525 439.638 457.485 439.156 460.39 438.43L457.39 435.93Z" fill="#0041A1"/>
<path d="M454.33 431.45C454.33 431.45 453.11 429.64 453.94 425.4C454.77 421.16 455.42 418.61 455.42 418.61C455.42 418.61 459.49 421.92 458.84 426.04C458.313 428.99 457.537 431.891 456.52 434.71L454.33 431.45Z" fill="#0041A1"/>
<path d="M462.45 439.85C462.45 439.85 460.81 438.41 460.54 434.1C460.27 429.79 460.25 427.16 460.25 427.16C460.25 427.16 465.03 429.33 465.45 433.48C465.703 436.475 465.703 439.485 465.45 442.48L462.45 439.85Z" fill="#0041A1"/>
<path d="M430.2 381.51C431.34 383.482 432.372 385.515 433.29 387.6C435.78 393.45 435.52 398.47 437.67 403.82C439.82 409.17 446.74 413.26 450.02 419.82C453.3 426.38 453.2 431.26 456.57 434.82C459.94 438.38 470.75 446.87 470.75 446.87" stroke="#263238" stroke-width="0.5" stroke-linecap="round" stroke-linejoin="round"/>
<path d="M432.99 386.54L434.3 382.6" stroke="#263238" stroke-width="0.5" stroke-linecap="round" stroke-linejoin="round"/>
<path d="M431.49 384.04L428.97 382.78" stroke="#263238" stroke-width="0.5" stroke-linecap="round" stroke-linejoin="round"/>
<path d="M437.67 403.51C437.67 403.51 438.81 400.25 440 396.95" stroke="#263238" stroke-width="0.5" stroke-linecap="round" stroke-linejoin="round"/>
<path d="M436.41 399.17C433.787 397.73 431.022 396.564 428.16 395.69" stroke="#263238" stroke-width="0.5" stroke-linecap="round" stroke-linejoin="round"/>
<path d="M449.21 418.17C448.898 414.884 449.063 411.569 449.7 408.33" stroke="#263238" stroke-width="0.5" stroke-linecap="round" stroke-linejoin="round"/>
<path d="M450.48 421C448.682 419.846 446.793 418.843 444.83 418C442.17 416.93 441.83 416.8 441.83 416.8" stroke="#263238" stroke-width="0.5" stroke-linecap="round" stroke-linejoin="round"/>
<path d="M459.26 437.34C457.374 437.096 455.47 437.019 453.57 437.11C452.443 437.261 451.306 437.318 450.17 437.28" stroke="#263238" stroke-width="0.5" stroke-linecap="round" stroke-linejoin="round"/>
<path d="M456.57 434.77C456.178 432.942 455.928 431.086 455.82 429.22C455.784 427.451 455.891 425.682 456.14 423.93" stroke="#263238" stroke-width="0.5" stroke-linecap="round" stroke-linejoin="round"/>
<path d="M465.4 442.45C464.349 441.163 463.659 439.621 463.4 437.98C463.12 435.5 462.57 432.36 462.4 431.1" stroke="#263238" stroke-width="0.5" stroke-linecap="round" stroke-linejoin="round"/>
<path d="M518.15 111.52H478.51C460.408 111.543 442.647 116.448 427.1 125.72L421.22 129.21C407.717 137.266 396.227 148.292 387.62 161.45L381.39 170.94C379.71 173.544 377.408 175.689 374.691 177.18C371.974 178.671 368.929 179.461 365.83 179.48H342.44C341.824 179.48 341.233 179.724 340.796 180.159C340.359 180.594 340.113 181.184 340.11 181.8C340.11 182.418 340.355 183.011 340.792 183.448C341.229 183.885 341.822 184.13 342.44 184.13H367.44C370.934 184.116 374.383 183.336 377.543 181.845C380.703 180.354 383.498 178.188 385.73 175.5L395.66 163.7C404.896 152.692 416.344 143.748 429.26 137.45C442.919 130.814 457.904 127.361 473.09 127.35H516.36L518.15 111.52Z" fill="#0041A1"/>
<path d="M505.23 111.52H544.87C562.972 111.543 580.733 116.448 596.28 125.72L602.16 129.21C615.663 137.266 627.153 148.292 635.76 161.45L641.99 170.94C643.67 173.544 645.972 175.689 648.689 177.18C651.406 178.671 654.451 179.461 657.55 179.48H680.94C681.556 179.48 682.147 179.724 682.584 180.159C683.021 180.594 683.267 181.184 683.27 181.8C683.27 182.418 683.025 183.011 682.588 183.448C682.151 183.885 681.558 184.13 680.94 184.13H655.94C652.446 184.116 648.997 183.336 645.837 181.845C642.677 180.354 639.882 178.188 637.65 175.5L627.72 163.7C618.484 152.692 607.036 143.748 594.12 137.45C580.461 130.814 565.476 127.361 550.29 127.35H507L505.23 111.52Z" fill="#0041A1"/>
<path d="M516.724 142.655C528.969 140.599 537.228 129.007 535.172 116.763C533.117 104.519 521.525 96.2596 509.281 98.3151C497.037 100.371 488.777 111.963 490.833 124.207C492.888 136.451 504.48 144.71 516.724 142.655Z" fill="#A3A3A3"/>
<path d="M538.01 404.72H488C485.073 404.72 482.7 407.093 482.7 410.02V412.66C482.7 415.587 485.073 417.96 488 417.96H538.01C540.937 417.96 543.31 415.587 543.31 412.66V410.02C543.31 407.093 540.937 404.72 538.01 404.72Z" fill="#A3A3A3"/>
<path d="M547.77 372.35L545.64 367.91C540.918 358.087 537.85 347.552 536.56 336.73L520.63 173.46L515.3 173.1V172.8L513 173L510.7 172.85V173.15L505.37 173.51L489.44 336.73C488.15 347.552 485.082 358.087 480.36 367.91L478.23 372.35C476.05 376.88 475.206 381.938 475.798 386.931C476.389 391.924 478.392 396.644 481.57 400.54L485.51 405.38H540.51L544.45 400.54C547.625 396.642 549.624 391.921 550.212 386.928C550.8 381.935 549.953 376.879 547.77 372.35Z" fill="#A3A3A3"/>
<path d="M422.3 414.65H603.7C608.264 414.65 612.642 416.463 615.869 419.691C619.097 422.918 620.91 427.296 620.91 431.86V439.14H405.09V431.86C405.09 427.296 406.903 422.918 410.131 419.691C413.358 416.463 417.736 414.65 422.3 414.65Z" fill="#A3A3A3"/>
<path d="M393.2 435.06H632.8C638.027 435.06 643.041 437.137 646.737 440.833C650.433 444.529 652.51 449.543 652.51 454.77V457.88H373.51V454.77C373.51 449.546 375.584 444.536 379.276 440.84C382.968 437.144 387.976 435.065 393.2 435.06Z" fill="#A3A3A3"/>
<path d="M507.57 117.85H518.43L529.38 85.71C531.74 78.79 528.79 70.13 524.07 70.13H501.93C497.21 70.13 494.26 78.79 496.62 85.71L507.57 117.85Z" fill="#A3A3A3"/>
<path d="M518.43 117.14H507.57L496.62 149.27C494.26 156.2 497.21 164.85 501.93 164.85H524.07C528.79 164.85 531.74 156.2 529.38 149.27L518.43 117.14Z" fill="#A3A3A3"/>
<path d="M513 70.68C522.234 70.68 529.72 64.4926 529.72 56.86C529.72 49.2274 522.234 43.04 513 43.04C503.766 43.04 496.28 49.2274 496.28 56.86C496.28 64.4926 503.766 70.68 513 70.68Z" fill="#A3A3A3"/>
<path d="M518.3 125.79H507.7C507.005 125.79 506.317 125.653 505.676 125.387C505.034 125.121 504.451 124.732 503.959 124.241C503.468 123.749 503.079 123.166 502.813 122.524C502.547 121.883 502.41 121.195 502.41 120.5C502.409 119.804 502.545 119.116 502.81 118.473C503.075 117.83 503.464 117.245 503.956 116.753C504.447 116.261 505.031 115.87 505.673 115.604C506.316 115.337 507.004 115.2 507.7 115.2H518.3C518.996 115.2 519.684 115.337 520.327 115.604C520.969 115.87 521.553 116.261 522.044 116.753C522.535 117.245 522.925 117.83 523.19 118.473C523.455 119.116 523.591 119.804 523.59 120.5C523.59 121.195 523.453 121.883 523.187 122.524C522.921 123.166 522.532 123.749 522.041 124.241C521.549 124.732 520.966 125.121 520.324 125.387C519.683 125.653 518.995 125.79 518.3 125.79Z" fill="#0041A1"/>
<path d="M522.16 163.53H503.85C500.923 163.53 498.55 165.903 498.55 168.83V171.47C498.55 174.397 500.923 176.77 503.85 176.77H522.16C525.087 176.77 527.46 174.397 527.46 171.47V168.83C527.46 165.903 525.087 163.53 522.16 163.53Z" fill="#A3A3A3"/>
<path d="M357.31 182.63L314.56 289.56H400.06L357.31 182.63Z" stroke="#A3A3A3" stroke-linecap="round" stroke-linejoin="round"/>
<path d="M357.31 182.63V291.02" stroke="#A3A3A3" stroke-linecap="round" stroke-linejoin="round"/>
<path d="M310.33 293.57V298.62C310.33 301.834 311.607 304.917 313.88 307.19C316.153 309.463 319.236 310.74 322.45 310.74H392.16C393.752 310.741 395.329 310.429 396.8 309.82C398.271 309.211 399.607 308.319 400.733 307.193C401.859 306.067 402.751 304.731 403.36 303.26C403.969 301.789 404.281 300.212 404.28 298.62V293.57H310.33Z" fill="#0041A1"/>
<path d="M405 289H309.59C308.91 289 308.257 289.267 307.773 289.744C307.288 290.221 307.011 290.87 307 291.55C307 292.238 307.273 292.898 307.758 293.385C308.243 293.872 308.902 294.147 309.59 294.15H405C405.688 294.147 406.347 293.872 406.832 293.385C407.317 292.898 407.59 292.238 407.59 291.55C407.579 290.87 407.302 290.221 406.817 289.744C406.333 289.267 405.68 289 405 289Z" fill="#0041A1"/>
<path d="M665.93 182.63L623.18 289.56H708.68L665.93 182.63Z" stroke="#A3A3A3" stroke-linecap="round" stroke-linejoin="round"/>
<path d="M665.93 182.63V291.02" stroke="#A3A3A3" stroke-linecap="round" stroke-linejoin="round"/>
<path d="M619 293.57V298.62C619 300.212 619.314 301.789 619.924 303.26C620.533 304.732 621.427 306.068 622.553 307.194C623.68 308.319 625.017 309.212 626.489 309.82C627.96 310.429 629.538 310.741 631.13 310.74H700.84C704.054 310.74 707.137 309.463 709.41 307.19C711.683 304.917 712.96 301.834 712.96 298.62V293.57H619Z" fill="#0041A1"/>
<path d="M713.64 289H618.22C617.533 289 616.874 289.273 616.389 289.759C615.903 290.244 615.63 290.903 615.63 291.59C615.63 292.278 615.903 292.938 616.388 293.425C616.873 293.912 617.532 294.187 618.22 294.19H713.64C713.981 294.19 714.32 294.123 714.635 293.992C714.95 293.861 715.237 293.67 715.478 293.428C715.72 293.187 715.911 292.9 716.042 292.585C716.173 292.27 716.24 291.931 716.24 291.59C716.24 291.249 716.173 290.911 716.042 290.597C715.911 290.282 715.719 289.996 715.478 289.755C715.236 289.514 714.95 289.324 714.634 289.194C714.319 289.065 713.981 288.999 713.64 289Z" fill="#0041A1"/>
<path d="M725 457.88H736" stroke="#263238" stroke-linecap="round" stroke-linejoin="round"/>
<path d="M287.67 457.88H712" stroke="#263238" stroke-linecap="round" stroke-linejoin="round"/>
<path d="M703.924 457.633C703.924 457.794 600.955 457.923 473.973 457.923C346.99 457.923 244 457.794 244 457.633C244 457.472 346.915 457.354 473.973 457.354C601.03 457.354 703.924 457.483 703.924 457.633Z" fill="#263238"/>
<path d="M119.82 460.254C119.295 458.145 134.689 380.489 134.689 380.489L217.136 368.693C217.136 368.693 250.596 389.068 251.646 405.913C252.696 422.757 260.474 460.225 260.474 460.225H180.689L178.17 457.028L176.547 460.025L119.82 460.254Z" fill="#263238"/>
<path d="M184.63 444.803C184.63 444.803 184.63 444.851 184.63 444.946C184.612 445.083 184.58 445.217 184.535 445.347C184.364 445.857 184.073 446.319 183.686 446.693C183.08 447.295 182.321 447.721 181.491 447.924C180.383 448.196 179.216 448.075 178.189 447.58C176.949 446.988 175.9 446.058 175.163 444.898C174.333 443.582 173.757 442.122 173.464 440.594C173.121 439 172.93 437.321 172.672 435.584C172.415 433.847 172.176 432.053 171.918 430.211C170.964 422.872 170.01 416.229 169.38 411.334C169.084 408.967 168.845 407.029 168.664 405.607C168.597 404.978 168.54 404.462 168.492 404.052C168.469 403.868 168.469 403.682 168.492 403.498C168.549 403.673 168.59 403.851 168.616 404.033L168.874 405.579C169.093 407.001 169.389 408.929 169.742 411.305C170.439 416.191 171.384 422.834 172.434 430.163C172.688 432.008 172.936 433.799 173.178 435.536C173.426 437.273 173.608 438.962 173.932 440.518C174.203 441.997 174.744 443.414 175.526 444.698C176.229 445.803 177.219 446.697 178.389 447.284C179.346 447.771 180.444 447.906 181.491 447.666C182.264 447.477 182.972 447.085 183.542 446.53C184.047 446.057 184.422 445.462 184.63 444.803Z" fill="#455A64"/>
<path d="M177.721 398.106C177.998 397.967 178.312 397.921 178.618 397.973C179.042 398.012 179.454 398.136 179.83 398.338C180.205 398.54 180.536 398.815 180.804 399.146C181.187 399.661 181.426 400.268 181.496 400.905C181.567 401.543 181.466 402.187 181.204 402.773C180.897 403.497 180.39 404.119 179.743 404.566C179.096 405.014 178.335 405.269 177.549 405.302C176.724 405.351 175.906 405.119 175.23 404.643C174.612 404.202 174.137 403.588 173.865 402.878C173.607 402.236 173.547 401.531 173.694 400.855C173.823 400.271 174.114 399.735 174.533 399.309C175.124 398.691 175.916 398.305 176.767 398.221C177.071 398.178 177.38 398.218 177.664 398.335C177.664 398.383 177.339 398.335 176.786 398.421C176.015 398.566 175.314 398.962 174.791 399.547C174.415 399.971 174.167 400.493 174.078 401.053C173.988 401.613 174.06 402.186 174.285 402.706C174.538 403.35 174.985 403.899 175.566 404.276C176.146 404.652 176.83 404.837 177.521 404.806C178.217 404.776 178.891 404.553 179.467 404.162C180.044 403.771 180.5 403.227 180.784 402.592C181.026 402.078 181.129 401.509 181.082 400.943C181.035 400.377 180.84 399.833 180.517 399.366C180.059 398.735 179.376 398.304 178.609 398.163C178.065 398.068 177.721 398.154 177.721 398.106Z" fill="#455A64"/>
<path d="M231.165 179.548H187.646L182.808 192.356L155.208 230.196L133.524 386.406L161.125 391.512C165.916 392.401 170.81 392.607 175.659 392.122L217.136 388.028L218.377 248.692L238.58 192.671L231.165 179.548Z" fill="#F5F5F5"/>
<path d="M198.097 206.986C198.097 206.986 198.097 207.148 197.982 207.454C197.868 207.759 197.763 208.236 197.591 208.828C197.228 210.049 196.713 211.815 196.045 214.077C195.377 216.339 194.527 219.145 193.611 222.399C192.695 225.653 191.607 229.337 190.519 233.45C189.431 237.564 188.181 242.04 186.969 246.897C185.757 251.755 184.478 256.928 183.151 262.387C180.594 273.343 177.979 285.415 175.516 298.156C173.054 310.897 171.126 323.113 169.494 334.24C168.721 339.804 167.958 345.091 167.376 350.064C166.794 355.036 166.211 359.607 165.753 363.873C165.295 368.139 164.923 371.928 164.589 375.326C164.255 378.723 163.997 381.586 163.797 383.915C163.596 386.243 163.434 388.104 163.32 389.374C163.262 389.975 163.215 390.452 163.186 390.786C163.157 391.12 163.119 391.273 163.119 391.273C163.111 391.111 163.111 390.948 163.119 390.786C163.119 390.443 163.177 389.975 163.205 389.364C163.301 388.095 163.434 386.253 163.596 383.905C163.759 381.558 163.978 378.628 164.303 375.259C164.627 371.89 164.923 368.063 165.391 363.806C165.858 359.55 166.345 354.94 166.956 349.978C167.567 345.015 168.273 339.718 169.036 334.145C170.64 323.008 172.615 310.801 175.02 298.041C177.425 285.282 180.088 273.228 182.655 262.253C183.991 256.794 185.232 251.593 186.472 246.764C187.713 241.935 188.944 237.421 190.089 233.326C191.235 229.232 192.313 225.539 193.248 222.294C194.184 219.049 195.043 216.262 195.758 213.991L197.4 208.771L197.839 207.415L198.097 206.986Z" fill="#263238"/>
<path d="M146.074 374.066C146.089 376.766 146.393 379.457 146.981 382.092C147.745 384.686 148.792 387.189 150.102 389.555C149.54 388.976 149.067 388.317 148.699 387.599C146.764 384.206 145.776 380.357 145.836 376.452C145.798 375.649 145.878 374.845 146.074 374.066Z" fill="#263238"/>
<path d="M148.518 390.147C147.941 390.001 147.399 389.741 146.924 389.383C144.506 387.852 142.585 385.65 141.398 383.046C141.111 382.526 140.926 381.956 140.854 381.367C142.54 384.942 145.182 387.981 148.489 390.147H148.518Z" fill="#263238"/>
<path d="M182.101 375.44C182.28 376.241 182.338 377.065 182.273 377.883C182.234 379.856 181.974 381.818 181.5 383.733C181.034 385.654 180.349 387.514 179.458 389.278C179.133 390.029 178.702 390.73 178.179 391.359C178.453 390.596 178.772 389.851 179.133 389.126C180.709 385.562 181.649 381.751 181.911 377.864C181.923 377.053 181.986 376.243 182.101 375.44Z" fill="#263238"/>
<path d="M183.943 189.34C183.943 189.34 157.364 200.582 153.537 201.317C149.71 202.052 136.359 205.402 136.359 205.402C136.359 205.402 126.071 223.821 127.025 234.357C127.98 244.893 135.166 320.488 135.166 320.488C135.166 320.488 123.437 385.804 123.198 390.595C122.96 395.386 112.824 441.081 114.781 440.804C116.737 440.527 125.546 430.755 125.546 430.755L154.74 270.203C154.74 270.203 162.375 233.355 168.101 221.397C173.827 209.439 183.905 193.883 183.905 193.883L183.943 189.34Z" fill="#263238"/>
<path d="M144.967 323.971C144.957 323.844 144.957 323.717 144.967 323.59C144.967 323.322 144.967 322.95 144.91 322.483C144.862 321.528 144.795 320.059 144.719 318.236C144.576 314.514 144.385 309.169 144.147 302.584C143.908 295.999 143.679 288.097 143.478 279.355C143.383 274.984 143.288 270.403 143.278 265.641C143.524 260.713 144.335 255.83 145.693 251.087C147.783 243.003 150.407 235.426 152.936 228.421C155.465 221.416 158.023 215.003 160.38 209.334C163.065 207.088 165.524 205.03 167.757 203.159L167.929 203.445L162.499 205.573L162.003 205.764L162.337 205.354L168.473 197.605C169.179 196.727 169.723 196.039 170.115 195.562L170.544 195.037C170.64 194.923 170.697 194.866 170.697 194.875C170.663 194.943 170.621 195.007 170.573 195.066L170.172 195.61L168.588 197.69L162.556 205.526L162.394 205.306L167.805 203.14L168.759 202.749L167.967 203.417L160.628 209.639L160.686 209.563C158.357 215.203 155.837 221.616 153.308 228.65C150.779 235.684 148.193 243.233 146.113 251.287C144.76 255.99 143.95 260.831 143.698 265.717C143.698 270.489 143.793 275.06 143.87 279.422C144.08 288.164 144.271 296.028 144.433 302.651C144.595 309.274 144.748 314.581 144.843 318.303C144.843 320.125 144.92 321.557 144.939 322.559C144.939 323.027 144.939 323.399 144.939 323.666C144.955 323.767 144.964 323.869 144.967 323.971Z" fill="#455A64"/>
<path d="M136.311 205.402C136.311 205.402 127.55 212.082 126.052 219.622C124.554 227.161 120.613 258.943 120.613 258.943C120.613 258.943 118.551 263.293 118.551 264.057C118.551 264.82 116.747 284.833 116.747 284.833L116.747 345.741V357.314L121.058 407.167L129.07 364.881L156.667 372.002C156.667 372.002 145.78 363.298 158.893 368.442C178.858 376.277 135.261 333.171 135.261 333.171L138.258 286.532L136.311 205.402Z" fill="#263238"/>
<path d="M129.822 237.191C129.853 237.274 129.872 237.361 129.879 237.449C129.879 237.65 129.955 237.898 130.003 238.203L130.432 241.123C130.795 243.652 131.301 247.317 131.893 251.85C133.057 260.917 134.584 273.467 135.395 287.4C135.777 294.377 135.901 301.029 135.825 307.079C135.748 310.105 135.7 312.977 135.519 315.669C135.433 317.014 135.386 318.312 135.281 319.562C135.176 320.813 135.071 321.996 134.966 323.132C134.794 325.422 134.498 327.464 134.288 329.268C134.173 330.175 134.069 331.005 133.964 331.788C133.859 332.57 133.725 333.248 133.63 333.887C133.42 335.118 133.257 336.092 133.133 336.75C133.076 337.056 133.028 337.304 133 337.504C132.971 337.705 132.942 337.762 132.933 337.752C132.924 337.667 132.924 337.58 132.933 337.495C132.933 337.294 132.99 337.046 133.028 336.731C133.124 336.035 133.257 335.052 133.429 333.82C133.515 333.181 133.61 332.475 133.725 331.711C133.839 330.948 133.906 330.098 134.002 329.201C134.193 327.398 134.46 325.384 134.613 323.065C134.698 321.929 134.794 320.736 134.889 319.496C134.985 318.255 135.023 316.957 135.09 315.611C135.261 312.93 135.29 310.066 135.357 307.022C135.414 300.99 135.271 294.348 134.889 287.381C134.078 273.467 132.608 260.917 131.53 251.841C130.986 247.336 130.576 243.672 130.232 241.095C130.089 239.854 129.984 238.881 129.898 238.174C129.898 237.86 129.841 237.611 129.822 237.411C129.816 237.338 129.816 237.265 129.822 237.191Z" fill="#455A64"/>
<path d="M144.967 323.971C144.98 324.066 144.98 324.163 144.967 324.258C144.967 324.477 144.891 324.754 144.843 325.107C144.71 325.88 144.538 327.016 144.299 328.352C143.813 331.215 143.106 335.252 142.228 340.253C140.434 350.331 137.953 364.188 135.214 379.506C132.475 394.823 129.888 408.661 128.047 418.73C127.092 423.721 126.357 427.768 125.823 430.612L125.193 433.837L125.012 434.668C125 434.766 124.974 434.863 124.935 434.954C124.923 434.856 124.923 434.756 124.935 434.658C124.935 434.439 125.012 434.162 125.069 433.818C125.193 433.045 125.374 431.957 125.603 430.573C126.1 427.71 126.806 423.673 127.674 418.673L134.698 379.41C137.485 364.14 140.024 350.255 141.856 340.186C142.81 335.204 143.555 331.148 144.089 328.314L144.719 325.088C144.786 324.744 144.843 324.468 144.891 324.248C144.909 324.154 144.935 324.062 144.967 323.971Z" fill="#455A64"/>
<path d="M233.561 183.89L209.511 236.504C209.511 236.504 197.047 270.594 196.102 274.831C195.157 279.069 182.741 332.914 182.741 332.914L190.968 412.632C190.968 412.632 192.017 440.375 199.958 442.732C207.898 445.089 267.87 434.973 267.87 434.973L257.992 368.426C257.992 368.426 254.223 317.396 254.223 316.69C254.223 315.983 265.045 240.494 265.045 240.494L272.203 211.357L251.875 203.111L233.561 183.89Z" fill="#263238"/>
<path d="M186.797 320.049C186.833 319.924 186.881 319.802 186.94 319.686L187.398 318.589C187.847 317.634 188.477 316.251 189.307 314.485L196.398 299.444C202.467 286.751 210.828 269.267 220.075 249.951C227.185 235.206 233.78 221.521 239.163 210.383L239.344 210.67H231.28H230.64L231.184 210.336C234.181 208.427 236.91 206.786 239.258 205.297L239.191 205.43C238.991 200.363 238.829 196.354 238.714 193.587C238.666 192.232 238.628 191.182 238.609 190.447V189.636C238.599 189.544 238.599 189.451 238.609 189.359C238.615 189.451 238.615 189.544 238.609 189.636C238.609 189.833 238.628 190.1 238.666 190.437C238.714 191.182 238.771 192.222 238.857 193.577C239 196.345 239.21 200.353 239.478 205.411V205.497L239.401 205.545C237.025 207.062 234.353 208.751 231.356 210.641L231.261 210.307H239.325H239.649L239.506 210.593C234.152 221.75 227.586 235.407 220.495 250.209C202.009 288.517 187.98 317.596 186.797 320.049Z" fill="#455A64"/>
<path d="M245.91 260.344C245.536 260.382 245.158 260.382 244.784 260.344C244.068 260.287 243.028 260.23 241.749 260.172C235.057 259.846 228.35 260.378 221.793 261.757C220.534 262.014 219.522 262.243 218.816 262.406C218.46 262.519 218.091 262.587 217.718 262.606C218.054 262.443 218.406 262.315 218.768 262.224C219.455 261.995 220.467 261.719 221.717 261.413C224.993 260.633 228.324 260.104 231.68 259.829C235.038 259.569 238.411 259.569 241.768 259.829C243.056 259.934 244.097 260.048 244.803 260.163C245.178 260.177 245.55 260.238 245.91 260.344Z" fill="#455A64"/>
<path d="M244.583 260.087C247.905 260.211 244.02 250.018 242.493 245.094C242.217 244.139 241.711 243.089 240.747 242.994C240.135 243.017 239.551 243.261 239.105 243.681C232.635 248.453 227.233 254.971 222.385 261.413C222.385 261.384 237.674 259.829 244.583 260.087Z" fill="#E0E0E0"/>
<path d="M194.584 336.683C191.596 337.871 188.358 338.294 185.165 337.915C185.165 337.771 187.293 337.743 189.889 337.39C192.485 337.037 194.546 336.55 194.584 336.683Z" fill="#455A64"/>
<path d="M256.694 368.693C256.694 368.826 249.222 370.048 239.945 371.422C230.669 372.796 223.148 373.789 223.129 373.655C223.11 373.522 230.602 372.3 239.878 370.926C249.155 369.552 256.675 368.559 256.694 368.693Z" fill="#455A64"/>
<path d="M220.868 432.005C220.811 431.915 220.767 431.819 220.734 431.719C220.639 431.499 220.524 431.222 220.381 430.869C220.066 430.096 219.627 428.961 219.073 427.605C218.52 426.25 217.814 424.437 217.088 422.395C216.363 420.352 215.456 418.033 214.607 415.428C213.758 412.822 212.765 410.007 211.83 406.924C210.895 403.842 209.921 400.549 208.919 397.066C207.01 390.09 205.102 382.359 203.451 374.161C201.799 365.963 200.587 358.099 199.633 350.923C199.213 347.325 198.784 343.918 198.507 340.711C198.23 337.504 197.963 334.517 197.782 331.788C197.6 329.058 197.486 326.577 197.381 324.41C197.276 322.244 197.219 320.364 197.199 318.837C197.18 317.31 197.152 316.155 197.142 315.315C197.142 314.934 197.142 314.628 197.142 314.361C197.134 314.256 197.134 314.151 197.142 314.046C197.153 314.151 197.153 314.256 197.142 314.361C197.142 314.59 197.142 314.895 197.142 315.315L197.295 318.827C197.343 320.354 197.419 322.225 197.562 324.391C197.705 326.558 197.801 329.039 198.039 331.759C198.278 334.479 198.478 337.485 198.822 340.663C199.165 343.841 199.557 347.277 199.996 350.865C200.95 358.023 202.2 365.877 203.813 374.066C205.426 382.254 207.354 389.956 209.234 396.97C210.188 400.454 211.143 403.766 212.097 406.829C213.051 409.892 213.948 412.756 214.817 415.351C215.685 417.947 216.506 420.276 217.222 422.328C217.938 424.38 218.577 426.145 219.131 427.558L220.362 430.869C220.486 431.222 220.581 431.509 220.667 431.728C220.747 431.81 220.815 431.904 220.868 432.005Z" fill="#455A64"/>
<path d="M267.832 434.973C267.69 435.007 267.547 435.032 267.402 435.049L266.161 435.24L261.39 435.937L243.744 438.371L217.546 441.93L209.978 442.951L206.065 443.476C204.727 443.739 203.358 443.81 202 443.686C200.593 443.48 199.258 442.929 198.114 442.084C196.971 441.238 196.053 440.123 195.443 438.838C195.152 438.182 194.929 437.497 194.775 436.796L194.26 434.744C193.916 433.36 193.554 431.976 193.306 430.564C191.146 419.98 189.696 409.265 188.963 398.488C188.181 388.563 187.637 379.62 186.997 372.128C186.358 364.637 185.661 358.586 185.089 354.416C184.802 352.335 184.535 350.722 184.382 349.644C184.316 349.109 184.258 348.689 184.211 348.393C184.202 348.25 184.202 348.107 184.211 347.964C184.211 347.964 184.211 348.107 184.296 348.384L184.526 349.625C184.707 350.722 185.003 352.325 185.318 354.396C185.938 358.567 186.701 364.608 187.369 372.109C188.038 379.611 188.629 388.543 189.431 398.459C190.199 409.212 191.662 419.904 193.811 430.468C194.079 431.881 194.441 433.255 194.766 434.629C195.045 435.993 195.428 437.333 195.911 438.638C196.488 439.849 197.354 440.9 198.432 441.699C199.51 442.498 200.768 443.02 202.095 443.219C203.409 443.334 204.733 443.263 206.027 443.009L209.94 442.484L217.508 441.482L243.715 438.037L261.38 435.746L266.152 435.154L267.412 435.011C267.679 434.973 267.832 434.973 267.832 434.973Z" fill="#455A64"/>
<path d="M188.515 203.216L189.545 215.308L200.091 219.622L212.355 207.702L204.233 203.216H198.182L192.828 201.317L188.515 203.216Z" fill="#FF725E"/>
<path d="M189.546 215.308C189.546 215.308 157.097 299.721 152.564 339.442L165.772 368.693L179.868 347.945L200.435 217.837L189.546 215.308Z" fill="#FF725E"/>
<path d="M200.063 219.984C198.49 218.906 196.815 217.985 195.062 217.236C193.248 216.643 191.382 216.228 189.488 215.995C191.438 215.811 193.404 216.075 195.237 216.766C197.069 217.458 198.72 218.558 200.063 219.984Z" fill="#263238"/>
<path d="M204.767 203.245C204.26 203.991 203.66 204.671 202.983 205.268C201.431 206.787 199.758 208.179 197.982 209.429C196.205 210.685 194.329 211.793 192.37 212.741C191.58 213.174 190.741 213.51 189.87 213.743C190.624 213.254 191.408 212.814 192.218 212.426C194.106 211.396 195.934 210.262 197.696 209.028C199.446 207.78 201.128 206.439 202.735 205.01C203.375 204.38 204.054 203.79 204.767 203.245Z" fill="#263238"/>
<path d="M199.06 218.982C199.054 219.114 199.035 219.245 199.003 219.374C198.946 219.65 198.879 220.023 198.784 220.509L197.896 224.88C197.133 228.698 195.987 234.176 194.699 240.98C192.075 254.58 188.715 273.428 185.699 294.358C184.182 304.856 182.903 314.81 181.815 323.943C181.271 328.486 180.727 332.818 179.983 336.827C179.325 340.557 178.397 344.235 177.206 347.83C175.517 353.069 172.909 357.965 169.504 362.289C168.262 363.873 166.847 365.313 165.286 366.584C165.366 366.477 165.459 366.381 165.562 366.297L166.393 365.496C167.44 364.441 168.428 363.329 169.351 362.165C172.673 357.822 175.217 352.937 176.872 347.725C178.033 344.146 178.936 340.488 179.572 336.779C180.298 332.771 180.832 328.457 181.367 323.905C182.426 314.8 183.686 304.817 185.184 294.319C188.2 273.381 191.607 254.532 194.327 240.942C195.682 234.147 196.856 228.659 197.677 224.871C198.097 222.962 198.431 221.54 198.631 220.519L198.898 219.383C198.933 219.243 198.988 219.108 199.06 218.982Z" fill="#263238"/>
<path d="M189.507 267.311C188.897 266.41 188.343 265.473 187.847 264.505C186.892 262.759 185.47 260.354 183.877 257.739C182.283 255.124 180.756 252.795 179.639 251.125C178.999 250.246 178.419 249.324 177.902 248.367C177.902 248.367 178.131 248.577 178.484 249.016C178.838 249.455 179.334 250.104 179.926 250.925C181.118 252.547 182.684 254.857 184.297 257.481C185.909 260.106 187.245 262.549 188.114 264.343C188.572 265.24 188.935 265.975 189.164 266.49C189.393 267.006 189.545 267.292 189.507 267.311Z" fill="#FAFAFA"/>
<path d="M183.447 304.149C183.211 303.798 183.009 303.424 182.846 303.033C182.445 302.212 181.939 301.172 181.347 299.931C180.078 297.307 178.332 293.69 176.328 289.729C174.323 285.768 172.434 282.209 171.069 279.641L169.447 276.597C169.23 276.231 169.05 275.844 168.912 275.442C169.178 275.774 169.415 276.128 169.618 276.502C170.048 277.189 170.649 278.21 171.374 279.47C172.825 281.999 174.753 285.53 176.767 289.5C178.78 293.47 180.479 297.135 181.662 299.778C182.254 301.115 182.712 302.202 183.018 302.956C183.204 303.337 183.348 303.737 183.447 304.149Z" fill="#FAFAFA"/>
<path d="M179.467 336.779C179.353 336.855 174.982 329.965 169.714 321.395C164.446 312.825 160.266 305.819 160.38 305.753C160.495 305.686 164.866 312.567 170.134 321.137C175.402 329.707 179.63 336.693 179.467 336.779Z" fill="#FAFAFA"/>
<path d="M171.747 359.254C171.632 359.33 167.557 353.576 162.642 346.408C157.727 339.241 153.833 333.362 153.948 333.276C154.062 333.191 158.137 338.955 163.052 346.132C167.967 353.308 171.861 359.178 171.747 359.254Z" fill="#FAFAFA"/>
<path d="M193.649 244.397C193.074 243.865 192.549 243.281 192.084 242.65C191.044 241.41 189.813 239.959 188.467 238.346L184.764 234.109C184.216 233.555 183.721 232.951 183.285 232.305C183.922 232.758 184.505 233.283 185.022 233.87C186.043 234.891 187.408 236.352 188.839 238.031C190.271 239.711 191.511 241.276 192.361 242.44C192.862 243.042 193.294 243.699 193.649 244.397Z" fill="#FAFAFA"/>
<path d="M191.177 221.597C191.044 221.654 190.672 221.063 190.042 220.509C189.412 219.956 188.782 219.65 188.82 219.555C188.858 219.459 189.65 219.555 190.366 220.175C191.082 220.796 191.301 221.559 191.177 221.597Z" fill="#FAFAFA"/>
<path d="M192.514 224.699C192.409 224.804 191.97 224.518 191.559 224.069C191.149 223.62 190.824 223.172 190.92 223.115C191.015 223.057 191.464 223.306 191.874 223.754C192.284 224.203 192.609 224.603 192.514 224.699Z" fill="#FAFAFA"/>
<path d="M197.4 228.535C196.554 227.997 195.798 227.331 195.157 226.56C194.397 225.898 193.752 225.114 193.248 224.241C194.853 225.435 196.25 226.886 197.381 228.535H197.4Z" fill="#FAFAFA"/>
<path d="M197.81 208.742C197.715 208.856 196.007 207.387 193.602 206.041C191.197 204.695 189.078 203.97 189.126 203.827C192.459 204.529 195.493 206.246 197.81 208.742Z" fill="#FAFAFA"/>
<path d="M206.838 212.712C206.705 212.788 205.712 211.309 204.214 209.725C202.716 208.141 201.303 207.053 201.351 206.929C203.745 208.219 205.66 210.247 206.81 212.712H206.838Z" fill="#FAFAFA"/>
<path d="M189.565 227.667C190.012 225.733 190.621 223.839 191.387 222.008C192 220.121 192.769 218.288 193.687 216.53C193.229 218.462 192.616 220.354 191.855 222.189C191.243 224.075 190.477 225.907 189.565 227.667Z" fill="#263238"/>
<path d="M190.805 234.987C190.846 234.117 190.977 233.253 191.196 232.41C191.502 230.826 191.989 228.659 192.609 226.283C193.229 223.907 193.85 221.769 194.346 220.242C194.575 219.395 194.895 218.576 195.3 217.799C195.183 218.66 194.991 219.509 194.728 220.337C194.27 222.055 193.773 224.155 193.124 226.407C192.475 228.659 192.008 230.769 191.569 232.486C191.393 233.342 191.137 234.179 190.805 234.987Z" fill="#263238"/>
<g opacity="0.3">
<path opacity="0.3" d="M190.528 216.205V216.32C191.13 216.482 191.483 216.654 191.483 217.274C191.484 217.895 191.354 218.51 191.101 219.078C190.462 220.843 189.832 222.609 189.192 224.384C189.03 224.832 188.935 225.472 189.374 225.672C189.813 225.873 190.185 225.462 190.452 225.109L192.666 222.141C192.323 223.84 191.97 225.548 191.616 227.247C191.511 227.753 191.445 228.383 191.865 228.698C192.046 228.804 192.257 228.848 192.466 228.822C192.675 228.797 192.87 228.702 193.019 228.555C193.31 228.249 193.525 227.879 193.649 227.476C194.165 226.178 194.68 224.89 195.186 223.601C195.506 222.675 195.949 221.796 196.503 220.986C197.06 220.171 197.912 219.603 198.879 219.402C196.465 217.236 193.745 216.635 190.528 216.205Z" fill="black"/>
</g>
<path d="M183.943 192.461C183.981 192.568 184.003 192.681 184.01 192.795L184.125 193.749C184.22 194.703 184.354 195.915 184.516 197.5C184.821 200.802 185.26 205.44 185.785 211.023L185.384 210.966L188.295 203.092V203.006L188.391 202.959L192.704 201.05H192.79H192.886L198.24 202.959H204.271L215.895 209.362L215.609 209.42L226.174 196.011L229.209 192.193L230.029 191.239C230.119 191.12 230.221 191.011 230.335 190.915C230.263 191.045 230.18 191.17 230.087 191.287C229.896 191.554 229.638 191.898 229.323 192.317L226.393 196.183C223.826 199.523 220.219 204.19 215.972 209.696L215.895 209.849L215.724 209.754L204.147 203.436H204.262H198.144L192.79 201.527H192.972L188.648 203.436L188.772 203.302C187.713 206.108 186.721 208.761 185.814 211.166L185.489 212.035L185.413 211.08C184.955 205.488 184.583 200.84 184.306 197.547C184.191 195.954 184.106 194.684 184.039 193.778C184.039 193.367 183.991 193.043 183.982 192.823C183.955 192.704 183.942 192.583 183.943 192.461Z" fill="#263238"/>
<path d="M119.82 460.254C119.295 458.145 134.689 380.489 134.689 380.489L217.136 368.693C217.136 368.693 250.596 389.068 251.646 405.913C252.696 422.757 260.474 460.225 260.474 460.225H180.689L178.17 457.028L176.547 460.025L119.82 460.254Z" fill="#263238"/>
<path d="M184.63 444.803C184.63 444.803 184.63 444.851 184.63 444.946C184.612 445.083 184.58 445.217 184.535 445.347C184.364 445.857 184.073 446.319 183.686 446.693C183.08 447.295 182.321 447.721 181.491 447.924C180.383 448.196 179.216 448.075 178.189 447.58C176.949 446.988 175.9 446.058 175.163 444.898C174.333 443.582 173.757 442.122 173.464 440.594C173.121 439 172.93 437.321 172.672 435.584C172.415 433.847 172.176 432.053 171.918 430.211C170.964 422.872 170.01 416.229 169.38 411.334C169.084 408.967 168.845 407.029 168.664 405.607C168.597 404.978 168.54 404.462 168.492 404.052C168.469 403.868 168.469 403.682 168.492 403.498C168.549 403.673 168.59 403.851 168.616 404.033L168.874 405.579C169.093 407.001 169.389 408.929 169.742 411.305C170.439 416.191 171.384 422.834 172.434 430.163C172.688 432.008 172.936 433.799 173.178 435.536C173.426 437.273 173.608 438.962 173.932 440.518C174.203 441.997 174.744 443.414 175.526 444.698C176.229 445.803 177.219 446.697 178.389 447.284C179.346 447.771 180.444 447.906 181.491 447.666C182.264 447.477 182.972 447.085 183.542 446.53C184.047 446.057 184.422 445.462 184.63 444.803Z" fill="#455A64"/>
<path d="M177.721 398.106C177.998 397.967 178.312 397.921 178.618 397.973C179.042 398.012 179.454 398.136 179.83 398.338C180.205 398.54 180.536 398.815 180.804 399.146C181.187 399.661 181.426 400.268 181.496 400.905C181.567 401.543 181.466 402.187 181.204 402.773C180.897 403.497 180.39 404.119 179.743 404.566C179.096 405.014 178.335 405.269 177.549 405.302C176.724 405.351 175.906 405.119 175.23 404.643C174.612 404.202 174.137 403.588 173.865 402.878C173.607 402.236 173.547 401.531 173.694 400.855C173.823 400.271 174.114 399.735 174.533 399.309C175.124 398.691 175.916 398.305 176.767 398.221C177.071 398.178 177.38 398.218 177.664 398.335C177.664 398.383 177.339 398.335 176.786 398.421C176.015 398.566 175.314 398.962 174.791 399.547C174.415 399.971 174.167 400.493 174.078 401.053C173.988 401.613 174.06 402.186 174.285 402.706C174.538 403.35 174.985 403.899 175.566 404.276C176.146 404.652 176.83 404.837 177.521 404.806C178.217 404.776 178.891 404.553 179.467 404.162C180.044 403.771 180.5 403.227 180.784 402.592C181.026 402.078 181.129 401.509 181.082 400.943C181.035 400.377 180.84 399.833 180.517 399.366C180.059 398.735 179.376 398.304 178.609 398.163C178.065 398.068 177.721 398.154 177.721 398.106Z" fill="#455A64"/>
<path d="M231.165 179.548H187.646L182.808 192.356L155.208 230.196L133.524 386.406L161.125 391.512C165.916 392.401 170.81 392.607 175.659 392.122L217.136 388.028L218.377 248.692L238.58 192.671L231.165 179.548Z" fill="#F5F5F5"/>
<path d="M198.097 206.986C198.097 206.986 198.097 207.148 197.982 207.454C197.868 207.759 197.763 208.236 197.591 208.828C197.228 210.049 196.713 211.815 196.045 214.077C195.377 216.339 194.527 219.145 193.611 222.399C192.695 225.653 191.607 229.337 190.519 233.45C189.431 237.564 188.181 242.04 186.969 246.897C185.757 251.755 184.478 256.928 183.151 262.387C180.594 273.343 177.979 285.415 175.516 298.156C173.054 310.897 171.126 323.113 169.494 334.24C168.721 339.804 167.958 345.091 167.376 350.064C166.794 355.036 166.211 359.607 165.753 363.873C165.295 368.139 164.923 371.928 164.589 375.326C164.255 378.723 163.997 381.586 163.797 383.915C163.596 386.243 163.434 388.104 163.32 389.374C163.262 389.975 163.215 390.452 163.186 390.786C163.157 391.12 163.119 391.273 163.119 391.273C163.111 391.111 163.111 390.948 163.119 390.786C163.119 390.443 163.177 389.975 163.205 389.364C163.301 388.095 163.434 386.253 163.596 383.905C163.759 381.558 163.978 378.628 164.303 375.259C164.627 371.89 164.923 368.063 165.391 363.806C165.858 359.55 166.345 354.94 166.956 349.978C167.567 345.015 168.273 339.718 169.036 334.145C170.64 323.008 172.615 310.801 175.02 298.041C177.425 285.282 180.088 273.228 182.655 262.253C183.991 256.794 185.232 251.593 186.472 246.764C187.713 241.935 188.944 237.421 190.089 233.326C191.235 229.232 192.313 225.539 193.248 222.294C194.184 219.049 195.043 216.262 195.758 213.991L197.4 208.771L197.839 207.415L198.097 206.986Z" fill="#263238"/>
<path d="M146.074 374.066C146.089 376.766 146.393 379.457 146.981 382.092C147.745 384.686 148.792 387.189 150.102 389.555C149.54 388.976 149.067 388.317 148.699 387.599C146.764 384.206 145.776 380.357 145.836 376.452C145.798 375.649 145.878 374.845 146.074 374.066Z" fill="#263238"/>
<path d="M148.518 390.147C147.941 390.001 147.399 389.741 146.924 389.383C144.506 387.852 142.585 385.65 141.398 383.046C141.111 382.526 140.926 381.956 140.854 381.367C142.54 384.942 145.182 387.981 148.489 390.147H148.518Z" fill="#263238"/>
<path d="M182.101 375.44C182.28 376.241 182.338 377.065 182.273 377.883C182.234 379.856 181.974 381.818 181.5 383.733C181.034 385.654 180.349 387.514 179.458 389.278C179.133 390.029 178.702 390.73 178.179 391.359C178.453 390.596 178.772 389.851 179.133 389.126C180.709 385.562 181.649 381.751 181.911 377.864C181.923 377.053 181.986 376.243 182.101 375.44Z" fill="#263238"/>
<path d="M183.943 189.34C183.943 189.34 157.364 200.582 153.537 201.317C149.71 202.052 136.359 205.402 136.359 205.402C136.359 205.402 126.071 223.821 127.025 234.357C127.98 244.893 135.166 320.488 135.166 320.488C135.166 320.488 123.437 385.804 123.198 390.595C122.96 395.386 112.824 441.081 114.781 440.804C116.737 440.527 125.546 430.755 125.546 430.755L154.74 270.203C154.74 270.203 162.375 233.355 168.101 221.397C173.827 209.439 183.905 193.883 183.905 193.883L183.943 189.34Z" fill="#263238"/>
<path d="M144.967 323.971C144.957 323.844 144.957 323.717 144.967 323.59C144.967 323.322 144.967 322.95 144.91 322.483C144.862 321.528 144.795 320.059 144.719 318.236C144.576 314.514 144.385 309.169 144.147 302.584C143.908 295.999 143.679 288.097 143.478 279.355C143.383 274.984 143.288 270.403 143.278 265.641C143.524 260.713 144.335 255.83 145.693 251.087C147.783 243.003 150.407 235.426 152.936 228.421C155.465 221.416 158.023 215.003 160.38 209.334C163.065 207.088 165.524 205.03 167.757 203.159L167.929 203.445L162.499 205.573L162.003 205.764L162.337 205.354L168.473 197.605C169.179 196.727 169.723 196.039 170.115 195.562L170.544 195.037C170.64 194.923 170.697 194.866 170.697 194.875C170.663 194.943 170.621 195.007 170.573 195.066L170.172 195.61L168.588 197.69L162.556 205.526L162.394 205.306L167.805 203.14L168.759 202.749L167.967 203.417L160.628 209.639L160.686 209.563C158.357 215.203 155.837 221.616 153.308 228.65C150.779 235.684 148.193 243.233 146.113 251.287C144.76 255.99 143.95 260.831 143.698 265.717C143.698 270.489 143.793 275.06 143.87 279.422C144.08 288.164 144.271 296.028 144.433 302.651C144.595 309.274 144.748 314.581 144.843 318.303C144.843 320.125 144.92 321.557 144.939 322.559C144.939 323.027 144.939 323.399 144.939 323.666C144.955 323.767 144.964 323.869 144.967 323.971Z" fill="#455A64"/>
<path d="M129.822 237.191C129.853 237.274 129.872 237.361 129.879 237.449C129.879 237.65 129.955 237.898 130.003 238.203L130.432 241.123C130.795 243.652 131.301 247.317 131.893 251.85C133.057 260.917 134.584 273.467 135.395 287.4C135.777 294.377 135.901 301.029 135.825 307.079C135.748 310.105 135.7 312.977 135.519 315.669C135.433 317.014 135.386 318.312 135.281 319.562C135.176 320.813 135.071 321.996 134.966 323.132C134.794 325.422 134.498 327.464 134.288 329.268C134.173 330.175 134.069 331.005 133.964 331.788C133.859 332.57 133.725 333.248 133.63 333.887C133.42 335.118 133.257 336.092 133.133 336.75C133.076 337.056 133.028 337.304 133 337.504C132.971 337.705 132.942 337.762 132.933 337.752C132.924 337.667 132.924 337.58 132.933 337.495C132.933 337.294 132.99 337.046 133.028 336.731C133.124 336.035 133.257 335.052 133.429 333.82C133.515 333.181 133.61 332.475 133.725 331.711C133.839 330.948 133.906 330.098 134.002 329.201C134.193 327.398 134.46 325.384 134.613 323.065C134.698 321.929 134.794 320.736 134.889 319.496C134.985 318.255 135.023 316.957 135.09 315.611C135.261 312.93 135.29 310.066 135.357 307.022C135.414 300.99 135.271 294.348 134.889 287.381C134.078 273.467 132.608 260.917 131.53 251.841C130.986 247.336 130.576 243.672 130.232 241.095C130.089 239.854 129.984 238.881 129.898 238.174C129.898 237.86 129.841 237.611 129.822 237.411C129.816 237.338 129.816 237.265 129.822 237.191Z" fill="#455A64"/>
<path d="M144.967 323.971C144.98 324.066 144.98 324.163 144.967 324.258C144.967 324.477 144.891 324.754 144.843 325.107C144.71 325.88 144.538 327.016 144.299 328.352C143.813 331.215 143.106 335.252 142.228 340.253C140.434 350.331 137.953 364.188 135.214 379.506C132.475 394.823 129.888 408.661 128.047 418.73C127.092 423.721 126.357 427.768 125.823 430.612L125.193 433.837L125.012 434.668C125 434.766 124.974 434.863 124.935 434.954C124.923 434.856 124.923 434.756 124.935 434.658C124.935 434.439 125.012 434.162 125.069 433.818C125.193 433.045 125.374 431.957 125.603 430.573C126.1 427.71 126.806 423.673 127.674 418.673L134.698 379.41C137.485 364.14 140.024 350.255 141.856 340.186C142.81 335.204 143.555 331.148 144.089 328.314L144.719 325.088C144.786 324.744 144.843 324.468 144.891 324.248C144.909 324.154 144.935 324.062 144.967 323.971Z" fill="#455A64"/>
<path d="M233.561 183.89L209.511 236.504C209.511 236.504 197.047 270.594 196.102 274.831C195.157 279.069 182.741 332.914 182.741 332.914L190.968 412.632C190.968 412.632 192.017 440.375 199.958 442.732C207.898 445.089 267.87 434.973 267.87 434.973L257.992 368.426C257.992 368.426 254.223 317.396 254.223 316.69C254.223 315.983 265.045 240.494 265.045 240.494L272.203 211.357L251.875 203.111L233.561 183.89Z" fill="#263238"/>
<path d="M186.797 320.049C186.833 319.924 186.881 319.802 186.94 319.686L187.398 318.589C187.847 317.634 188.477 316.251 189.307 314.485L196.398 299.444C202.467 286.751 210.828 269.267 220.075 249.951C227.185 235.206 233.78 221.521 239.163 210.383L239.344 210.67H231.28H230.64L231.184 210.336C234.181 208.427 236.91 206.786 239.258 205.297L239.191 205.43C238.991 200.363 238.829 196.354 238.714 193.587C238.666 192.232 238.628 191.182 238.609 190.447V189.636C238.599 189.544 238.599 189.451 238.609 189.359C238.615 189.451 238.615 189.544 238.609 189.636C238.609 189.833 238.628 190.1 238.666 190.437C238.714 191.182 238.771 192.222 238.857 193.577C239 196.345 239.21 200.353 239.478 205.411V205.497L239.401 205.545C237.025 207.062 234.353 208.751 231.356 210.641L231.261 210.307H239.325H239.649L239.506 210.593C234.152 221.75 227.586 235.407 220.495 250.209C202.009 288.517 187.98 317.596 186.797 320.049Z" fill="#455A64"/>
<path d="M245.91 260.344C245.536 260.382 245.158 260.382 244.784 260.344C244.068 260.287 243.028 260.23 241.749 260.172C235.057 259.846 228.35 260.378 221.793 261.757C220.534 262.014 219.522 262.243 218.816 262.406C218.46 262.519 218.091 262.587 217.718 262.606C218.054 262.443 218.406 262.315 218.768 262.224C219.455 261.995 220.467 261.719 221.717 261.413C224.993 260.633 228.324 260.104 231.68 259.829C235.038 259.569 238.411 259.569 241.768 259.829C243.056 259.934 244.097 260.048 244.803 260.163C245.178 260.177 245.55 260.238 245.91 260.344Z" fill="#455A64"/>
<path d="M244.583 260.087C247.905 260.211 244.02 250.018 242.493 245.094C242.217 244.139 241.711 243.089 240.747 242.994C240.135 243.017 239.551 243.261 239.105 243.681C232.635 248.453 227.233 254.971 222.385 261.413C222.385 261.384 237.674 259.829 244.583 260.087Z" fill="#E0E0E0"/>
<path d="M194.584 336.683C191.596 337.871 188.358 338.294 185.165 337.915C185.165 337.771 187.293 337.743 189.889 337.39C192.485 337.037 194.546 336.55 194.584 336.683Z" fill="#455A64"/>
<path d="M256.694 368.693C256.694 368.826 249.222 370.048 239.945 371.422C230.669 372.796 223.148 373.789 223.129 373.655C223.11 373.522 230.602 372.3 239.878 370.926C249.155 369.552 256.675 368.559 256.694 368.693Z" fill="#455A64"/>
<path d="M220.868 432.005C220.811 431.915 220.767 431.819 220.734 431.719C220.639 431.499 220.524 431.222 220.381 430.869C220.066 430.096 219.627 428.961 219.073 427.605C218.52 426.25 217.814 424.437 217.088 422.395C216.363 420.352 215.456 418.033 214.607 415.428C213.758 412.822 212.765 410.007 211.83 406.924C210.895 403.842 209.921 400.549 208.919 397.066C207.01 390.09 205.102 382.359 203.451 374.161C201.799 365.963 200.587 358.099 199.633 350.923C199.213 347.325 198.784 343.918 198.507 340.711C198.23 337.504 197.963 334.517 197.782 331.788C197.6 329.058 197.486 326.577 197.381 324.41C197.276 322.244 197.219 320.364 197.199 318.837C197.18 317.31 197.152 316.155 197.142 315.315C197.142 314.934 197.142 314.628 197.142 314.361C197.134 314.256 197.134 314.151 197.142 314.046C197.153 314.151 197.153 314.256 197.142 314.361C197.142 314.59 197.142 314.895 197.142 315.315L197.295 318.827C197.343 320.354 197.419 322.225 197.562 324.391C197.705 326.558 197.801 329.039 198.039 331.759C198.278 334.479 198.478 337.485 198.822 340.663C199.165 343.841 199.557 347.277 199.996 350.865C200.95 358.023 202.2 365.877 203.813 374.066C205.426 382.254 207.354 389.956 209.234 396.97C210.188 400.454 211.143 403.766 212.097 406.829C213.051 409.892 213.948 412.756 214.817 415.351C215.685 417.947 216.506 420.276 217.222 422.328C217.938 424.38 218.577 426.145 219.131 427.558L220.362 430.869C220.486 431.222 220.581 431.509 220.667 431.728C220.747 431.81 220.815 431.904 220.868 432.005Z" fill="#455A64"/>
<path d="M267.832 434.973C267.69 435.007 267.547 435.032 267.402 435.049L266.161 435.24L261.39 435.937L243.744 438.371L217.546 441.93L209.978 442.951L206.065 443.476C204.727 443.739 203.358 443.81 202 443.686C200.593 443.48 199.258 442.929 198.114 442.084C196.971 441.238 196.053 440.123 195.443 438.838C195.152 438.182 194.929 437.497 194.775 436.796L194.26 434.744C193.916 433.36 193.554 431.976 193.306 430.564C191.146 419.98 189.696 409.265 188.963 398.488C188.181 388.563 187.637 379.62 186.997 372.128C186.358 364.637 185.661 358.586 185.089 354.416C184.802 352.335 184.535 350.722 184.382 349.644C184.316 349.109 184.258 348.689 184.211 348.393C184.202 348.25 184.202 348.107 184.211 347.964C184.211 347.964 184.211 348.107 184.296 348.384L184.526 349.625C184.707 350.722 185.003 352.325 185.318 354.396C185.938 358.567 186.701 364.608 187.369 372.109C188.038 379.611 188.629 388.543 189.431 398.459C190.199 409.212 191.662 419.904 193.811 430.468C194.079 431.881 194.441 433.255 194.766 434.629C195.045 435.993 195.428 437.333 195.911 438.638C196.488 439.849 197.354 440.9 198.432 441.699C199.51 442.498 200.768 443.02 202.095 443.219C203.409 443.334 204.733 443.263 206.027 443.009L209.94 442.484L217.508 441.482L243.715 438.037L261.38 435.746L266.152 435.154L267.412 435.011C267.679 434.973 267.832 434.973 267.832 434.973Z" fill="#455A64"/>
<path d="M188.515 203.216L189.545 215.308L200.091 219.622L212.355 207.702L204.233 203.216H198.182L192.828 201.317L188.515 203.216Z" fill="#FF725E"/>
<path d="M189.546 215.308C189.546 215.308 157.097 299.721 152.564 339.442L165.772 368.693L179.868 347.945L200.435 217.837L189.546 215.308Z" fill="#FF725E"/>
<path d="M200.063 219.984C198.49 218.906 196.815 217.985 195.062 217.236C193.248 216.643 191.382 216.228 189.488 215.995C191.438 215.811 193.404 216.075 195.237 216.766C197.069 217.458 198.72 218.558 200.063 219.984Z" fill="#263238"/>
<path d="M204.767 203.245C204.26 203.991 203.66 204.671 202.983 205.268C201.431 206.787 199.758 208.179 197.982 209.429C196.205 210.685 194.329 211.793 192.37 212.741C191.58 213.174 190.741 213.51 189.87 213.743C190.624 213.254 191.408 212.814 192.218 212.426C194.106 211.396 195.934 210.262 197.696 209.028C199.446 207.78 201.128 206.439 202.735 205.01C203.375 204.38 204.054 203.79 204.767 203.245Z" fill="#263238"/>
<path d="M199.06 218.982C199.054 219.114 199.035 219.245 199.003 219.374C198.946 219.65 198.879 220.023 198.784 220.509L197.896 224.88C197.133 228.698 195.987 234.176 194.699 240.98C192.075 254.58 188.715 273.428 185.699 294.358C184.182 304.856 182.903 314.81 181.815 323.943C181.271 328.486 180.727 332.818 179.983 336.827C179.325 340.557 178.397 344.235 177.206 347.83C175.517 353.069 172.909 357.965 169.504 362.289C168.262 363.873 166.847 365.313 165.286 366.584C165.366 366.477 165.459 366.381 165.562 366.297L166.393 365.496C167.44 364.441 168.428 363.329 169.351 362.165C172.673 357.822 175.217 352.937 176.872 347.725C178.033 344.146 178.936 340.488 179.572 336.779C180.298 332.771 180.832 328.457 181.367 323.905C182.426 314.8 183.686 304.817 185.184 294.319C188.2 273.381 191.607 254.532 194.327 240.942C195.682 234.147 196.856 228.659 197.677 224.871C198.097 222.962 198.431 221.54 198.631 220.519L198.898 219.383C198.933 219.243 198.988 219.108 199.06 218.982Z" fill="#263238"/>
<path d="M189.507 267.311C188.897 266.41 188.343 265.473 187.847 264.505C186.892 262.759 185.47 260.354 183.877 257.739C182.283 255.124 180.756 252.795 179.639 251.125C178.999 250.246 178.419 249.324 177.902 248.367C177.902 248.367 178.131 248.577 178.484 249.016C178.838 249.455 179.334 250.104 179.926 250.925C181.118 252.547 182.684 254.857 184.297 257.481C185.909 260.106 187.245 262.549 188.114 264.343C188.572 265.24 188.935 265.975 189.164 266.49C189.393 267.006 189.545 267.292 189.507 267.311Z" fill="#FAFAFA"/>
<path d="M183.447 304.149C183.211 303.798 183.009 303.424 182.846 303.033C182.445 302.212 181.939 301.172 181.347 299.931C180.078 297.307 178.332 293.69 176.328 289.729C174.323 285.768 172.434 282.209 171.069 279.641L169.447 276.597C169.23 276.231 169.05 275.844 168.912 275.442C169.178 275.774 169.415 276.128 169.618 276.502C170.048 277.189 170.649 278.21 171.374 279.47C172.825 281.999 174.753 285.53 176.767 289.5C178.78 293.47 180.479 297.135 181.662 299.778C182.254 301.115 182.712 302.202 183.018 302.956C183.204 303.337 183.348 303.737 183.447 304.149Z" fill="#FAFAFA"/>
<path d="M179.467 336.779C179.353 336.855 174.982 329.965 169.714 321.395C164.446 312.825 160.266 305.819 160.38 305.753C160.495 305.686 164.866 312.567 170.134 321.137C175.402 329.707 179.63 336.693 179.467 336.779Z" fill="#FAFAFA"/>
<path d="M171.747 359.254C171.632 359.33 167.557 353.576 162.642 346.408C157.727 339.241 153.833 333.362 153.948 333.276C154.062 333.191 158.137 338.955 163.052 346.132C167.967 353.308 171.861 359.178 171.747 359.254Z" fill="#FAFAFA"/>
<path d="M193.649 244.397C193.074 243.865 192.549 243.281 192.084 242.65C191.044 241.41 189.813 239.959 188.467 238.346L184.764 234.109C184.216 233.555 183.721 232.951 183.285 232.305C183.922 232.758 184.505 233.283 185.022 233.87C186.043 234.891 187.408 236.352 188.839 238.031C190.271 239.711 191.511 241.276 192.361 242.44C192.862 243.042 193.294 243.699 193.649 244.397Z" fill="#FAFAFA"/>
<path d="M191.177 221.597C191.044 221.654 190.672 221.063 190.042 220.509C189.412 219.956 188.782 219.65 188.82 219.555C188.858 219.459 189.65 219.555 190.366 220.175C191.082 220.796 191.301 221.559 191.177 221.597Z" fill="#FAFAFA"/>
<path d="M192.514 224.699C192.409 224.804 191.97 224.518 191.559 224.069C191.149 223.62 190.824 223.172 190.92 223.115C191.015 223.057 191.464 223.306 191.874 223.754C192.284 224.203 192.609 224.603 192.514 224.699Z" fill="#FAFAFA"/>
<path d="M197.4 228.535C196.554 227.997 195.798 227.331 195.157 226.56C194.397 225.898 193.752 225.114 193.248 224.241C194.853 225.435 196.25 226.886 197.381 228.535H197.4Z" fill="#FAFAFA"/>
<path d="M197.81 208.742C197.715 208.856 196.007 207.387 193.602 206.041C191.197 204.695 189.078 203.97 189.126 203.827C192.459 204.529 195.493 206.246 197.81 208.742Z" fill="#FAFAFA"/>
<path d="M206.838 212.712C206.705 212.788 205.712 211.309 204.214 209.725C202.716 208.141 201.303 207.053 201.351 206.929C203.745 208.219 205.66 210.247 206.81 212.712H206.838Z" fill="#FAFAFA"/>
<path d="M189.565 227.667C190.012 225.733 190.621 223.839 191.387 222.008C192 220.121 192.769 218.288 193.687 216.53C193.229 218.462 192.616 220.354 191.855 222.189C191.243 224.075 190.477 225.907 189.565 227.667Z" fill="#263238"/>
<path d="M190.805 234.987C190.846 234.117 190.977 233.253 191.196 232.41C191.502 230.826 191.989 228.659 192.609 226.283C193.229 223.907 193.85 221.769 194.346 220.242C194.575 219.395 194.895 218.576 195.3 217.799C195.183 218.66 194.991 219.509 194.728 220.337C194.27 222.055 193.773 224.155 193.124 226.407C192.475 228.659 192.008 230.769 191.569 232.486C191.393 233.342 191.137 234.179 190.805 234.987Z" fill="#263238"/>
<g opacity="0.3">
<path opacity="0.3" d="M190.528 216.205V216.32C191.13 216.482 191.483 216.654 191.483 217.274C191.484 217.895 191.354 218.51 191.101 219.078C190.462 220.843 189.832 222.609 189.192 224.384C189.03 224.832 188.935 225.472 189.374 225.672C189.813 225.873 190.185 225.462 190.452 225.109L192.666 222.141C192.323 223.84 191.97 225.548 191.616 227.247C191.511 227.753 191.445 228.383 191.865 228.698C192.046 228.804 192.257 228.848 192.466 228.822C192.675 228.797 192.87 228.702 193.019 228.555C193.31 228.249 193.525 227.879 193.649 227.476C194.165 226.178 194.68 224.89 195.186 223.601C195.506 222.675 195.949 221.796 196.503 220.986C197.06 220.171 197.912 219.603 198.879 219.402C196.465 217.236 193.745 216.635 190.528 216.205Z" fill="black"/>
</g>
<path d="M183.943 192.461C183.981 192.568 184.003 192.681 184.01 192.795L184.125 193.749C184.22 194.703 184.354 195.915 184.516 197.5C184.821 200.802 185.26 205.44 185.785 211.023L185.384 210.966L188.295 203.092V203.006L188.391 202.959L192.704 201.05H192.79H192.886L198.24 202.959H204.271L215.895 209.362L215.609 209.42L226.174 196.011L229.209 192.193L230.029 191.239C230.119 191.12 230.221 191.011 230.335 190.915C230.263 191.045 230.18 191.17 230.087 191.287C229.896 191.554 229.638 191.898 229.323 192.317L226.393 196.183C223.826 199.523 220.219 204.19 215.972 209.696L215.895 209.849L215.724 209.754L204.147 203.436H204.262H198.144L192.79 201.527H192.972L188.648 203.436L188.772 203.302C187.713 206.108 186.721 208.761 185.814 211.166L185.489 212.035L185.413 211.08C184.955 205.488 184.583 200.84 184.306 197.547C184.191 195.954 184.106 194.684 184.039 193.778C184.039 193.367 183.991 193.043 183.982 192.823C183.955 192.704 183.942 192.583 183.943 192.461Z" fill="#263238"/>
<path d="M168.559 119.891C167.277 119.504 166.108 118.81 165.156 117.868C164.203 116.927 163.495 115.767 163.093 114.489C162.692 113.211 162.608 111.855 162.851 110.537C163.093 109.22 163.654 107.982 164.484 106.931C165.438 105.776 166.641 104.841 167.233 103.486C168.492 100.623 166.221 97.225 166.784 94.0947C167.309 91.2316 170.096 89.3229 172.854 88.2349C175.612 87.1469 178.58 86.6316 180.985 84.8947C183.17 83.3009 184.592 80.8577 186.654 79.1112C188.116 77.9018 189.848 77.0615 191.703 76.6613C193.559 76.261 195.483 76.3124 197.314 76.8112C201.045 77.8706 204.185 80.7814 208.041 81.2108C210.904 81.5353 213.633 80.4855 216.458 80.3042C219.656 80.1901 222.797 81.1672 225.366 83.0751C227.935 84.9829 229.778 87.7079 230.592 90.8021C231.232 93.5412 231.852 95.9271 233.627 98.1221C235.927 100.985 239.897 101.94 241.711 105.118C242.78 107.026 242.436 109.393 241.806 111.483C241.176 113.573 240.26 115.644 240.289 117.82C240.354 119.526 240.98 121.163 242.071 122.476C243.162 123.789 244.655 124.706 246.32 125.083C246.017 126.112 245.505 127.066 244.815 127.888C244.125 128.709 243.273 129.378 242.312 129.855C243.769 130.659 245.421 131.042 247.084 130.962C246.385 132.976 245.282 134.826 243.843 136.398C242.403 137.97 240.657 139.231 238.712 140.103C236.767 140.976 234.664 141.441 232.532 141.471C230.401 141.501 228.286 141.094 226.317 140.276" fill="black"/>
<path d="M230.526 133.748C230.831 133.605 242.99 129.826 242.808 142.338C242.627 154.849 230.144 152.063 230.125 151.7C230.106 151.337 230.526 133.748 230.526 133.748Z" fill="#E5AB91"/>
<path d="M234.028 146.995C234.028 146.995 234.238 147.148 234.601 147.319C235.114 147.546 235.695 147.567 236.223 147.377C237.55 146.909 238.695 144.838 238.781 142.605C238.833 141.535 238.641 140.468 238.218 139.484C238.108 139.093 237.905 138.735 237.626 138.441C237.346 138.146 236.999 137.924 236.615 137.795C236.365 137.727 236.1 137.747 235.864 137.851C235.628 137.955 235.434 138.138 235.317 138.367C235.145 138.721 235.221 138.969 235.154 138.988C235.088 139.007 234.897 138.778 235.002 138.262C235.073 137.953 235.252 137.679 235.507 137.489C235.852 137.233 236.285 137.124 236.71 137.184C237.22 137.294 237.693 137.533 238.086 137.877C238.478 138.221 238.777 138.659 238.953 139.15C239.464 140.241 239.706 141.439 239.659 142.643C239.535 145.153 238.218 147.491 236.405 147.987C236.067 148.076 235.715 148.09 235.372 148.027C235.029 147.965 234.704 147.827 234.42 147.625C234.028 147.291 233.961 147.014 234.028 146.995Z" fill="#BC8579"/>
<path d="M167.337 159.211C167.08 150.402 168.015 132.231 169.046 115.797C169.582 107.271 173.308 99.259 179.484 93.3559C185.659 87.4529 193.83 84.0913 202.372 83.9403H204.138C223.129 84.7229 233.083 101.281 231.814 120.206L230.163 182.831L197.648 202.997L186.196 194.035V179.949C186.196 179.949 167.881 177.401 167.337 159.211Z" fill="#E5AB91"/>
<path d="M186.148 179.949C186.148 179.949 197.696 180.684 209.807 172.772C209.807 172.772 204.548 186.2 186.32 184.873L186.148 179.949Z" fill="#BC8579"/>
<path d="M175.488 128.347C175.493 129.026 175.763 129.677 176.241 130.16C176.718 130.643 177.366 130.921 178.045 130.933C178.377 130.954 178.71 130.908 179.024 130.798C179.337 130.688 179.626 130.516 179.872 130.293C180.119 130.069 180.318 129.799 180.458 129.498C180.598 129.196 180.677 128.87 180.689 128.538C180.684 127.858 180.414 127.207 179.936 126.724C179.458 126.241 178.811 125.964 178.131 125.951C177.8 125.932 177.468 125.979 177.155 126.089C176.841 126.2 176.553 126.372 176.307 126.595C176.061 126.818 175.862 127.087 175.721 127.388C175.58 127.689 175.501 128.015 175.488 128.347Z" fill="#263238"/>
<path d="M203.947 128.022C203.954 128.7 204.225 129.348 204.703 129.829C205.18 130.311 205.827 130.587 206.504 130.599C206.836 130.62 207.169 130.574 207.483 130.464C207.796 130.354 208.085 130.182 208.331 129.959C208.578 129.735 208.777 129.465 208.917 129.164C209.057 128.862 209.136 128.536 209.148 128.203C209.143 127.524 208.873 126.873 208.395 126.39C207.917 125.907 207.27 125.63 206.59 125.617C206.258 125.598 205.925 125.645 205.611 125.756C205.298 125.867 205.009 126.04 204.763 126.264C204.517 126.488 204.318 126.759 204.178 127.061C204.037 127.363 203.959 127.689 203.947 128.022Z" fill="#263238"/>
<path d="M172.949 125.436C173.274 125.77 175.221 124.272 178.026 124.233C180.832 124.195 182.903 125.56 183.209 125.188C183.352 125.035 183.008 124.424 182.101 123.794C180.877 122.971 179.425 122.55 177.95 122.592C176.49 122.603 175.072 123.082 173.904 123.957C173.083 124.663 172.806 125.283 172.949 125.436Z" fill="#263238"/>
<path d="M201.141 124.3C201.485 124.615 203.336 122.993 206.132 122.773C208.929 122.554 211.085 123.794 211.362 123.422C211.496 123.26 211.124 122.678 210.179 122.096C208.9 121.353 207.425 121.02 205.951 121.141C204.498 121.255 203.118 121.826 202.009 122.773C201.208 123.527 200.969 124.157 201.141 124.3Z" fill="#263238"/>
<path d="M190.872 145.64C190.872 145.487 189.135 145.21 186.31 144.905C185.594 144.838 184.907 144.704 184.783 144.227C184.707 143.486 184.86 142.74 185.222 142.089L187.245 136.611C190.042 128.795 192.017 122.382 191.75 122.296C191.483 122.21 188.887 128.433 186.1 136.239C185.423 138.148 184.783 139.999 184.191 141.755C183.756 142.627 183.642 143.623 183.867 144.571C183.974 144.822 184.137 145.046 184.344 145.224C184.551 145.403 184.796 145.532 185.06 145.601C185.46 145.7 185.87 145.748 186.282 145.745C189.106 145.821 190.862 145.802 190.872 145.64Z" fill="#263238"/>
<path d="M199.156 147.434C198.698 147.434 198.746 150.459 196.178 152.664C193.611 154.868 190.366 154.572 190.357 155.021C190.357 155.212 191.082 155.594 192.456 155.613C194.238 155.601 195.96 154.966 197.324 153.819C198.645 152.718 199.487 151.148 199.671 149.438C199.719 148.159 199.366 147.415 199.156 147.434Z" fill="#263238"/>
<path d="M199.891 112.428C200.244 113.153 202.992 112.514 206.304 112.581C209.616 112.647 212.355 113.268 212.717 112.581C212.88 112.237 212.345 111.569 211.2 110.939C209.687 110.182 208.02 109.78 206.328 109.765C204.636 109.75 202.963 110.122 201.437 110.853C200.282 111.416 199.738 112.075 199.891 112.428Z" fill="black"/>
<path d="M173.359 117.906C173.865 118.536 175.784 117.839 178.131 117.772C180.479 117.706 182.426 118.125 182.903 117.448C183.104 117.123 182.779 116.494 181.949 115.902C180.787 115.191 179.433 114.858 178.074 114.947C176.711 114.992 175.396 115.462 174.314 116.293C173.398 116.942 173.14 117.601 173.359 117.906Z" fill="black"/>
<path d="M188.973 82.4801C195.329 79.7125 201.904 80.8195 208.785 81.5258C214.084 82.0009 219.175 83.8172 223.578 86.8034C230.688 91.6706 234.41 99.6968 235.088 108.286C235.759 116.55 235.15 124.868 233.284 132.947L232.597 132.813C233.093 134.903 233.551 137.108 232.921 139.15C232.291 141.192 229.982 142.862 227.997 142.08C225.668 141.126 225.477 137.995 225.592 135.495C225.918 127.05 225.647 118.592 224.78 110.185C224.198 103.906 220.333 96.3279 215.313 93.5125C204.033 87.2615 195.701 93.5125 191.903 95.049C185.661 90.0768 179 93.2835 175.45 97.9121C176.566 91.1362 182.617 85.2478 188.973 82.4801Z" fill="black"/>
<path d="M238.953 102.541C238.953 102.932 238.237 103.409 236.739 103.638C234.628 103.86 232.495 103.619 230.488 102.932C227.615 101.967 224.889 100.611 222.385 98.9046C219.617 97.1104 216.85 95.0204 213.91 93.3502C211.357 91.7748 208.465 90.8324 205.474 90.6017C203.009 90.5078 200.553 90.927 198.259 91.8328C194.203 93.4075 192.132 95.6503 191.406 95.1254C191.235 95.0108 191.187 94.7436 191.263 94.3332C191.372 93.7597 191.582 93.2102 191.884 92.7108C192.966 90.8618 194.475 89.2979 196.283 88.149C198.992 86.3395 202.143 85.3034 205.397 85.1523C207.361 85.0665 209.326 85.2919 211.219 85.8203C213.187 86.3761 215.079 87.1743 216.85 88.1967C219.919 90.0617 222.841 92.1579 225.592 94.4668C227.667 96.1658 229.865 97.7097 232.167 99.086C233.709 99.9709 235.321 100.727 236.987 101.348C238.17 101.806 238.934 102.111 238.953 102.541Z" fill="#303030"/>
<path d="M239.401 112.705C238.654 113.028 237.849 113.2 237.034 113.21C235.067 113.357 233.09 113.12 231.213 112.514C229.337 111.903 227.599 110.931 226.097 109.651C225.447 109.162 224.896 108.553 224.475 107.857C225.139 108.31 225.776 108.8 226.384 109.326C229.452 111.628 233.199 112.844 237.034 112.781C238.475 112.771 239.382 112.609 239.401 112.705Z" fill="#303030"/>
<path d="M244.889 125.197C244.561 125.176 244.239 125.102 243.934 124.978C243.085 124.722 242.25 124.419 241.434 124.071C238.741 122.947 236.181 121.529 233.799 119.843C231.411 118.15 229.222 116.194 227.271 114.012C226.674 113.36 226.113 112.675 225.592 111.96C225.374 111.716 225.197 111.439 225.067 111.14C225.143 111.082 226.021 112.142 227.577 113.726C229.592 115.796 231.79 117.68 234.143 119.357C236.507 121.02 239.014 122.469 241.634 123.689C242.744 124.137 243.83 124.64 244.889 125.197Z" fill="#303030"/>
<path d="M201.418 79.9701C201.418 80.056 200.368 80.4282 198.717 81.2012C196.536 82.1467 194.583 83.5494 192.991 85.3145C191.462 87.1122 190.608 89.3871 190.576 91.7469C190.639 92.7149 190.799 93.674 191.053 94.61C191.053 94.61 190.853 94.3905 190.643 93.9038C190.361 93.2139 190.197 92.4816 190.156 91.7374C190.061 89.2448 190.91 86.8079 192.533 84.9137C194.167 83.0849 196.215 81.6744 198.507 80.8004C199.427 80.3706 200.409 80.0903 201.418 79.9701Z" fill="#303030"/>
<path d="M194.67 76C194.728 76.0954 193.716 76.6776 192.437 78.0137C190.763 79.7371 189.599 81.8916 189.077 84.2372C188.555 86.5827 188.694 89.0272 189.479 91.2984C190.07 93.0449 190.738 94.0088 190.643 94.066C190.548 94.1233 190.414 93.8656 190.118 93.4266C189.707 92.8023 189.362 92.1371 189.087 91.4416C188.162 89.1108 187.959 86.5554 188.505 84.1078C189.051 81.6601 190.322 79.4336 192.151 77.7179C192.696 77.1973 193.298 76.7396 193.945 76.3531C194.163 76.1924 194.409 76.0727 194.67 76Z" fill="#303030"/>
<path d="M232.635 135.543C232.635 135.695 230.573 135.543 228.502 134.178C226.431 132.813 225.448 131 225.639 130.943C225.83 130.885 226.909 132.422 228.875 133.682C230.841 134.941 232.673 135.409 232.635 135.543Z" fill="#303030"/>
<path d="M233.379 137.928C233.379 138.072 231.137 138.224 228.741 136.974C226.346 135.724 225.172 133.758 225.305 133.701C225.439 133.643 226.746 135.275 229.018 136.449C231.289 137.623 233.398 137.747 233.379 137.928Z" fill="#303030"/>
<path d="M174.028 100.737C173.437 100.694 172.867 100.496 172.377 100.164C171.142 99.4389 170.116 98.4066 169.399 97.1677C168.676 95.9306 168.291 94.5253 168.282 93.0926C168.231 92.5051 168.339 91.9147 168.597 91.3843C168.678 91.9468 168.713 92.5149 168.702 93.083C168.829 94.4275 169.242 95.7292 169.914 96.9005C170.591 98.0588 171.509 99.058 172.606 99.8304C173.455 100.393 174.066 100.642 174.028 100.737Z" fill="#303030"/>
<path d="M175.889 97.1105C175.774 97.2154 174.285 95.7171 173.025 93.4743C171.766 91.2316 171.203 89.1988 171.355 89.1606C171.508 89.1225 172.31 91.0026 173.541 93.188C174.772 95.3735 176.022 96.9959 175.889 97.1105Z" fill="#303030"/>
<path d="M200.626 103.276C200.626 103.352 199.748 103.552 198.383 104.087C197.018 104.621 195.214 105.547 193.124 106.444C191.349 107.272 189.423 107.727 187.465 107.78C186.873 107.782 186.282 107.709 185.709 107.561C185.299 107.456 185.089 107.36 185.098 107.332C185.108 107.303 186.005 107.503 187.455 107.427C189.352 107.274 191.207 106.786 192.933 105.986C194.985 105.098 196.837 104.201 198.268 103.762C199.018 103.459 199.817 103.294 200.626 103.276Z" fill="#BC8579"/>
<path d="M196.904 102.856C195.218 103.892 193.325 104.544 191.359 104.764C189.419 105.14 187.418 105.071 185.509 104.564C187.421 104.568 189.332 104.472 191.235 104.278C193.148 103.902 195.04 103.427 196.904 102.856Z" fill="#BC8579"/>
<path d="M202.668 148.14C202.544 148.197 202.114 147.128 200.931 146.661C200.188 146.456 199.41 146.414 198.65 146.537C198.65 146.48 198.831 146.279 199.28 146.126C199.88 145.936 200.527 145.959 201.112 146.192C201.697 146.425 202.183 146.854 202.487 147.405C202.716 147.816 202.725 148.121 202.668 148.14Z" fill="#BC8579"/>
<path d="M205.035 147.567C204.901 147.567 204.624 146.422 203.431 145.659C202.699 145.259 201.888 145.025 201.055 144.972C201.055 144.914 201.313 144.752 201.819 144.714C202.494 144.686 203.161 144.869 203.727 145.239C204.289 145.598 204.723 146.126 204.968 146.747C205.13 147.243 205.092 147.567 205.035 147.567Z" fill="#BC8579"/>
<path d="M209.11 193.806C209.11 193.806 208.89 193.806 208.585 193.606C208.16 193.291 207.846 192.85 207.688 192.346C207.464 191.635 207.317 190.903 207.249 190.161C207.228 189.744 207.117 189.336 206.922 188.967C206.728 188.598 206.455 188.276 206.123 188.023C205.28 187.697 204.458 187.321 203.66 186.897C203.033 186.417 202.578 185.748 202.363 184.988C202.236 184.656 202.181 184.301 202.199 183.946C202.217 183.591 202.308 183.244 202.468 182.927C202.436 183.571 202.513 184.216 202.697 184.835C202.939 185.488 203.367 186.055 203.928 186.467C204.538 186.944 205.483 187.002 206.39 187.546C206.818 187.828 207.151 188.234 207.344 188.71C207.515 189.135 207.627 189.581 207.678 190.037C207.725 190.76 207.833 191.479 208.003 192.184C208.169 192.838 208.561 193.413 209.11 193.806Z" fill="#BC8579"/>
<path d="M213.338 192.461C212.622 192.299 211.989 191.886 211.553 191.296C211.031 190.692 210.667 189.967 210.494 189.187C210.392 188.724 210.363 188.247 210.408 187.775C210.456 187.288 210.57 186.82 210.58 186.353C210.573 185.921 210.461 185.498 210.255 185.119C210.049 184.74 209.754 184.417 209.396 184.177C209.081 183.881 208.766 183.614 208.499 183.308C208.254 183.015 208.072 182.673 207.965 182.306C207.865 182.046 207.829 181.766 207.859 181.489C207.889 181.212 207.984 180.946 208.136 180.712C208.404 180.407 208.652 180.397 208.652 180.417C208.652 180.436 208.47 180.541 208.299 180.817C208.202 181.035 208.151 181.271 208.151 181.509C208.151 181.748 208.202 181.983 208.299 182.201C208.416 182.508 208.591 182.79 208.814 183.031C209.062 183.289 209.377 183.547 209.702 183.833C210.068 184.125 210.39 184.469 210.656 184.854C210.96 185.299 211.105 185.834 211.066 186.372C211.066 186.897 210.933 187.326 210.885 187.822C210.838 188.246 210.854 188.673 210.933 189.092C211.069 189.812 211.369 190.491 211.811 191.077C212.262 191.598 212.775 192.062 213.338 192.461Z" fill="#BC8579"/>
<path d="M19.2972 264.648C19.034 264.777 18.7491 264.854 18.4573 264.877C17.6834 265.028 16.8979 265.111 16.1096 265.126C14.9372 265.155 13.7646 265.075 12.6071 264.887C11.1909 264.639 9.80332 264.249 8.46518 263.723C7.12476 263.181 5.8452 262.5 4.64774 261.69C3.68831 261.035 2.79066 260.294 1.96598 259.476C1.40895 258.92 0.901243 258.316 0.448551 257.672C0.257814 257.451 0.106124 257.199 0 256.928C0.0763488 256.861 0.801661 257.882 2.24275 259.189C3.09767 259.953 4.01374 260.646 4.98176 261.26C6.15655 262.012 7.39953 262.651 8.69422 263.169C9.99718 263.685 11.3455 264.078 12.7216 264.343C13.8458 264.552 14.9854 264.667 16.1287 264.687C18.047 264.763 19.2972 264.553 19.2972 264.648Z" fill="white"/>
<path d="M255.978 286.522C255.978 286.522 254.299 305.877 254.919 311.068C255.539 316.26 260.645 345.483 266.114 349.567C271.582 353.652 277.757 359.321 285.783 358.538C293.809 357.756 297.732 356.496 298.991 352.564C300.251 348.632 306.388 333.372 304.975 326.605C303.563 319.839 298.362 309.303 298.362 309.303C298.362 309.303 294.277 277.685 292.225 275.948L290.183 274.221C290.183 274.221 293.647 261.814 293.332 257.997C293.017 254.179 288.77 221.473 281.937 216.568C278.711 214.254 275.177 212.4 271.439 211.061L264.205 241.009L255.978 286.522Z" fill="#263238"/>
<path d="M284.166 320.106C284.179 319.629 284.244 319.156 284.359 318.693C284.54 317.792 284.831 316.496 285.31 314.926C285.88 313.087 286.579 311.291 287.403 309.551C288.489 307.487 289.365 305.319 290.019 303.08C290.477 300.801 290.545 298.461 290.221 296.159L289.52 290.461L289.083 286.611C289.015 286.129 288.991 285.643 289.013 285.158C289.157 285.612 289.256 286.08 289.307 286.555L289.9 290.388C290.128 292.006 290.438 293.929 290.702 296.082C291.059 298.435 291.003 300.832 290.537 303.165C289.868 305.437 288.964 307.632 287.838 309.716C287.005 311.43 286.282 313.196 285.673 315.002C285.14 316.543 284.803 317.818 284.568 318.704C284.472 319.182 284.338 319.65 284.166 320.106Z" fill="#455A64"/>
<path d="M285.564 313.493C285.417 313.835 285.224 314.156 284.991 314.447C284.415 315.283 283.777 316.074 283.082 316.814C280.81 319.34 277.847 321.145 274.56 322.005C272.903 322.394 271.184 322.436 269.511 322.129C267.838 321.822 266.246 321.172 264.835 320.221C263.988 319.639 263.252 318.912 262.659 318.073C262.427 317.786 262.24 317.464 262.105 317.119C262.923 318.224 263.912 319.191 265.035 319.982C266.422 320.854 267.967 321.443 269.582 321.715C271.197 321.987 272.85 321.937 274.445 321.566C277.644 320.726 280.546 319.011 282.825 316.613C284.609 314.762 285.564 313.435 285.564 313.493Z" fill="#455A64"/>
<path d="M286.518 273.619C285.457 273.5 284.402 273.325 283.359 273.094C280.834 272.672 278.283 272.424 275.724 272.35C273.155 272.3 270.585 272.424 268.032 272.722C266.076 272.961 264.873 273.18 264.854 273.104C265.115 272.974 265.395 272.887 265.684 272.846C266.219 272.703 267.011 272.541 267.984 272.379C270.55 271.971 273.146 271.795 275.743 271.854C278.336 271.918 280.917 272.218 283.455 272.751C284.409 272.961 285.211 273.161 285.735 273.324C286.008 273.387 286.271 273.486 286.518 273.619Z" fill="#455A64"/>
<path d="M282.481 263.99C281.492 264.326 280.485 264.61 279.465 264.839C274.604 266.154 269.929 268.078 265.551 270.565C264.664 271.122 263.746 271.629 262.802 272.083C262.802 272.083 263.022 271.863 263.461 271.539C263.9 271.214 264.549 270.775 265.369 270.26C269.695 267.599 274.428 265.665 279.379 264.534C280.334 264.324 281.097 264.181 281.641 264.104C281.915 264.03 282.197 263.991 282.481 263.99Z" fill="#455A64"/>
<path d="M275.486 221.149C275.447 221.321 275.386 221.488 275.304 221.645L274.684 223.048C274.121 224.25 273.357 226.016 272.46 228.211C271.563 230.406 270.552 233.05 269.597 236.018C268.643 238.986 267.641 242.307 266.734 245.819C265.827 249.331 265.245 252.728 264.74 255.821C264.234 258.913 263.928 261.728 263.728 264.085C263.527 266.443 263.394 268.37 263.337 269.697L263.251 271.224C263.25 271.404 263.227 271.584 263.184 271.758C263.162 271.581 263.162 271.401 263.184 271.224V269.687C263.184 268.361 263.251 266.433 263.422 264.057C263.594 261.68 263.881 258.865 264.377 255.754C264.873 252.643 265.493 249.235 266.343 245.704C267.192 242.173 268.252 238.852 269.206 235.874C270.16 232.897 271.258 230.253 272.212 228.077C273.167 225.901 273.968 224.145 274.589 222.962L275.285 221.607C275.336 221.448 275.403 221.294 275.486 221.149Z" fill="#455A64"/>
</svg>
