<svg width="672" height="672" viewBox="0 0 672 672" fill="none" xmlns="http://www.w3.org/2000/svg">
<path d="M672 513.946H0V514.282H672V513.946Z" fill="#EBEBEB"/>
<path d="M604.666 535.571H560.152V535.907H604.666V535.571Z" fill="#EBEBEB"/>
<path d="M445.16 539.226H433.48V539.562H445.16V539.226Z" fill="#EBEBEB"/>
<path d="M558.809 523.098H533.017V523.434H558.809V523.098Z" fill="#EBEBEB"/>
<path d="M128.554 525.356H70.5062V525.692H128.554V525.356Z" fill="#EBEBEB"/>
<path d="M149.036 525.356H140.529V525.692H149.036V525.356Z" fill="#EBEBEB"/>
<path d="M302.602 531.028H176.696V531.364H302.602V531.028Z" fill="#EBEBEB"/>
<path d="M318.528 454.003H59.015C56.982 454 55.0335 453.19 53.5972 451.751C52.1609 450.312 51.3542 448.362 51.3542 446.329V81.5271C51.3719 79.5057 52.1864 77.573 53.6208 76.1487C55.0552 74.7244 56.9936 73.9235 59.015 73.92H318.528C320.563 73.92 322.515 74.7286 323.955 76.1678C325.394 77.607 326.202 79.5589 326.202 81.5943V446.329C326.202 448.364 325.394 450.316 323.955 451.756C322.515 453.195 320.563 454.003 318.528 454.003ZM59.015 74.1888C57.0712 74.1924 55.2081 74.9671 53.8348 76.3429C52.4615 77.7187 51.6902 79.5832 51.6902 81.5271V446.329C51.6902 448.273 52.4615 450.137 53.8348 451.513C55.2081 452.889 57.0712 453.664 59.015 453.667H318.528C320.473 453.664 322.338 452.889 323.713 451.514C325.088 450.139 325.863 448.274 325.866 446.329V81.5271C325.863 79.582 325.088 77.7175 323.713 76.3421C322.338 74.9667 320.473 74.1924 318.528 74.1888H59.015Z" fill="#EBEBEB"/>
<path d="M609.249 454.003H349.722C347.688 454 345.738 453.19 344.3 451.752C342.861 450.313 342.052 448.363 342.048 446.329V81.5271C342.069 79.5045 342.887 77.5718 344.323 76.1478C345.76 74.7239 347.7 73.9235 349.722 73.92H609.249C611.268 73.927 613.203 74.7295 614.634 76.1534C616.066 77.5773 616.878 79.5081 616.896 81.5271V446.329C616.896 448.36 616.091 450.308 614.658 451.746C613.224 453.184 611.279 453.996 609.249 454.003ZM349.722 74.1888C347.777 74.1924 345.913 74.9667 344.537 76.3421C343.162 77.7175 342.388 79.582 342.384 81.5271V446.329C342.388 448.274 343.162 450.139 344.537 451.514C345.913 452.889 347.777 453.664 349.722 453.667H609.249C611.194 453.664 613.058 452.889 614.434 451.514C615.809 450.139 616.583 448.274 616.587 446.329V81.5271C616.583 79.582 615.809 77.7175 614.434 76.3421C613.058 74.9667 611.194 74.1924 609.249 74.1888H349.722Z" fill="#EBEBEB"/>
<path d="M258.747 126.336C258.747 124.614 259.431 122.963 260.648 121.746C261.866 120.528 263.517 119.844 265.238 119.844C265.868 119.842 266.493 119.937 267.093 120.127C266.996 119.464 266.947 118.794 266.945 118.124C266.945 114.478 268.394 110.981 270.972 108.402C273.551 105.824 277.048 104.375 280.694 104.375C281.547 104.38 282.397 104.461 283.235 104.617C284.589 102.388 286.631 100.66 289.054 99.6939C291.477 98.7279 294.148 98.5765 296.664 99.2625C299.18 99.9485 301.405 101.435 303.002 103.497C304.6 105.558 305.483 108.084 305.518 110.692H305.706C308.643 110.692 311.46 111.859 313.537 113.936C315.614 116.012 316.781 118.829 316.781 121.766C316.781 124.704 315.614 127.52 313.537 129.597C311.46 131.674 308.643 132.841 305.706 132.841H265.05C263.36 132.789 261.757 132.08 260.58 130.866C259.404 129.652 258.746 128.027 258.747 126.336Z" fill="#F5F5F5"/>
<path d="M354.157 175.674C354.157 175.248 354.242 174.826 354.405 174.432C354.569 174.038 354.809 173.68 355.111 173.379C355.413 173.078 355.772 172.84 356.166 172.678C356.561 172.516 356.983 172.433 357.41 172.435C357.724 172.438 358.036 172.484 358.337 172.57C358.294 172.24 358.272 171.908 358.27 171.575C358.27 169.754 358.994 168.007 360.282 166.719C361.57 165.431 363.316 164.707 365.138 164.707C365.561 164.709 365.984 164.744 366.401 164.815C367.078 163.7 368.1 162.836 369.311 162.353C370.522 161.87 371.858 161.795 373.116 162.138C374.374 162.481 375.487 163.224 376.285 164.255C377.084 165.285 377.525 166.548 377.543 167.852H377.664C378.391 167.852 379.111 167.995 379.783 168.274C380.455 168.552 381.065 168.96 381.579 169.474C382.094 169.988 382.502 170.599 382.78 171.27C383.058 171.942 383.201 172.662 383.201 173.389C383.201 174.117 383.058 174.837 382.78 175.509C382.502 176.18 382.094 176.791 381.579 177.305C381.065 177.819 380.455 178.227 379.783 178.505C379.111 178.784 378.391 178.927 377.664 178.927H357.316C356.47 178.902 355.666 178.549 355.077 177.941C354.487 177.334 354.157 176.521 354.157 175.674Z" fill="#F5F5F5"/>
<path d="M533.568 268.935C533.568 268.072 533.911 267.245 534.521 266.635C535.13 266.025 535.958 265.682 536.82 265.682C537.134 265.685 537.446 265.73 537.748 265.816C537.727 265.485 537.727 265.153 537.748 264.822C537.748 263.92 537.925 263.027 538.27 262.194C538.616 261.36 539.122 260.603 539.759 259.966C540.397 259.328 541.154 258.822 541.987 258.477C542.821 258.132 543.714 257.954 544.616 257.954C545.04 257.953 545.463 257.994 545.879 258.075C546.556 256.96 547.577 256.096 548.789 255.613C550 255.131 551.336 255.055 552.594 255.398C553.852 255.741 554.964 256.484 555.763 257.515C556.561 258.546 557.003 259.808 557.021 261.112H557.128C558.597 261.112 560.005 261.696 561.044 262.734C562.082 263.773 562.665 265.181 562.665 266.65C562.665 268.118 562.082 269.527 561.044 270.565C560.005 271.604 558.597 272.187 557.128 272.187H536.699C535.858 272.156 535.061 271.799 534.477 271.193C533.893 270.586 533.567 269.777 533.568 268.935Z" fill="#F5F5F5"/>
<path d="M95.1418 270.238C95.1418 269.812 95.2261 269.389 95.3897 268.995C95.5533 268.602 95.7931 268.244 96.0953 267.943C96.3975 267.642 96.7561 267.404 97.1507 267.242C97.5452 267.08 97.9678 266.997 98.3943 266.999C98.7081 267.002 99.02 267.047 99.3217 267.133C99.2721 266.804 99.2497 266.472 99.2545 266.139C99.2545 265.232 99.4339 264.335 99.7824 263.498C100.131 262.661 100.642 261.902 101.285 261.263C101.928 260.625 102.692 260.12 103.531 259.778C104.371 259.436 105.27 259.264 106.176 259.271C106.599 259.272 107.022 259.308 107.439 259.379C108.116 258.264 109.138 257.4 110.349 256.917C111.56 256.434 112.896 256.358 114.154 256.701C115.412 257.044 116.525 257.787 117.323 258.818C118.122 259.849 118.564 261.112 118.581 262.416H118.689C120.157 262.416 121.566 262.999 122.604 264.038C123.643 265.076 124.226 266.485 124.226 267.953C124.226 269.422 123.643 270.83 122.604 271.869C121.566 272.907 120.157 273.491 118.689 273.491H98.3002C97.4552 273.463 96.6538 273.108 96.0647 272.502C95.4757 271.895 95.1449 271.084 95.1418 270.238Z" fill="#F5F5F5"/>
<path d="M436.894 126.672C436.894 126.113 437.004 125.559 437.218 125.042C437.432 124.525 437.746 124.055 438.142 123.659C438.537 123.264 439.007 122.95 439.524 122.736C440.041 122.522 440.595 122.412 441.154 122.412C441.569 122.413 441.982 122.476 442.377 122.6C442.311 122.155 442.279 121.705 442.283 121.256C442.283 118.867 443.232 116.577 444.921 114.888C446.61 113.2 448.9 112.251 451.288 112.251C451.847 112.252 452.405 112.302 452.955 112.399C453.844 110.933 455.187 109.797 456.781 109.164C458.374 108.531 460.131 108.436 461.784 108.892C463.436 109.348 464.895 110.331 465.939 111.692C466.982 113.052 467.553 114.716 467.564 116.431H467.712C468.692 116.389 469.671 116.545 470.589 116.891C471.507 117.237 472.346 117.766 473.054 118.444C473.763 119.123 474.326 119.938 474.712 120.841C475.097 121.743 475.295 122.714 475.295 123.695C475.295 124.676 475.097 125.647 474.712 126.55C474.326 127.452 473.763 128.267 473.054 128.946C472.346 129.625 471.507 130.153 470.589 130.499C469.671 130.845 468.692 131.002 467.712 130.959H441.033C439.919 130.931 438.86 130.466 438.086 129.664C437.311 128.862 436.883 127.787 436.894 126.672Z" fill="#F5F5F5"/>
<path d="M118.783 228.776C118.57 227.949 118.444 227.102 118.406 226.249C118.097 221.021 113.098 221.854 108.851 221.142C105.531 220.577 114.321 212.191 107.627 209.489C106.322 209.127 105.18 208.33 104.388 207.231C104.053 206.409 104.016 205.495 104.283 204.648C104.551 203.801 105.106 203.075 105.853 202.594C107.374 201.648 109.144 201.179 110.934 201.25C112.022 199.906 111.135 197.931 110.074 196.573C109.012 195.216 107.735 193.67 108.125 192.004C108.73 189.477 112.264 189.383 114.845 189.867C115.786 188.348 115.759 186.44 116.189 184.706C116.619 182.972 118.03 181.158 119.804 181.373C121.578 181.588 122.492 183.469 124.159 183.859C126.067 184.303 127.72 182.623 129.212 181.346C130.704 180.069 133.325 179.289 134.36 180.956C134.978 181.964 134.615 183.348 135.247 184.329C136.362 186.036 138.996 184.988 140.623 183.778C142.249 182.569 144.87 181.467 145.999 183.147C146.286 183.698 146.499 184.286 146.63 184.894C147.41 187.138 149.829 188.254 151.711 189.679C153.592 191.103 155.084 193.966 153.485 195.713C152.705 196.587 151.321 196.936 150.931 198.025C150.447 199.369 151.845 200.632 152.961 201.586C154.815 203.159 155.138 207.863 152.692 209.153C151.67 209.691 150.165 209.866 149.91 210.994C149.654 212.123 150.716 212.795 151.402 213.575C151.831 214.131 152.134 214.773 152.292 215.457C152.45 216.141 152.459 216.851 152.317 217.539C152.176 218.227 151.887 218.876 151.472 219.442C151.056 220.008 150.523 220.478 149.91 220.819C149.318 221.101 148.566 221.33 148.378 221.935C148.298 222.388 148.349 222.854 148.525 223.279C148.777 224.151 148.855 225.064 148.754 225.967C148.761 226.27 148.65 226.564 148.445 226.787C148.218 226.948 147.943 227.029 147.665 227.015C144.131 227.163 142.424 225.913 140.273 228.991C140.085 229.3 139.833 229.565 139.534 229.77C139.234 229.924 138.903 230.007 138.566 230.012C136.134 230.214 134.534 228.668 132.33 228.413C129.252 228.023 128.594 229.609 125.879 230.886C121.659 232.915 119.616 231.679 118.783 228.776Z" fill="#F5F5F5"/>
<path d="M159.466 224.448C159.253 223.621 159.127 222.774 159.089 221.921C158.78 216.693 153.713 217.526 149.534 216.814C146.214 216.25 155.004 207.863 148.31 205.162C147.005 204.799 145.863 204.003 145.071 202.904C144.736 202.081 144.699 201.168 144.966 200.321C145.234 199.474 145.789 198.747 146.536 198.267C148.065 197.345 149.834 196.9 151.617 196.99C152.705 195.646 151.818 193.657 150.77 192.313C149.722 190.969 148.418 189.41 148.808 187.73C149.413 185.217 152.947 185.123 155.528 185.606C156.469 184.088 156.442 182.179 156.872 180.446C157.302 178.712 158.713 176.897 160.487 177.112C162.261 177.327 163.175 179.209 164.842 179.599C166.75 180.042 168.403 178.349 169.895 177.086C171.387 175.822 174.021 175.029 175.043 176.696C175.661 177.704 175.298 179.088 175.93 180.069C177.045 181.776 179.693 180.714 181.306 179.518C182.918 178.322 185.553 177.206 186.682 178.886C186.969 179.438 187.182 180.026 187.313 180.634C188.093 182.878 190.512 183.98 192.394 185.418C194.275 186.856 195.767 189.706 194.168 191.453C193.388 192.313 192.004 192.676 191.614 193.765C191.13 195.109 192.528 196.372 193.644 197.326C195.498 198.899 195.834 203.603 193.388 204.893C192.353 205.43 190.848 205.605 190.593 206.734C190.337 207.863 191.399 208.535 192.085 209.315C192.513 209.869 192.817 210.51 192.975 211.194C193.133 211.877 193.141 212.586 193 213.273C192.858 213.959 192.57 214.607 192.154 215.172C191.739 215.737 191.206 216.206 190.593 216.545C190.001 216.828 189.249 217.07 189.074 217.674C188.983 218.126 189.03 218.594 189.208 219.018C189.45 219.87 189.532 220.758 189.45 221.639C189.446 221.942 189.331 222.234 189.128 222.459C188.902 222.622 188.625 222.698 188.348 222.674C184.813 222.835 183.107 221.585 180.956 224.663C180.771 224.975 180.519 225.241 180.217 225.443C179.918 225.598 179.586 225.681 179.249 225.685C176.817 225.886 175.217 224.341 173.013 224.085C169.935 223.695 169.277 225.281 166.562 226.558C162.342 228.48 160.272 227.284 159.466 224.448Z" fill="#F5F5F5"/>
<path d="M163.39 198.468C163.178 197.641 163.052 196.795 163.014 195.942C162.705 190.714 157.638 191.547 153.445 190.835C150.125 190.283 158.928 181.883 152.222 179.182C150.918 178.824 149.779 178.026 148.996 176.924C148.658 176.102 148.619 175.187 148.887 174.34C149.155 173.492 149.712 172.766 150.461 172.287C151.984 171.346 153.752 170.879 155.541 170.943C156.63 169.599 155.743 167.624 154.681 166.266C153.619 164.909 152.329 163.363 152.732 161.697C153.337 159.17 156.872 159.009 159.452 159.573C160.393 158.041 160.38 156.132 160.796 154.399C161.213 152.665 162.638 150.851 164.412 151.066C166.186 151.281 167.1 153.162 168.753 153.552C170.661 153.995 172.314 152.315 173.82 151.039C175.325 149.762 177.932 148.982 178.967 150.649C179.585 151.657 179.209 153.041 179.854 154.036C180.97 155.729 183.604 154.681 185.23 153.471C186.856 152.262 189.477 151.16 190.606 152.84C190.892 153.392 191.104 153.979 191.238 154.587C192.017 156.831 194.437 157.947 196.318 159.371C198.2 160.796 199.692 163.659 198.092 165.406C197.313 166.28 195.928 166.629 195.539 167.731C195.041 169.075 196.453 170.339 197.568 171.279C199.409 172.852 199.745 177.556 197.299 178.846C196.278 179.384 194.773 179.558 194.517 180.687C194.262 181.816 195.324 182.488 196.009 183.268C196.438 183.824 196.742 184.466 196.9 185.15C197.058 185.834 197.066 186.544 196.925 187.232C196.783 187.92 196.495 188.569 196.079 189.135C195.664 189.701 195.131 190.171 194.517 190.512C193.926 190.794 193.173 191.023 192.985 191.641C192.897 192.094 192.948 192.562 193.133 192.985C193.363 193.838 193.44 194.725 193.361 195.606C193.367 195.757 193.341 195.908 193.286 196.049C193.23 196.19 193.146 196.318 193.039 196.426C192.818 196.588 192.547 196.669 192.273 196.654C188.738 196.802 187.031 195.552 184.881 198.63C184.692 198.939 184.44 199.204 184.142 199.409C183.838 199.565 183.502 199.648 183.16 199.651C180.741 199.853 179.128 198.307 176.938 198.052C173.846 197.662 173.201 199.248 170.486 200.525C166.266 202.608 164.197 201.385 163.39 198.468Z" fill="#F5F5F5"/>
<path d="M190.189 211.371C189.978 210.548 189.852 209.706 189.813 208.858C189.504 203.616 184.504 204.449 180.257 203.737C176.924 203.186 185.727 194.799 179.021 192.085C177.718 191.732 176.578 190.939 175.795 189.84C175.456 189.016 175.417 188.099 175.685 187.249C175.952 186.399 176.51 185.671 177.26 185.19C178.791 184.272 180.558 183.828 182.34 183.913C183.429 182.569 182.542 180.593 181.48 179.236C180.419 177.878 179.128 176.333 179.531 174.666C180.136 172.14 183.671 171.978 186.251 172.543C187.206 171.011 187.179 169.102 187.595 167.368C188.012 165.635 189.437 163.82 191.211 164.035C192.985 164.25 193.899 166.132 195.552 166.522C197.474 166.965 199.127 165.285 200.619 164.022C202.111 162.758 204.731 161.965 205.766 163.632C206.385 164.627 206.008 166.024 206.653 167.005C207.769 168.712 210.403 167.651 212.029 166.441C213.656 165.231 216.276 164.143 217.405 165.809C217.691 166.366 217.904 166.958 218.037 167.57C218.817 169.801 221.236 170.917 223.117 172.355C224.999 173.793 226.491 176.629 224.891 178.389C224.112 179.249 222.728 179.599 222.338 180.701C221.841 182.045 223.252 183.308 224.367 184.249C226.209 185.821 226.545 190.539 224.099 191.816C223.077 192.367 221.572 192.528 221.316 193.657C221.061 194.786 222.123 195.458 222.808 196.237C223.237 196.793 223.541 197.435 223.699 198.12C223.857 198.804 223.866 199.514 223.724 200.202C223.582 200.89 223.294 201.539 222.878 202.105C222.463 202.671 221.93 203.14 221.316 203.482C220.725 203.764 219.972 203.992 219.784 204.611C219.696 205.063 219.748 205.532 219.932 205.955C220.162 206.808 220.239 207.695 220.161 208.575C220.167 208.882 220.057 209.18 219.851 209.409C219.62 209.559 219.348 209.634 219.072 209.624C215.537 209.785 213.83 208.535 211.68 211.599C211.491 211.908 211.239 212.174 210.941 212.379C210.64 212.531 210.31 212.618 209.973 212.634C207.54 212.822 205.941 211.29 203.737 211.035C200.659 210.632 200.001 212.231 197.286 213.494C193.066 215.524 190.996 214.287 190.189 211.371Z" fill="#F5F5F5"/>
<path d="M217.271 205.417C217.059 204.59 216.933 203.743 216.895 202.89C216.586 197.662 211.586 198.482 207.339 197.783C204.019 197.219 212.809 188.832 206.116 186.131C204.811 185.768 203.668 184.972 202.877 183.873C202.541 183.05 202.504 182.137 202.772 181.29C203.039 180.443 203.595 179.716 204.342 179.236C205.86 178.284 207.632 177.816 209.422 177.892C210.511 176.548 209.624 174.559 208.575 173.201C207.527 171.844 206.223 170.312 206.627 168.632C207.231 166.119 210.753 166.024 213.347 166.508C214.287 164.99 214.261 163.081 214.691 161.347C215.121 159.614 216.532 157.786 218.306 158.014C220.08 158.243 220.994 160.111 222.661 160.487C224.569 160.944 226.222 159.251 227.714 157.987C229.206 156.724 231.84 155.931 232.861 157.598C233.48 158.592 233.117 159.99 233.762 160.971C234.864 162.678 237.512 161.616 239.138 160.407C240.764 159.197 243.385 158.108 244.514 159.788C244.802 160.34 245.014 160.927 245.146 161.536C245.925 163.78 248.344 164.882 250.226 166.32C252.108 167.758 253.599 170.608 252 172.355C251.221 173.215 249.836 173.564 249.446 174.666C248.963 176.01 250.36 177.274 251.476 178.228C253.331 179.8 253.667 184.505 251.221 185.795C250.186 186.332 248.68 186.494 248.425 187.636C248.17 188.778 249.231 189.437 249.917 190.216C250.348 190.77 250.653 191.411 250.813 192.095C250.972 192.779 250.981 193.489 250.839 194.176C250.697 194.863 250.408 195.512 249.991 196.077C249.574 196.641 249.04 197.109 248.425 197.447C247.847 197.729 247.081 197.971 246.906 198.576C246.815 199.028 246.862 199.496 247.041 199.92C247.29 200.793 247.372 201.705 247.283 202.608C247.278 202.912 247.163 203.203 246.96 203.428C246.733 203.587 246.457 203.663 246.181 203.643C242.646 203.804 240.952 202.554 238.789 205.632C238.604 205.944 238.351 206.211 238.049 206.412C237.75 206.567 237.419 206.65 237.082 206.654C234.649 206.855 233.05 205.31 230.845 205.054C227.768 204.665 227.109 206.25 224.394 207.527C220.147 209.557 218.077 208.32 217.271 205.417Z" fill="#F5F5F5"/>
<path d="M217.634 234.394C217.467 233.742 217.364 233.076 217.325 232.405C217.083 228.278 213.145 228.937 209.798 228.373C207.191 227.942 214.113 221.33 208.844 219.206C207.818 218.919 206.918 218.294 206.291 217.432C206.026 216.784 205.996 216.063 206.208 215.396C206.419 214.728 206.857 214.155 207.446 213.777C208.66 213.046 210.064 212.695 211.478 212.769C212.339 211.72 211.64 210.148 210.806 209.086C209.973 208.024 208.952 206.801 209.261 205.484C209.745 203.495 212.527 203.428 214.529 203.804C215.084 202.519 215.45 201.161 215.618 199.772C215.981 198.428 217.056 196.977 218.467 197.084C219.878 197.192 220.591 198.737 221.881 199.046C223.386 199.396 224.69 198.065 225.913 197.071C227.136 196.076 229.152 195.458 229.945 196.762C230.429 197.555 230.147 198.643 230.644 199.45C231.531 200.794 233.601 199.96 234.891 199.006C236.181 198.052 238.238 197.192 239.138 198.509C239.366 198.933 239.538 199.385 239.649 199.853C240.254 201.614 242.162 202.541 243.681 203.616C245.199 204.691 246.369 206.99 245.025 208.374C244.406 209.046 243.318 209.328 243.009 210.188C242.632 211.277 243.734 212.245 244.608 212.984C246.073 214.234 246.328 217.943 244.406 218.951C243.6 219.381 242.404 219.502 242.216 220.403C242.028 221.303 242.847 221.747 243.385 222.432C243.724 222.869 243.964 223.373 244.09 223.912C244.215 224.45 244.222 225.009 244.111 225.55C244 226.092 243.773 226.603 243.446 227.048C243.119 227.493 242.699 227.863 242.216 228.131C241.745 228.359 241.181 228.534 241.006 229.018C240.934 229.379 240.972 229.753 241.114 230.093C241.304 230.765 241.367 231.467 241.302 232.163C241.301 232.402 241.21 232.632 241.046 232.808C240.868 232.927 240.657 232.988 240.442 232.982C237.66 233.103 236.316 232.122 234.622 234.542C234.473 234.785 234.277 234.995 234.044 235.16C233.805 235.276 233.544 235.34 233.278 235.348C231.356 235.509 230.106 234.313 228.359 234.085C225.94 233.775 225.429 235.025 223.292 236.033C219.892 237.646 218.266 236.678 217.634 234.394Z" fill="#F5F5F5"/>
<path d="M232.808 224.448C232.595 223.621 232.469 222.774 232.431 221.921C232.109 216.693 227.123 217.526 222.862 216.814C219.542 216.25 228.346 207.863 221.639 205.162C220.338 204.799 219.2 204.002 218.413 202.904C218.077 202.083 218.037 201.17 218.302 200.323C218.567 199.477 219.12 198.749 219.865 198.267C221.398 197.345 223.172 196.9 224.959 196.99C226.047 195.646 225.16 193.657 224.099 192.313C223.037 190.969 221.747 189.41 222.15 187.73C222.755 185.217 226.289 185.123 228.87 185.606C229.811 184.088 229.797 182.179 230.214 180.446C230.63 178.712 232.055 176.897 233.829 177.112C235.603 177.327 236.517 179.209 238.17 179.599C240.079 180.042 241.732 178.349 243.237 177.086C244.742 175.822 247.35 175.029 248.385 176.696C249.003 177.704 248.627 179.088 249.272 180.069C250.387 181.776 253.021 180.714 254.648 179.518C256.274 178.322 258.895 177.206 260.024 178.886C260.312 179.438 260.524 180.026 260.655 180.634C261.435 182.878 263.841 183.98 265.736 185.418C267.631 186.856 269.109 189.706 267.51 191.453C266.73 192.313 265.346 192.676 264.956 193.765C264.459 195.109 265.87 196.372 266.986 197.326C268.827 198.899 269.163 203.603 266.717 204.893C265.695 205.43 264.19 205.605 263.935 206.734C263.679 207.863 264.741 208.535 265.413 209.315C265.845 209.868 266.151 210.508 266.311 211.191C266.472 211.874 266.482 212.584 266.341 213.271C266.201 213.958 265.913 214.607 265.497 215.172C265.082 215.737 264.549 216.206 263.935 216.545C263.343 216.828 262.591 217.07 262.403 217.674C262.317 218.127 262.368 218.595 262.55 219.018C262.78 219.872 262.858 220.759 262.779 221.639C262.781 221.944 262.665 222.237 262.456 222.459C262.237 222.624 261.964 222.7 261.69 222.674C258.156 222.835 256.449 221.585 254.298 224.663C254.11 224.972 253.858 225.238 253.559 225.443C253.255 225.597 252.919 225.68 252.578 225.685C250.159 225.886 248.546 224.341 246.342 224.085C243.264 223.695 242.619 225.281 239.904 226.558C235.67 228.48 233.614 227.284 232.808 224.448Z" fill="#F5F5F5"/>
<path d="M190.189 179.505C189.977 178.678 189.851 177.831 189.813 176.978C189.504 171.75 184.504 172.583 180.257 171.871C176.924 171.32 185.727 162.92 179.021 160.218C177.717 159.86 176.578 159.063 175.795 157.961C175.457 157.139 175.418 156.224 175.686 155.376C175.954 154.529 176.511 153.802 177.26 153.324C178.783 152.383 180.551 151.915 182.341 151.98C183.429 150.636 182.542 148.66 181.48 147.303C180.419 145.945 179.128 144.4 179.532 142.733C180.136 140.206 183.671 140.045 186.252 140.596C187.206 139.077 187.179 137.169 187.596 135.435C188.012 133.701 189.437 131.887 191.211 132.102C192.985 132.317 193.899 134.199 195.552 134.588C197.474 135.032 199.127 133.352 200.619 132.075C202.111 130.798 204.732 130.019 205.766 131.685C206.385 132.693 206.008 134.078 206.653 135.059C207.769 136.766 210.403 135.717 212.029 134.508C213.656 133.298 216.277 132.196 217.405 133.876C217.691 134.428 217.904 135.016 218.037 135.623C218.817 137.868 221.236 138.983 223.117 140.408C224.999 141.833 226.491 144.695 224.892 146.442C224.112 147.316 222.728 147.665 222.338 148.768C221.841 150.112 223.252 151.361 224.367 152.316C226.209 153.888 226.545 158.592 224.099 159.882C223.077 160.42 221.572 160.595 221.317 161.724C221.061 162.853 222.123 163.525 222.808 164.304C223.237 164.86 223.541 165.502 223.699 166.186C223.857 166.87 223.866 167.581 223.724 168.268C223.582 168.956 223.294 169.605 222.879 170.171C222.463 170.737 221.93 171.207 221.317 171.548C220.725 171.831 219.973 172.059 219.784 172.664C219.699 173.117 219.75 173.585 219.932 174.008C220.17 174.883 220.248 175.793 220.161 176.696C220.166 176.846 220.141 176.996 220.088 177.137C220.035 177.277 219.954 177.406 219.852 177.516C219.625 177.677 219.35 177.758 219.072 177.744C215.537 177.892 213.83 176.642 211.68 179.72C211.491 180.029 211.239 180.295 210.941 180.499C210.641 180.653 210.31 180.736 209.973 180.741C207.541 180.943 205.941 179.397 203.737 179.142C200.659 178.752 200.001 180.338 197.286 181.615C193.066 183.644 190.996 182.408 190.189 179.505Z" fill="#F5F5F5"/>
<path d="M155.393 181.292C155.183 180.465 155.057 179.618 155.017 178.765C154.708 173.524 149.641 174.357 145.461 173.645C142.128 173.094 150.931 164.707 144.225 161.992C142.922 161.64 141.782 160.847 140.999 159.748C140.663 158.924 140.625 158.008 140.892 157.158C141.16 156.309 141.716 155.58 142.464 155.098C143.987 154.157 145.755 153.689 147.544 153.754C148.633 152.41 147.746 150.434 146.684 149.076C145.622 147.719 144.332 146.173 144.735 144.507C145.34 141.98 148.875 141.886 151.455 142.383C152.41 140.851 152.383 138.943 152.799 137.209C153.216 135.475 154.641 133.661 156.415 133.876C158.189 134.091 159.103 135.972 160.756 136.362C162.678 136.819 164.331 135.126 165.823 133.862C167.315 132.599 169.935 131.806 170.97 133.473C171.589 134.467 171.212 135.865 171.857 136.846C172.973 138.553 175.607 137.491 177.233 136.282C178.86 135.072 181.48 133.983 182.609 135.663C182.897 136.215 183.11 136.802 183.241 137.411C184.021 139.642 186.44 140.757 188.321 142.195C190.203 143.633 191.695 146.483 190.095 148.23C189.316 149.09 187.932 149.439 187.542 150.541C187.044 151.885 188.456 153.149 189.571 154.09C191.413 155.662 191.749 160.38 189.302 161.656C188.281 162.207 186.776 162.369 186.52 163.498C186.265 164.627 187.327 165.299 188.012 166.078C188.441 166.634 188.745 167.276 188.903 167.96C189.061 168.644 189.07 169.355 188.928 170.042C188.786 170.73 188.498 171.379 188.082 171.945C187.667 172.511 187.134 172.981 186.52 173.322C185.929 173.604 185.176 173.833 184.988 174.451C184.903 174.904 184.955 175.372 185.136 175.795C185.373 176.647 185.451 177.536 185.365 178.416C185.369 178.719 185.258 179.011 185.055 179.236C184.824 179.386 184.552 179.461 184.276 179.451C180.741 179.612 179.034 178.362 176.884 181.427C176.692 181.737 176.441 182.006 176.145 182.22C175.843 182.367 175.513 182.45 175.177 182.461C172.744 182.663 171.145 181.117 168.941 180.862C165.863 180.472 165.205 182.058 162.49 183.335C158.269 185.472 156.2 184.195 155.393 181.292Z" fill="#F5F5F5"/>
<path d="M134.266 195.525C134.042 194.7 133.911 193.852 133.876 192.998C133.567 187.77 128.5 188.603 124.32 187.891C121 187.327 129.79 178.94 123.097 176.239C121.792 175.876 120.649 175.08 119.858 173.981C119.522 173.158 119.485 172.245 119.753 171.398C120.02 170.551 120.576 169.824 121.323 169.344C122.844 168.398 124.614 167.93 126.403 168C127.505 166.656 126.605 164.667 125.556 163.323C124.508 161.979 123.204 160.42 123.608 158.74C124.212 156.226 127.734 156.132 130.328 156.616C131.268 155.098 131.255 153.189 131.672 151.455C132.088 149.722 133.5 147.907 135.287 148.122C137.075 148.337 137.975 150.219 139.628 150.609C141.537 151.052 143.19 149.359 144.682 148.095C146.173 146.832 148.808 146.039 149.829 147.706C150.447 148.714 150.085 150.098 150.73 151.079C151.832 152.786 154.479 151.724 156.106 150.528C157.732 149.332 160.353 148.216 161.482 149.896C161.774 150.447 161.991 151.035 162.127 151.643C162.893 153.888 165.312 155.003 167.194 156.428C169.075 157.853 170.567 160.715 168.981 162.463C168.188 163.336 166.804 163.686 166.414 164.774C165.93 166.118 167.328 167.382 168.444 168.336C170.298 169.908 170.634 174.612 168.188 175.903C167.153 176.44 165.648 176.615 165.406 177.744C165.164 178.873 166.199 179.545 166.885 180.324C167.318 180.879 167.626 181.521 167.786 182.206C167.947 182.891 167.956 183.602 167.814 184.292C167.673 184.981 167.382 185.631 166.964 186.197C166.546 186.763 166.01 187.231 165.393 187.569C164.815 187.837 164.049 188.079 163.874 188.684C163.783 189.135 163.83 189.604 164.008 190.028C164.25 190.879 164.332 191.768 164.25 192.649C164.264 192.795 164.244 192.942 164.193 193.079C164.142 193.216 164.06 193.34 163.954 193.441C163.848 193.542 163.72 193.617 163.58 193.662C163.441 193.706 163.293 193.718 163.148 193.697C159.613 193.845 157.92 192.595 155.756 195.673C155.575 195.988 155.322 196.255 155.017 196.452C154.718 196.608 154.386 196.691 154.049 196.694C151.617 196.896 150.017 195.35 147.813 195.095C144.735 194.705 144.077 196.291 141.375 197.568C137.088 199.665 135.059 198.428 134.266 195.525Z" fill="#F5F5F5"/>
<path d="M140.663 213.521C140.663 213.521 149.507 226.021 152.558 229.985C155.608 233.95 170.836 258.639 172.919 274.969C173.134 276.703 173.349 278.208 173.564 279.512C167.019 322.789 168.04 487.966 168.269 501.514H195.149C190.028 400.001 190.982 260.521 191.628 256.261C192.326 251.745 201.036 234.555 214.408 227.499C227.781 220.443 239.42 197.071 239.42 197.071H235.2C235.2 197.071 227.27 211.384 215.994 219.314C214.373 220.434 212.675 221.44 210.914 222.325C210.944 213.707 209.429 205.153 206.438 197.071L204.127 199.194C207.245 211.962 206.815 220.134 205.887 224.824C201.623 226.816 197.688 229.449 194.221 232.633C182.529 217.419 175.957 182.623 175.957 182.623L172.959 184.262C173.795 191.458 175.074 198.595 176.79 205.632C178.981 214.623 185.432 231.585 188.429 239.232C184.834 244.39 181.865 249.958 179.585 255.817C179.271 255.32 178.892 254.868 178.456 254.473C170.836 247.578 156.522 215.04 156.522 215.04C153.055 207.473 158.35 187.609 158.35 187.609H154.318L152.531 204.974L142.464 194.02L140.636 195.539L151.308 209.261L156.791 226.639L142.464 210.78L140.663 213.521Z" fill="#F5F5F5"/>
<path d="M544.938 238.305C545.134 237.525 545.251 236.728 545.288 235.926C545.583 230.993 550.287 231.773 554.293 231.114C557.424 230.59 549.145 222.687 555.448 220.134C556.679 219.797 557.756 219.047 558.499 218.01C558.818 217.239 558.858 216.382 558.613 215.585C558.367 214.787 557.852 214.101 557.155 213.642C555.715 212.775 554.05 212.354 552.371 212.433C551.336 211.183 552.183 209.301 553.177 208.024C554.172 206.748 555.395 205.336 555.018 203.724C554.44 201.345 551.121 201.264 548.715 201.721C547.828 200.283 547.841 198.482 547.371 196.856C546.901 195.229 545.651 193.509 543.971 193.711C542.291 193.912 541.431 195.686 539.871 196.049C538.084 196.479 536.525 194.893 535.114 193.697C533.702 192.501 531.23 191.762 530.262 193.321C529.684 194.262 530.033 195.579 529.429 196.506C528.38 198.106 525.894 197.111 524.348 195.982C522.803 194.853 520.316 193.805 519.268 195.391C518.991 195.907 518.788 196.458 518.663 197.03C517.937 199.14 515.653 200.189 513.892 201.546C512.131 202.904 510.707 205.578 512.212 207.231C512.951 208.038 514.255 208.374 514.618 209.409C515.075 210.753 513.758 211.868 512.709 212.755C510.962 214.234 510.653 218.669 512.951 219.878C513.919 220.389 515.343 220.55 515.572 221.612C515.8 222.674 514.819 223.319 514.228 224.045C513.821 224.565 513.531 225.166 513.377 225.808C513.223 226.451 513.21 227.118 513.337 227.766C513.465 228.414 513.73 229.027 514.116 229.563C514.502 230.099 514.998 230.545 515.572 230.872C516.136 231.128 516.808 231.343 517.01 231.921C517.108 232.37 517.066 232.84 516.889 233.265C516.66 234.068 516.582 234.906 516.661 235.738C516.657 236.028 516.768 236.308 516.97 236.517C517.184 236.66 517.438 236.73 517.695 236.719C521.015 236.867 522.628 235.684 524.657 238.587C524.836 238.88 525.074 239.131 525.356 239.326C525.642 239.465 525.953 239.542 526.27 239.555C528.555 239.743 530.047 238.305 532.143 238.049C535.046 237.673 535.651 239.165 538.205 240.374C542.237 242.202 544.172 241.046 544.938 238.305Z" fill="#F5F5F5"/>
<path d="M506.607 234.165C506.814 233.388 506.935 232.59 506.97 231.786C507.266 226.854 511.97 227.633 515.975 226.975C519.107 226.451 510.814 218.548 517.131 215.994C518.359 215.66 519.433 214.91 520.168 213.871C520.487 213.1 520.527 212.242 520.282 211.445C520.036 210.648 519.521 209.961 518.824 209.503C517.383 208.637 515.719 208.216 514.04 208.293C513.005 207.043 513.838 205.162 514.833 203.885C515.827 202.608 517.05 201.197 516.674 199.584C516.11 197.205 512.79 197.124 510.384 197.581C509.497 196.143 509.51 194.342 509.04 192.716C508.57 191.09 507.306 189.37 505.64 189.571C503.973 189.773 503.086 191.547 501.541 191.91C499.74 192.34 498.194 190.74 496.783 189.558C495.372 188.375 492.899 187.609 491.931 189.181C491.34 190.122 491.689 191.439 491.084 192.367C490.036 193.966 487.55 192.972 486.017 191.829C484.485 190.687 481.985 189.665 480.924 191.251C480.657 191.77 480.458 192.321 480.332 192.891C479.606 195.001 477.322 196.049 475.548 197.407C473.773 198.764 472.376 201.439 473.868 203.092C474.607 203.898 475.91 204.234 476.287 205.269C476.744 206.613 475.413 207.715 474.378 208.616C472.631 210.094 472.309 214.529 474.62 215.739C475.588 216.25 476.999 216.411 477.308 217.473C477.617 218.534 476.556 219.166 475.964 219.905C475.555 220.423 475.263 221.024 475.108 221.665C474.953 222.307 474.939 222.974 475.067 223.622C475.195 224.269 475.461 224.882 475.848 225.416C476.235 225.951 476.733 226.396 477.308 226.719C477.859 226.988 478.545 227.203 478.746 227.781C478.847 228.232 478.8 228.703 478.612 229.125C478.393 229.93 478.32 230.768 478.397 231.598C478.394 231.886 478.499 232.164 478.693 232.378C478.912 232.521 479.17 232.591 479.432 232.579C482.751 232.727 484.364 231.544 486.394 234.447C486.564 234.738 486.798 234.986 487.079 235.173C487.365 235.322 487.684 235.401 488.006 235.402C490.291 235.603 491.783 234.165 493.866 233.896C496.769 233.533 497.388 235.025 499.941 236.235C503.906 238.063 505.855 236.907 506.607 234.165Z" fill="#F5F5F5"/>
<path d="M502.925 209.758C503.121 208.979 503.238 208.182 503.274 207.379C503.57 202.447 508.274 203.226 512.279 202.568C515.411 202.044 507.132 194.141 513.435 191.587C514.663 191.253 515.737 190.503 516.472 189.464C516.794 188.693 516.835 187.835 516.59 187.037C516.344 186.239 515.827 185.552 515.128 185.096C513.689 184.226 512.023 183.81 510.344 183.9C509.309 182.636 510.156 180.755 511.15 179.478C512.145 178.201 513.354 176.79 512.978 175.177C512.414 172.798 509.094 172.717 506.688 173.174C505.801 171.736 505.815 169.949 505.344 168.309C504.874 166.669 503.624 164.963 501.944 165.164C500.264 165.366 499.404 167.14 497.845 167.503C496.057 167.933 494.498 166.347 493.087 165.151C491.676 163.955 489.203 163.215 488.235 164.788C487.657 165.729 488.006 167.032 487.402 167.96C486.353 169.573 483.867 168.565 482.321 167.436C480.776 166.307 478.289 165.258 477.241 166.844C476.962 167.364 476.759 167.92 476.636 168.497C475.91 170.594 473.626 171.642 471.852 173C470.077 174.357 468.68 177.032 470.185 178.685C470.924 179.491 472.228 179.827 472.591 180.862C473.048 182.206 471.731 183.322 470.682 184.209C468.935 185.687 468.626 190.122 470.924 191.332C471.892 191.843 473.317 192.004 473.612 193.066C473.908 194.127 472.86 194.772 472.268 195.498C471.861 196.018 471.571 196.62 471.417 197.262C471.263 197.904 471.25 198.572 471.377 199.22C471.505 199.868 471.771 200.48 472.156 201.016C472.542 201.552 473.039 201.999 473.612 202.326C474.177 202.581 474.849 202.81 475.05 203.388C475.137 203.816 475.095 204.26 474.929 204.664C474.7 205.467 474.623 206.306 474.701 207.137C474.698 207.425 474.803 207.703 474.997 207.917C475.218 208.054 475.475 208.124 475.736 208.118C479.055 208.266 480.668 207.084 482.698 209.987C482.871 210.279 483.105 210.531 483.383 210.726C483.672 210.869 483.988 210.947 484.31 210.954C486.595 211.142 488.087 209.704 490.184 209.449C493.087 209.073 493.692 210.564 496.245 211.774C500.21 213.696 502.159 212.5 502.925 209.758Z" fill="#F5F5F5"/>
<path d="M477.671 221.908C477.878 221.135 478 220.342 478.034 219.542C478.33 214.61 483.034 215.389 487.039 214.717C490.17 214.193 481.878 206.291 488.195 203.75C489.424 203.404 490.497 202.645 491.232 201.6C491.551 200.827 491.592 199.967 491.347 199.168C491.102 198.368 490.586 197.679 489.888 197.219C488.446 196.358 486.781 195.942 485.103 196.022C484.069 194.772 484.902 192.891 485.896 191.614C486.891 190.337 488.114 188.926 487.738 187.313C487.173 184.934 483.84 184.84 481.448 185.311C480.561 183.873 480.574 182.072 480.104 180.432C479.633 178.792 478.37 177.085 476.703 177.3C475.037 177.515 474.15 179.276 472.604 179.639C470.803 180.056 469.244 178.47 467.833 177.274C466.422 176.077 463.962 175.338 462.995 176.911C462.403 177.851 462.753 179.169 462.148 180.096C461.1 181.695 458.613 180.701 457.081 179.558C455.549 178.416 453.049 177.395 451.987 178.967C451.721 179.491 451.522 180.046 451.396 180.62C450.657 182.73 448.385 183.779 446.611 185.123C444.837 186.467 443.439 189.155 444.931 190.808C445.671 191.627 446.974 191.95 447.351 192.985C447.808 194.329 446.477 195.444 445.442 196.331C443.695 197.823 443.372 202.259 445.684 203.468C446.652 203.979 448.063 204.127 448.305 205.202C448.547 206.277 447.552 206.895 446.961 207.635C446.552 208.152 446.26 208.753 446.105 209.394C445.95 210.036 445.936 210.704 446.064 211.351C446.191 211.999 446.458 212.611 446.845 213.146C447.232 213.68 447.73 214.125 448.305 214.449C448.856 214.717 449.541 214.932 449.743 215.51C449.843 215.961 449.796 216.432 449.608 216.854C449.389 217.655 449.317 218.488 449.393 219.314C449.388 219.602 449.493 219.882 449.689 220.093C449.899 220.246 450.157 220.318 450.415 220.295C453.748 220.456 455.361 219.274 457.39 222.163C457.56 222.458 457.794 222.711 458.076 222.902C458.36 223.044 458.672 223.122 458.99 223.131C461.288 223.319 462.78 221.894 464.863 221.626C467.766 221.263 468.384 222.755 470.938 223.951C474.97 225.792 476.919 224.65 477.671 221.908Z" fill="#F5F5F5"/>
<path d="M452.162 216.304C452.362 215.525 452.483 214.728 452.525 213.925C452.821 208.992 457.525 209.772 461.53 209.1C464.648 208.576 456.369 200.686 462.672 198.133C463.904 197.8 464.983 197.049 465.723 196.009C466.044 195.239 466.085 194.38 465.84 193.582C465.595 192.785 465.078 192.098 464.379 191.641C462.934 190.774 461.265 190.353 459.581 190.432C458.559 189.182 459.393 187.3 460.387 186.023C461.382 184.746 462.605 183.335 462.229 181.722C461.651 179.344 458.331 179.249 455.939 179.72C455.038 178.282 455.065 176.481 454.595 174.855C454.124 173.228 452.861 171.508 451.181 171.71C449.501 171.911 448.641 173.685 447.149 174.048C445.348 174.478 443.789 172.879 442.378 171.683C440.966 170.487 438.507 169.747 437.526 171.32C436.948 172.261 437.297 173.578 436.693 174.505C435.644 176.104 433.158 175.11 431.612 173.968C430.067 172.825 427.58 171.804 426.532 173.39C426.261 173.908 426.058 174.459 425.927 175.029C425.201 177.139 422.93 178.188 421.156 179.532C419.382 180.876 417.971 183.564 419.476 185.217C420.215 186.037 421.519 186.359 421.882 187.408C422.352 188.752 421.022 189.854 419.973 190.754C418.239 192.232 417.917 196.668 420.215 197.877C421.183 198.388 422.607 198.549 422.903 199.611C423.199 200.673 422.137 201.304 421.559 202.044C421.15 202.562 420.858 203.162 420.703 203.804C420.548 204.445 420.534 205.113 420.662 205.76C420.79 206.408 421.056 207.02 421.443 207.555C421.83 208.089 422.328 208.534 422.903 208.858C423.454 209.127 424.14 209.342 424.341 209.92C424.442 210.37 424.395 210.842 424.207 211.264C423.983 212.068 423.906 212.905 423.978 213.736C423.978 214.022 424.089 214.297 424.287 214.503C424.497 214.656 424.754 214.732 425.013 214.718C428.346 214.865 429.946 213.683 431.975 216.586C432.154 216.874 432.392 217.122 432.674 217.312C432.958 217.455 433.27 217.533 433.588 217.54C435.873 217.728 437.378 216.304 439.461 216.035C442.364 215.672 442.982 217.164 445.536 218.36C449.461 220.201 451.409 219.072 452.162 216.304Z" fill="#F5F5F5"/>
<path d="M451.826 243.587C451.983 242.975 452.078 242.349 452.108 241.719C452.337 237.834 456.046 238.453 459.205 237.928C461.664 237.512 455.172 231.289 460.105 229.287C461.074 229.022 461.923 228.434 462.511 227.62C462.76 227.008 462.788 226.327 462.59 225.697C462.391 225.066 461.978 224.524 461.422 224.166C460.287 223.489 458.978 223.162 457.659 223.225C456.839 222.244 457.498 220.752 458.291 219.758C459.084 218.763 460.024 217.607 459.729 216.357C459.285 214.489 456.664 214.422 454.783 214.785C454.256 213.564 453.908 212.274 453.748 210.954C453.412 209.61 452.404 208.266 451.06 208.481C449.716 208.696 449.057 210.04 447.834 210.323C446.611 210.605 445.146 209.409 444.085 208.468C443.023 207.527 441.034 206.936 440.268 208.172C439.811 208.911 440.079 209.946 439.609 210.686C438.776 211.949 436.827 211.156 435.577 210.269C434.327 209.382 432.432 208.549 431.545 209.799C431.327 210.223 431.169 210.675 431.075 211.143C430.497 212.796 428.709 213.615 427.311 214.691C425.914 215.766 424.812 217.863 425.967 219.166C426.545 219.798 427.58 220.067 427.862 220.873C428.225 221.895 427.19 222.808 426.357 223.561C425.013 224.73 424.744 228.225 426.559 229.179C427.311 229.582 428.427 229.703 428.615 230.523C428.803 231.343 428.024 231.867 427.513 232.431C427.196 232.844 426.971 233.32 426.854 233.828C426.737 234.335 426.731 234.861 426.835 235.371C426.94 235.881 427.153 236.363 427.46 236.783C427.767 237.203 428.161 237.553 428.615 237.807C429.059 238.009 429.596 238.184 429.757 238.641C429.821 238.98 429.784 239.331 429.65 239.649C429.471 240.282 429.412 240.943 429.475 241.598C429.478 241.822 429.564 242.038 429.717 242.202C429.879 242.324 430.08 242.381 430.282 242.364C432.902 242.485 434.166 241.557 435.765 243.842C435.909 244.069 436.097 244.265 436.316 244.42C436.542 244.533 436.79 244.593 437.042 244.595C438.843 244.743 440.012 243.614 441.665 243.412C443.95 243.116 444.434 244.299 446.437 245.24C449.702 246.664 451.235 245.751 451.826 243.587Z" fill="#F5F5F5"/>
<path d="M437.539 234.165C437.734 233.386 437.851 232.589 437.889 231.786C438.184 226.854 442.888 227.633 446.893 226.975C450.025 226.451 441.746 218.548 448.049 215.994C449.277 215.66 450.351 214.91 451.087 213.871C451.408 213.1 451.449 212.242 451.204 211.444C450.958 210.646 450.441 209.959 449.743 209.503C448.302 208.636 446.637 208.215 444.958 208.293C443.923 207.043 444.77 205.162 445.764 203.885C446.759 202.608 447.982 201.197 447.592 199.584C447.028 197.205 443.708 197.124 441.302 197.581C440.415 196.143 440.429 194.342 439.958 192.716C439.488 191.09 438.238 189.37 436.558 189.571C434.878 189.773 434.018 191.547 432.459 191.91C430.671 192.34 429.112 190.74 427.701 189.558C426.29 188.375 423.817 187.609 422.849 189.181C422.271 190.122 422.621 191.439 422.016 192.367C420.968 193.966 418.481 192.972 416.936 191.829C415.39 190.687 412.904 189.665 411.855 191.251C411.579 191.767 411.375 192.319 411.25 192.891C410.525 195.001 408.24 196.049 406.466 197.407C404.692 198.764 403.294 201.439 404.799 203.092C405.539 203.898 406.842 204.234 407.205 205.269C407.662 206.613 406.345 207.715 405.297 208.616C403.549 210.094 403.24 214.529 405.538 215.739C406.506 216.25 407.931 216.411 408.159 217.473C408.388 218.534 407.407 219.166 406.815 219.905C406.408 220.424 406.118 221.025 405.965 221.666C405.811 222.307 405.798 222.974 405.925 223.62C406.053 224.267 406.318 224.879 406.704 225.414C407.09 225.949 407.586 226.394 408.159 226.719C408.724 226.988 409.396 227.203 409.597 227.781C409.696 228.231 409.654 228.7 409.476 229.125C409.247 229.928 409.17 230.767 409.248 231.598C409.245 231.886 409.35 232.164 409.544 232.378C409.765 232.515 410.022 232.585 410.283 232.579C413.602 232.727 415.215 231.544 417.245 234.447C417.419 234.735 417.653 234.983 417.93 235.173C418.217 235.322 418.535 235.401 418.858 235.402C421.142 235.603 422.634 234.165 424.731 233.896C427.634 233.533 428.239 235.025 430.792 236.235C434.824 238.063 436.8 236.907 437.539 234.165Z" fill="#F5F5F5"/>
<path d="M477.671 191.896C477.877 191.119 477.999 190.321 478.034 189.517C478.33 184.585 483.034 185.365 487.039 184.706C490.17 184.182 481.878 176.279 488.195 173.725C489.423 173.392 490.497 172.641 491.232 171.602C491.551 170.831 491.591 169.973 491.345 169.176C491.1 168.379 490.585 167.692 489.888 167.234C488.447 166.368 486.783 165.948 485.103 166.024C484.069 164.774 484.902 162.893 485.896 161.616C486.891 160.339 488.114 158.928 487.738 157.315C487.173 154.936 483.84 154.856 481.448 155.313C480.561 153.875 480.574 152.074 480.104 150.447C479.633 148.821 478.37 147.101 476.703 147.302C475.037 147.504 474.15 149.278 472.604 149.641C470.803 150.071 469.244 148.472 467.833 147.289C466.422 146.106 463.962 145.34 462.995 146.913C462.403 147.853 462.753 149.171 462.148 150.098C461.1 151.697 458.613 150.703 457.081 149.574C455.549 148.445 453.049 147.396 451.987 148.982C451.721 149.501 451.522 150.052 451.396 150.622C450.657 152.732 448.385 153.781 446.611 155.138C444.837 156.495 443.439 159.17 444.931 160.823C445.671 161.629 446.974 161.965 447.351 163C447.808 164.344 446.477 165.446 445.442 166.347C443.695 167.825 443.372 172.261 445.684 173.47C446.652 173.981 448.063 174.142 448.305 175.204C448.547 176.266 447.552 176.897 446.961 177.637C446.552 178.154 446.26 178.755 446.105 179.396C445.95 180.038 445.936 180.706 446.064 181.353C446.191 182.001 446.458 182.613 446.845 183.148C447.232 183.682 447.73 184.127 448.305 184.451C448.856 184.719 449.541 184.934 449.743 185.512C449.844 185.963 449.796 186.434 449.608 186.856C449.389 187.661 449.317 188.499 449.393 189.329C449.39 189.617 449.496 189.896 449.689 190.109C449.904 190.25 450.158 190.32 450.415 190.31C453.748 190.458 455.361 189.276 457.39 192.179C457.561 192.469 457.795 192.718 458.076 192.904C458.358 193.052 458.671 193.13 458.99 193.133C461.288 193.334 462.78 191.896 464.863 191.628C467.766 191.265 468.384 192.757 470.938 193.966C474.97 195.794 476.919 194.638 477.671 191.896Z" fill="#F5F5F5"/>
<path d="M510.451 193.536C510.651 192.757 510.773 191.96 510.814 191.157C511.096 186.225 515.814 187.004 519.819 186.332C522.937 185.808 514.658 177.905 520.961 175.365C522.189 175.023 523.265 174.274 524.012 173.242C524.332 172.469 524.372 171.609 524.127 170.81C523.882 170.01 523.366 169.321 522.668 168.86C521.222 167.997 519.552 167.581 517.87 167.664C516.849 166.414 517.682 164.532 518.677 163.256C519.671 161.979 520.894 160.568 520.518 158.955C519.94 156.576 516.62 156.482 514.214 156.952C513.327 155.514 513.354 153.713 512.87 152.087C512.387 150.461 511.137 148.74 509.457 148.942C507.777 149.144 506.916 150.918 505.425 151.281C503.624 151.697 502.065 150.111 500.653 148.915C499.242 147.719 496.783 146.98 495.802 148.552C495.224 149.493 495.573 150.81 494.968 151.738C493.92 153.337 491.434 152.342 489.888 151.2C488.342 150.058 485.856 149.036 484.808 150.609C484.537 151.132 484.334 151.687 484.203 152.262C483.477 154.372 481.206 155.42 479.432 156.764C477.658 158.108 476.246 160.796 477.752 162.449C478.491 163.269 479.795 163.592 480.157 164.627C480.628 165.971 479.297 167.086 478.249 167.973C476.502 169.465 476.193 173.9 478.491 175.11C479.459 175.62 480.883 175.782 481.179 176.843C481.475 177.905 480.413 178.537 479.835 179.276C479.428 179.795 479.138 180.395 478.984 181.037C478.831 181.678 478.817 182.344 478.945 182.991C479.072 183.638 479.338 184.25 479.724 184.785C480.109 185.319 480.605 185.765 481.179 186.09C481.73 186.359 482.415 186.574 482.617 187.152C482.717 187.603 482.67 188.074 482.483 188.496C482.259 189.3 482.181 190.138 482.254 190.969C482.254 191.255 482.365 191.529 482.563 191.735C482.773 191.888 483.03 191.964 483.289 191.95C486.622 192.098 488.221 190.915 490.251 193.805C490.429 194.097 490.668 194.349 490.95 194.544C491.234 194.687 491.546 194.765 491.864 194.772C494.148 194.961 495.654 193.536 497.737 193.267C500.64 192.904 501.258 194.396 503.812 195.592C507.75 197.474 509.699 196.305 510.451 193.536Z" fill="#F5F5F5"/>
<path d="M530.356 206.976C530.562 206.198 530.684 205.401 530.719 204.597C531.014 199.665 535.718 200.444 539.723 199.772C542.855 199.248 534.562 191.345 540.879 188.805C542.103 188.462 543.174 187.713 543.917 186.681C544.236 185.909 544.277 185.049 544.031 184.249C543.786 183.45 543.27 182.761 542.573 182.3C541.13 181.439 539.466 181.023 537.788 181.104C536.753 179.854 537.586 177.972 538.581 176.696C539.576 175.419 540.799 174.008 540.422 172.395C539.858 170.016 536.525 169.922 534.132 170.392C533.245 168.954 533.259 167.153 532.788 165.527C532.318 163.901 531.055 162.18 529.388 162.382C527.722 162.584 526.835 164.358 525.356 164.721C523.555 165.137 521.996 163.551 520.585 162.355C519.174 161.159 516.714 160.42 515.747 161.992C515.155 162.933 515.505 164.25 514.9 165.177C513.851 166.777 511.365 165.782 509.833 164.64C508.301 163.497 505.801 162.476 504.739 164.049C504.467 164.57 504.268 165.126 504.148 165.702C503.409 167.812 501.137 168.86 499.363 170.204C497.589 171.548 496.191 174.236 497.683 175.889C498.422 176.709 499.726 177.032 500.102 178.066C500.559 179.41 499.229 180.526 498.18 181.413C496.447 182.905 496.124 187.34 498.436 188.55C499.403 189.06 500.815 189.222 501.057 190.283C501.299 191.345 500.304 191.977 499.713 192.716C499.304 193.234 499.012 193.834 498.857 194.476C498.702 195.118 498.688 195.785 498.815 196.433C498.943 197.08 499.21 197.692 499.596 198.227C499.983 198.762 500.482 199.206 501.057 199.53C501.608 199.799 502.293 200.014 502.495 200.592C502.594 201.043 502.547 201.514 502.36 201.936C502.136 202.74 502.063 203.578 502.145 204.409C502.143 204.693 502.249 204.966 502.441 205.175C502.652 205.326 502.908 205.402 503.167 205.39C506.5 205.538 508.099 204.355 510.142 207.245C510.312 207.54 510.546 207.792 510.827 207.984C511.112 208.125 511.424 208.203 511.741 208.212C514.04 208.401 515.531 206.976 517.615 206.707C520.518 206.344 521.136 207.836 523.69 209.032C527.654 210.887 529.603 209.664 530.356 206.976Z" fill="#F5F5F5"/>
<path d="M524.321 223.937C524.321 223.937 516.002 235.711 513.126 239.434C510.25 243.157 495.936 266.421 493.947 281.81C493.732 283.45 493.53 284.861 493.329 286.097C499.511 326.847 498.543 491.461 498.315 504.229H470.696C473.72 378.135 476.918 268.209 476.3 264.19C475.655 259.93 467.484 243.748 454.796 237.095C442.109 230.442 431.249 208.428 431.249 208.428H435.281C435.281 208.428 442.754 221.868 453.371 229.394C454.9 230.44 456.493 231.388 458.143 232.23C458.119 224.106 459.553 216.045 462.376 208.428L464.54 210.444C461.61 222.459 462 230.16 462.887 234.636C466.897 236.518 470.599 238.997 473.867 241.987C484.888 227.66 491.084 194.947 491.084 194.947L493.906 196.479C493.107 203.268 491.891 210 490.264 216.639C488.195 225.12 482.12 241.087 479.297 248.331C482.681 253.193 485.473 258.44 487.617 263.962C487.911 263.49 488.269 263.061 488.678 262.685C495.936 256.032 509.376 225.375 509.376 225.375C512.642 218.239 507.656 199.53 507.656 199.53H511.419L513.112 215.9L522.52 205.565L524.241 207.003L514.187 219.919L509.026 236.289L522.466 221.357L524.321 223.937Z" fill="#F5F5F5"/>
<path d="M576.858 392.757H95.1418V409.087H576.858V392.757Z" fill="#E0E0E0"/>
<path d="M106.485 494.162H83.7983V350.945L95.1417 342.881L106.485 350.945V494.162Z" fill="#E6E6E6"/>
<path d="M146.63 494.162H123.944V350.945L135.287 342.881L146.63 350.945V494.162Z" fill="#E6E6E6"/>
<path d="M186.776 494.162H164.089V350.945L175.432 342.881L186.776 350.945V494.162Z" fill="#E6E6E6"/>
<path d="M226.921 494.162H204.234V350.945L215.578 342.881L226.921 350.945V494.162Z" fill="#E6E6E6"/>
<path d="M267.053 494.162H244.366V350.945L255.709 342.881L267.053 350.945V494.162Z" fill="#E6E6E6"/>
<path d="M307.198 494.162H284.511V350.945L295.855 342.881L307.198 350.945V494.162Z" fill="#E6E6E6"/>
<path d="M347.343 494.162H324.657V350.945L336 342.881L347.343 350.945V494.162Z" fill="#E6E6E6"/>
<path d="M387.488 494.162H364.802V350.945L376.145 342.881L387.488 350.945V494.162Z" fill="#E6E6E6"/>
<path d="M427.634 494.162H404.947V350.945L416.291 342.881L427.634 350.945V494.162Z" fill="#E6E6E6"/>
<path d="M467.766 494.162H445.093V350.945L456.422 342.881L467.766 350.945V494.162Z" fill="#E6E6E6"/>
<path d="M507.911 494.162H485.224V350.945L496.568 342.881L507.911 350.945V494.162Z" fill="#E6E6E6"/>
<path d="M548.056 494.162H525.37V350.945L536.713 342.881L548.056 350.945V494.162Z" fill="#E6E6E6"/>
<path d="M588.202 494.162H565.515V350.945L576.858 342.881L588.202 350.945V494.162Z" fill="#E6E6E6"/>
<path d="M570.945 495.721C570.945 495.721 574.708 483.141 567.101 480.641C559.494 478.141 555.005 472.255 555.26 465.602C555.516 458.949 547.519 452.471 541.524 458.707C535.53 464.943 536.323 453.909 528.326 451.234C520.33 448.56 513.542 455.051 515.747 460.992C517.951 466.932 510.035 470.655 500.586 465.602C491.138 460.548 480.749 469.741 482.751 476.932C484.754 484.122 483.114 484.928 477.133 482.536C471.153 480.144 460.454 486.931 464.204 495.721C467.954 504.511 570.945 495.721 570.945 495.721Z" fill="#E0E0E0"/>
<path d="M167.301 493.92C167.301 493.92 170.218 484.149 164.317 482.214C158.417 480.278 154.909 475.695 155.124 470.534C155.34 465.373 149.117 460.347 144.453 465.158C139.789 469.97 140.421 461.435 134.212 459.352C128.003 457.269 122.748 462.323 124.441 466.932C126.134 471.542 120.019 474.432 112.681 470.534C105.343 466.637 97.2787 473.747 98.8378 479.338C100.397 484.929 99.12 485.547 94.4698 483.679C89.8195 481.811 81.527 487.092 84.4435 493.92C87.36 500.748 167.301 493.92 167.301 493.92Z" fill="#E0E0E0"/>
<path d="M313.152 495.076C319.872 488.356 313.824 476.932 307.104 475.588C300.384 474.244 293.664 462.417 293.315 454.89C292.965 447.364 280.896 424.22 262.08 438.507C243.264 452.794 248.976 440.617 235.375 436.598C221.774 432.58 213.172 444.138 219.139 452.807C219.139 452.807 205.471 449.38 199.839 462.148C194.208 474.916 199.839 482.846 199.839 482.846C199.839 482.846 174.115 482.093 176.44 497.992C178.765 513.892 313.152 495.076 313.152 495.076Z" fill="#E0E0E0"/>
<path d="M74.2023 495.479V513.892H592.986V495.479C593.026 494.743 592.917 494.007 592.666 493.315C592.416 492.622 592.028 491.987 591.526 491.448C591.024 490.908 590.419 490.475 589.746 490.175C589.073 489.875 588.347 489.713 587.61 489.7H79.6321C78.8909 489.706 78.1587 489.862 77.4797 490.159C76.8007 490.456 76.189 490.888 75.6815 491.428C75.174 491.968 74.7813 492.606 74.527 493.302C74.2728 493.998 74.1623 494.739 74.2023 495.479Z" fill="#EBEBEB"/>
<path d="M563.418 489.7H531.162V513.892H563.418V489.7Z" fill="#F5F5F5"/>
<path d="M501.594 489.7H470.682V513.892H501.594V489.7Z" fill="#F5F5F5"/>
<path d="M441.114 489.7H408.858V513.892H441.114V489.7Z" fill="#F5F5F5"/>
<path d="M379.29 489.7H348.378V513.892H379.29V489.7Z" fill="#F5F5F5"/>
<path d="M318.81 489.7H287.898V513.892H318.81V489.7Z" fill="#F5F5F5"/>
<path d="M258.33 489.7H226.074V513.892H258.33V489.7Z" fill="#F5F5F5"/>
<path d="M196.506 489.7H165.594V513.892H196.506V489.7Z" fill="#F5F5F5"/>
<path d="M136.026 489.7H103.77V513.892H136.026V489.7Z" fill="#F5F5F5"/>
<path d="M184.128 334.266L187.488 334.495" stroke="#E0E0E0" stroke-linecap="round" stroke-linejoin="round"/>
<path d="M194.141 334.911C246.947 338.083 299.981 338.204 352.733 333.809C380.728 331.471 408.643 327.855 436.289 322.802C461.463 318.192 487.872 313.703 510.855 301.916C516.161 299.216 521.244 296.097 526.055 292.589C532.936 287.576 539.347 281.461 542.707 273.652C562.491 227.754 457.632 244.823 438.52 245.75C383.779 248.438 329.038 252.255 274.27 254.446C241.934 255.79 194.342 244.648 178.752 212.943C176.561 208.468 175.096 203.428 175.957 198.509C176.969 193.967 179.27 189.814 182.582 186.547C199.329 168.47 228.991 163.35 252.175 157.813C276.721 151.958 301.736 148.279 326.928 146.819" stroke="#E0E0E0" stroke-linecap="round" stroke-linejoin="round" stroke-dasharray="4.98 4.98"/>
<path d="M330.248 146.644L333.608 146.496" stroke="#E0E0E0" stroke-linecap="round" stroke-linejoin="round"/>
<path d="M327.949 137.491L335.53 143.338L338.688 157.907L349.669 150.958L360.622 155.716L392.918 139.628L327.949 137.491Z" fill="#EBEBEB"/>
<path d="M338.688 157.907L342.209 147.706L349.668 150.958L338.688 157.907Z" fill="#E0E0E0"/>
<path d="M335.53 143.338L392.918 139.628L342.209 147.706L360.622 155.716L392.918 139.628L327.949 137.491L335.53 143.338Z" fill="#F5F5F5"/>
<path d="M336 574.641C479.919 574.641 596.588 567.829 596.588 559.426C596.588 551.024 479.919 544.212 336 544.212C192.081 544.212 75.4119 551.024 75.4119 559.426C75.4119 567.829 192.081 574.641 336 574.641Z" fill="#F5F5F5"/>
<path d="M536.256 562.263H298.959C297.533 562.263 296.166 561.696 295.158 560.688C294.15 559.68 293.583 558.312 293.583 556.887V394.195L407.272 308.179C409.303 306.637 411.774 305.787 414.324 305.753C416.874 305.719 419.367 306.503 421.438 307.991L541.632 394.195V556.927C541.621 558.346 541.05 559.703 540.043 560.702C539.036 561.702 537.675 562.263 536.256 562.263Z" fill="#407BFF"/>
<path opacity="0.2" d="M536.256 562.263H298.959C297.533 562.263 296.166 561.696 295.158 560.688C294.15 559.68 293.583 558.312 293.583 556.887V394.195L407.272 308.179C409.303 306.637 411.774 305.787 414.324 305.753C416.874 305.719 419.367 306.503 421.438 307.991L541.632 394.195V556.927C541.621 558.346 541.05 559.703 540.043 560.702C539.036 561.702 537.675 562.263 536.256 562.263Z" fill="black"/>
<path d="M494.242 485.655H326.242C328.308 484.311 330.004 482.472 331.178 480.305C332.351 478.139 332.965 475.713 332.962 473.249V221.048C332.965 218.402 333.726 215.811 335.155 213.584C336.584 211.357 338.622 209.586 341.026 208.481H509.026C506.622 209.586 504.584 211.357 503.155 213.584C501.726 215.811 500.965 218.402 500.962 221.048V473.249C500.965 475.713 500.351 478.139 499.178 480.305C498.004 482.472 496.308 484.311 494.242 485.655Z" fill="#407BFF"/>
<path opacity="0.7" d="M494.242 485.655H326.242C328.308 484.311 330.004 482.472 331.178 480.305C332.351 478.139 332.965 475.713 332.962 473.249V221.048C332.965 218.402 333.726 215.811 335.155 213.584C336.584 211.357 338.622 209.586 341.026 208.481H509.026C506.622 209.586 504.584 211.357 503.155 213.584C501.726 215.811 500.965 218.402 500.962 221.048V473.249C500.965 475.713 500.351 478.139 499.178 480.305C498.004 482.472 496.308 484.311 494.242 485.655Z" fill="white"/>
<path d="M489.323 283.947C486.944 282.764 479.808 284.055 477.94 284.27C476.071 284.485 475.184 284.377 473.478 284.579C471.771 284.78 471.596 284.579 471.3 283.947C471.005 283.315 468.021 283.732 467.268 283.45C466.516 283.168 459.809 284.592 452.632 284.579C445.455 284.565 450.267 284.7 449.232 283.45C448.197 282.2 444.743 284.377 443.99 284.512C443.238 284.646 441.464 284.7 441.195 283.409C440.926 282.119 439.071 284.753 437.257 284.485C435.442 284.216 439.367 281.38 436.88 282.657C434.394 283.934 428.669 284.485 428.669 284.485L430.483 285.829C423.629 285.936 417.661 286.044 416.465 286.151C415.269 286.259 414.53 286.259 413.186 284.095C411.842 281.931 411.99 284.646 406.923 285.936C401.856 287.226 400.66 286.904 398.267 285.721C395.875 284.538 394.692 285.829 392.891 286.044C391.09 286.259 390.136 286.151 388.429 286.353C386.722 286.554 386.561 286.353 386.252 285.721C385.943 285.089 382.973 285.506 382.22 285.224C381.467 284.942 374.761 286.366 367.584 286.353C360.407 286.339 365.218 286.474 364.184 285.224C363.149 283.974 359.695 286.151 358.955 286.286C358.216 286.42 356.415 286.474 356.16 285.184C355.905 283.893 354.023 286.528 352.222 286.259C350.421 285.99 354.332 283.154 351.832 284.431C349.332 285.708 343.62 286.259 343.62 286.259" stroke="#263238" stroke-linecap="round" stroke-linejoin="round"/>
<path d="M387.972 233.668C387.22 233.386 380.513 234.81 373.336 234.797C366.159 234.784 370.971 234.918 369.949 233.668C368.928 232.418 365.447 234.595 364.708 234.73C363.968 234.864 362.167 234.918 361.912 233.628C361.657 232.338 359.789 234.972 357.974 234.703C356.16 234.434 360.084 231.598 357.598 232.889C355.111 234.179 349.373 234.703 349.373 234.703" stroke="#263238" stroke-linecap="round" stroke-linejoin="round"/>
<path d="M489.323 422.581C488.584 422.298 481.878 423.723 474.701 423.71C467.524 423.696 472.322 423.831 471.3 422.581C470.279 421.331 466.811 423.508 466.059 423.642C465.306 423.777 463.532 423.831 463.263 422.54C462.994 421.25 461.14 423.884 459.325 423.616C457.511 423.347 461.435 420.511 458.949 421.788C456.463 423.065 450.724 423.616 450.724 423.616" stroke="#263238" stroke-linecap="round" stroke-linejoin="round"/>
<path d="M343.473 299.322C343.951 299.119 344.465 299.015 344.985 299.015C345.504 299.015 346.018 299.119 346.497 299.322L347.706 298.462C348.405 299.309 349.736 299.08 350.703 298.597C351.582 297.954 352.627 297.581 353.714 297.521C353.647 297.978 353.566 298.449 353.499 298.865C354.931 298.677 356.329 298.288 357.652 297.71C357.552 297.904 357.533 298.13 357.598 298.339C357.664 298.548 357.808 298.722 358.001 298.825C358.39 299.01 358.825 299.075 359.251 299.013L371.67 298.57L373.861 298.489C373.983 298.532 374.084 298.62 374.144 298.735C374.204 298.849 374.218 298.983 374.183 299.107C375.78 298.83 377.241 298.031 378.336 296.836C378.27 297.295 378.378 297.762 378.639 298.145C378.901 298.528 379.296 298.8 379.747 298.906C380.672 299.083 381.63 298.91 382.435 298.422C382.79 298.204 383.182 298.054 383.591 297.978C383.799 297.954 384.009 298.004 384.184 298.12C384.358 298.235 384.486 298.409 384.545 298.61C385.311 298.261 386.131 298.865 386.951 299.08C387.459 299.186 387.98 299.218 388.497 299.174L405.27 298.489L409.369 299.282C409.369 299.282 415.108 298.744 417.594 297.468C420.081 296.191 416.17 298.959 417.971 299.282C419.772 299.605 421.653 296.917 421.909 298.207C422.164 299.497 423.965 299.443 424.704 299.309C425.443 299.174 428.924 297.011 429.946 298.261C430.967 299.51 426.169 299.363 433.346 299.376C440.523 299.39 447.229 298.032 447.969 298.261C448.708 298.489 451.705 298.113 452.001 298.744C452.296 299.376 452.458 299.578 454.178 299.376C455.898 299.174 456.772 299.282 458.64 299.067C460.508 298.852 461.691 297.575 464.083 298.744C466.476 299.914 467.658 300.25 472.739 298.959C477.819 297.669 477.658 294.927 479.002 297.132C480.346 299.336 488.195 299.282 489.377 299.174" stroke="#263238" stroke-linecap="round" stroke-linejoin="round"/>
<path d="M489.108 272.953C488.598 272.953 489.619 272.953 489.108 272.859C488.302 272.644 489.875 272.039 489.108 272.389C489.041 271.972 481.528 271.73 481.112 271.77C480.702 271.837 480.309 271.983 479.956 272.2C479.151 272.689 478.193 272.861 477.268 272.684C476.829 272.564 476.449 272.287 476.202 271.905C475.954 271.524 475.855 271.064 475.924 270.615C474.826 271.809 473.367 272.611 471.771 272.899C471.806 272.773 471.792 272.638 471.733 272.521C471.673 272.404 471.571 272.313 471.448 272.268L469.258 272.348L456.839 272.805C456.412 272.856 455.979 272.786 455.589 272.604C455.396 272.501 455.251 272.326 455.186 272.117C455.121 271.909 455.14 271.683 455.24 271.488C453.916 272.066 452.518 272.455 451.087 272.644C451.167 272.174 451.235 271.703 451.302 271.3C450.217 271.366 449.173 271.739 448.291 272.375C447.323 272.859 445.993 273.087 445.294 272.241L444.084 273.114C443.607 272.908 443.092 272.802 442.572 272.802C442.052 272.802 441.538 272.908 441.06 273.114L428.964 271.932C428.964 271.932 423.373 272.053 422.486 271.555C421.599 271.058 418.454 272.805 418.454 272.805H414.422L409.275 272.993V272.012C407.287 272.43 405.269 272.696 403.24 272.805C400.337 272.913 399.665 273.329 399.531 272.012C399.396 270.695 395.633 272.375 392.65 272.993C389.666 273.612 390.271 273.491 389.37 272.012C388.47 270.534 387.354 272.214 385.795 272.819C384.985 273.178 384.108 273.363 383.221 273.363C382.335 273.363 381.458 273.178 380.648 272.819C379.304 271.999 373.484 273.329 371.119 273.356C368.753 273.383 371.025 272.698 370.527 271.555C370.03 270.413 368.337 273.491 366.737 273.356C365.138 273.222 368.081 270.279 365.837 270.507C363.711 271 361.681 271.84 359.829 272.993" stroke="#263238" stroke-linecap="round" stroke-linejoin="round"/>
<path d="M479.042 311.271C478.155 311.271 476.945 310.585 477.013 308.65C476.408 308.058 475.749 309.12 475.171 309.859C474.593 310.599 473.626 310.679 473.464 309.255C473.283 309.453 473.058 309.607 472.808 309.705C472.558 309.804 472.289 309.844 472.021 309.823C471.753 309.803 471.493 309.721 471.261 309.586C471.03 309.45 470.832 309.263 470.682 309.04C470.533 309.588 470.184 310.06 469.704 310.364C469.224 310.667 468.647 310.78 468.088 310.679L444.353 309.685C443.761 309.716 443.175 309.551 442.687 309.214C442.337 308.946 442.028 308.515 441.665 308.368C440.698 307.938 439.824 309.604 438.977 310.599C438.131 311.593 436.666 311.392 436.518 309.255C435.51 311.203 433.991 311.768 432.741 310.599C432.177 311.069 431.572 311.539 430.981 311.324C430.583 311.011 430.277 310.595 430.094 310.122C429.912 309.649 429.861 309.136 429.946 308.636C429.844 309.412 429.544 310.148 429.072 310.772C428.601 311.397 427.976 311.888 427.258 312.198C426.131 312.363 424.981 312.145 423.992 311.58L414.463 311.956C411.306 312.213 408.129 311.954 405.055 311.19C405.135 311.849 404.127 312.104 403.388 312.117L397.125 312.225C396.67 312.258 396.213 312.198 395.781 312.05C395.573 311.982 395.396 311.842 395.282 311.654C395.169 311.467 395.126 311.245 395.163 311.029C393.875 311.364 392.526 311.392 391.225 311.109C390.486 310.72 389.679 311.459 388.913 311.795C388.212 312.046 387.465 312.142 386.723 312.077L375.903 311.902C374.936 311.902 373.793 311.795 373.283 311.056C371.691 311.654 370.238 312.569 369.009 313.744C369.224 312.974 369.224 312.161 369.009 311.392C367.879 311.8 366.829 312.4 365.904 313.166C365.783 311.701 365.649 310.236 365.514 308.784C363.364 309.026 361.872 311.069 359.708 311.284C358.493 311.177 357.272 311.15 356.053 311.203C355.098 311.418 353.942 312.09 353.27 311.432C353.082 311.257 352.988 310.988 352.746 310.867C352.587 310.817 352.419 310.799 352.253 310.815C352.087 310.832 351.925 310.881 351.779 310.962C349.006 311.975 345.989 312.111 343.137 311.351" stroke="#263238" stroke-linecap="round" stroke-linejoin="round"/>
<path d="M342.048 338.823C342.048 338.823 346.631 338.285 348.62 336.995C350.609 335.705 347.478 338.5 348.929 338.823C350.381 339.145 351.872 336.444 352.088 337.734C352.303 339.024 353.727 338.984 354.319 338.849C354.91 338.715 357.692 336.538 358.512 337.788C359.332 339.038 355.488 338.903 361.2 338.917C366.912 338.93 372.315 337.573 372.906 337.788C373.497 338.003 375.89 337.64 376.132 338.285C376.374 338.93 376.495 339.105 377.865 338.917C379.236 338.729 379.949 338.823 381.44 338.608C382.932 338.393 383.887 337.102 385.808 338.285C387.73 339.468 388.671 339.777 392.73 338.5C396.789 337.223 396.668 334.468 397.743 336.659C398.818 338.85 399.41 338.823 400.364 338.715C401.318 338.608 406.103 338.5 411.586 338.393L421.505 338.057C424.352 338.822 427.365 338.69 430.134 337.68C430.28 337.6 430.441 337.55 430.608 337.534C430.774 337.518 430.942 337.536 431.101 337.586C431.343 337.707 431.451 337.962 431.639 338.151C432.297 338.796 433.453 338.151 434.421 337.909C435.64 337.867 436.861 337.898 438.077 338.003C440.227 337.788 441.719 335.745 443.883 335.49C444.004 336.954 444.138 338.419 444.272 339.871C445.193 339.11 446.239 338.514 447.364 338.11C447.585 338.879 447.585 339.694 447.364 340.462C448.587 339.28 450.042 338.365 451.638 337.774C452.148 338.514 453.277 338.608 454.245 338.621L465.078 338.796C465.82 338.859 466.567 338.763 467.268 338.513C468.034 338.177 468.841 337.438 469.58 337.815C470.879 338.108 472.23 338.085 473.518 337.747C473.481 337.964 473.524 338.186 473.637 338.373C473.751 338.561 473.928 338.701 474.136 338.769C474.569 338.913 475.026 338.967 475.48 338.93L481.743 338.823C482.482 338.823 483.477 338.567 483.41 337.909C486.461 338.661 486.098 338.93 489.189 338.675" stroke="#263238" stroke-linecap="round" stroke-linejoin="round"/>
<path d="M489.323 324.24C485.291 325.517 486.971 325.194 485.063 324.025C483.154 322.856 482.2 324.133 480.708 324.348C479.217 324.563 478.491 324.455 477.12 324.657C475.749 324.858 475.628 324.657 475.386 324.025C475.144 323.393 472.765 323.81 472.161 323.528C471.556 323.246 466.193 324.67 460.454 324.657C454.715 324.643 458.559 324.778 457.766 323.528C456.973 322.278 454.178 324.455 453.573 324.59C452.968 324.724 451.544 324.778 451.342 323.474C451.14 322.17 449.635 324.818 448.184 324.563C446.732 324.307 449.877 321.458 447.888 322.735C445.899 324.012 441.302 324.563 441.302 324.563L429.945 324.213L421.411 324.307C420.524 324.307 419.328 323.622 419.395 321.619C418.777 321.028 418.132 322.09 417.54 322.829C416.949 323.568 415.995 323.649 415.847 322.224C415.664 322.422 415.438 322.576 415.187 322.675C414.936 322.773 414.666 322.814 414.397 322.793C414.128 322.772 413.867 322.691 413.634 322.555C413.401 322.42 413.202 322.233 413.051 322.009C412.903 322.555 412.556 323.025 412.078 323.328C411.601 323.631 411.028 323.746 410.471 323.649L386.736 322.654C386.139 322.689 385.548 322.523 385.056 322.184C384.754 321.864 384.415 321.58 384.048 321.337C383.067 320.907 382.193 322.574 381.36 323.568C380.527 324.563 379.035 324.375 378.9 322.224C377.879 324.173 376.36 324.737 375.11 323.568C374.546 324.039 373.954 324.522 373.363 324.294C372.965 323.98 372.658 323.565 372.474 323.092C372.289 322.62 372.234 322.107 372.315 321.606C372.211 322.381 371.909 323.116 371.438 323.739C370.967 324.363 370.343 324.855 369.627 325.167C368.495 325.331 367.342 325.114 366.347 324.549" stroke="#263238" stroke-linecap="round" stroke-linejoin="round"/>
<path d="M489.323 236.06L465.588 235.052C464.995 235.091 464.407 234.925 463.922 234.582C463.614 234.262 463.272 233.978 462.9 233.735C461.933 233.319 461.059 234.972 460.212 235.98C459.366 236.988 457.887 236.773 457.753 234.636C456.731 236.584 455.213 237.149 453.963 235.98C453.398 236.45 452.807 236.934 452.202 236.719C451.808 236.402 451.504 235.987 451.322 235.514C451.14 235.042 451.087 234.53 451.167 234.031C451.064 234.806 450.762 235.54 450.291 236.164C449.82 236.788 449.196 237.28 448.479 237.592C447.348 237.745 446.198 237.528 445.2 236.974" stroke="#263238" stroke-linecap="round" stroke-linejoin="round"/>
<path d="M489.323 433.951L465.588 432.956C464.996 432.988 464.41 432.822 463.922 432.486C463.615 432.162 463.272 431.873 462.9 431.626C461.933 431.209 461.059 432.876 460.212 433.87C459.366 434.865 457.887 434.663 457.753 432.526C456.731 434.475 455.213 435.039 453.963 433.87C453.398 434.341 452.807 434.811 452.202 434.596C451.808 434.279 451.504 433.864 451.322 433.391C451.14 432.919 451.087 432.407 451.167 431.908C451.064 432.683 450.762 433.418 450.291 434.041C449.82 434.665 449.196 435.157 448.479 435.469C447.348 435.635 446.193 435.418 445.2 434.851" stroke="#263238" stroke-linecap="round" stroke-linejoin="round"/>
<path d="M342.048 363.982C345.609 364.743 349.303 364.609 352.8 363.593C353.182 363.429 353.607 363.396 354.009 363.498C354.305 363.619 354.426 363.875 354.668 364.063C355.501 364.708 356.926 364.063 358.122 363.821C359.587 363.552 361.146 364.036 362.651 363.915C365.339 363.7 367.181 361.657 369.869 361.402L370.352 365.783C371.54 365.01 372.835 364.417 374.196 364.023C374.471 364.783 374.471 365.615 374.196 366.375C375.785 365.159 377.585 364.248 379.505 363.687C380.443 364.371 381.605 364.673 382.758 364.533L396.198 364.708C397.103 364.77 398.013 364.675 398.886 364.426C399.84 364.09 400.834 363.351 401.762 363.74C403.383 364.023 405.043 363.995 406.654 363.66C406.479 364.063 406.882 364.493 407.407 364.681C407.967 364.828 408.548 364.887 409.127 364.856L416.909 364.735C417.823 364.735 419.072 364.48 418.978 363.821C422.826 364.582 426.757 364.839 430.671 364.587L440.267 365.098C441.666 364.681 443.156 364.681 444.555 365.098L446.262 364.224C447.256 365.071 449.151 364.856 450.522 364.359C451.857 363.709 453.312 363.343 454.796 363.283C454.702 363.754 454.594 364.211 454.5 364.627C456.497 364.444 458.469 364.056 460.387 363.472C460.024 363.834 460.387 364.372 460.871 364.587C461.448 364.77 462.055 364.839 462.658 364.789L480.265 364.332L483.383 364.251C483.732 364.318 483.961 364.627 483.84 364.883C485.831 364.648 487.716 363.861 489.283 362.611C488.96 363.512 488.033 364.439 489.283 364.668" stroke="#263238" stroke-linecap="round" stroke-linejoin="round"/>
<path d="M489.055 350.556C488.127 350.179 490.009 350.905 489.055 351.254C488.1 351.604 489.969 351.537 489.055 351.537L474.056 351.349C472.905 351.486 471.746 351.188 470.803 350.515C468.885 351.082 467.086 351.992 465.494 353.203C465.77 352.448 465.77 351.62 465.494 350.865C464.129 351.247 462.832 351.841 461.65 352.625L461.167 348.244C458.479 348.499 456.637 350.542 453.949 350.757C452.444 350.878 450.885 350.381 449.42 350.663C448.224 350.892 446.732 351.55 445.966 350.892C445.724 350.717 445.603 350.448 445.307 350.327C444.904 350.232 444.481 350.265 444.098 350.421C440.603 351.451 436.906 351.585 433.346 350.811L429.408 351.16L405.606 351.846C404.87 351.889 404.131 351.857 403.401 351.752C402.246 351.537 401.076 350.932 399.988 351.281C399.88 350.865 399.222 350.623 398.644 350.65C398.082 350.715 397.534 350.864 397.017 351.093C395.83 351.574 394.538 351.741 393.268 351.577C392.004 351.349 390.943 350.408 391.265 349.507C389.538 350.772 387.507 351.556 385.378 351.779C385.486 351.537 385.271 351.228 384.908 351.147L381.803 351.241L364.197 351.685C363.595 351.74 362.987 351.676 362.409 351.496C361.885 351.268 361.563 350.73 361.912 350.381C359.995 350.968 358.022 351.355 356.025 351.537C356.133 351.066 356.227 350.596 356.335 350.126C354.849 350.181 353.392 350.552 352.061 351.214C350.717 351.698 348.781 351.926 347.8 351.08L346.08 351.94C344.68 351.53 343.192 351.53 341.792 351.94" stroke="#263238" stroke-linecap="round" stroke-linejoin="round"/>
<path d="M341.766 377.785C342.876 378.064 344.024 378.164 345.166 378.081C345.747 378.036 346.308 377.852 346.804 377.546C347.3 377.24 347.715 376.819 348.015 376.32C348.009 376.635 348.113 376.941 348.309 377.187C348.506 377.432 348.782 377.601 349.09 377.664C349.721 377.709 350.353 377.584 350.918 377.301C351.574 377.568 352.291 377.644 352.988 377.521C353.685 377.397 354.333 377.079 354.856 376.602C355.004 377.678 356.496 377.785 357.41 377.288C358.324 376.79 359.238 375.944 360.246 376.172C360.609 376.285 360.964 376.425 361.307 376.589C361.867 376.77 362.454 376.851 363.041 376.831L387.73 377.328C388.211 377.407 388.704 377.374 389.17 377.232C389.636 377.09 390.063 376.842 390.418 376.508C390.862 376.747 391.354 376.881 391.857 376.899C392.361 376.918 392.862 376.821 393.321 376.616C393.483 377.328 394.491 377.274 395.096 376.911C395.7 376.549 396.372 376.024 397.004 376.32C396.937 377.274 398.187 377.664 399.114 377.664H407.985L411.129 377.503C412.528 377.086 414.018 377.086 415.417 377.503L417.137 376.629C418.132 377.476 420.027 377.247 421.398 376.764C422.73 376.106 424.187 375.739 425.672 375.688C425.564 376.159 425.47 376.616 425.362 377.032C427.363 376.85 429.341 376.463 431.263 375.877C430.9 376.239 431.263 376.777 431.746 376.992C432.323 377.177 432.931 377.245 433.534 377.194L451.14 376.737L454.245 376.656C454.608 376.723 454.823 377.032 454.715 377.288C456.843 377.053 458.873 376.265 460.602 375.003C460.28 375.917 461.355 376.844 462.605 377.073C463.875 377.245 465.169 377.078 466.354 376.589C466.876 376.363 467.429 376.218 467.994 376.159C468.572 376.159 469.231 376.36 469.338 376.777C470.497 376.666 471.666 376.827 472.752 377.247C473.481 377.36 474.22 377.391 474.956 377.342" stroke="#263238" stroke-linecap="round" stroke-linejoin="round"/>
<path d="M541.632 394.195V556.94C541.62 558.257 541.124 559.524 540.24 560.501C539.355 561.477 538.143 562.094 536.834 562.236H536.296H298.959H298.408C297.103 562.088 295.898 561.468 295.019 560.492C294.14 559.517 293.648 558.253 293.637 556.94V394.195L399.289 467.121L405.068 471.153L414.342 477.564L424.139 471.153L430.241 467.121L541.632 394.195Z" fill="#407BFF"/>
<path opacity="0.2" d="M541.632 554.817V556.416C541.678 557.803 541.216 559.158 540.332 560.228C539.449 561.297 538.204 562.007 536.834 562.222H536.296H298.959H298.408C297.043 562.001 295.805 561.289 294.927 560.22C294.048 559.151 293.59 557.799 293.637 556.416V554.803L399.289 467.107L405.068 471.139L414.342 477.55L424.139 471.139L430.241 467.107L541.632 554.817Z" fill="black"/>
<path d="M541.632 555.475V556.94C541.632 558.366 541.066 559.733 540.057 560.742C539.049 561.75 537.682 562.316 536.256 562.316H298.959C297.533 562.316 296.166 561.75 295.158 560.742C294.15 559.733 293.583 558.366 293.583 556.94V555.475L405.014 471.112L407.272 469.406C409.304 467.865 411.775 467.016 414.324 466.982C416.873 466.948 419.366 467.732 421.438 469.217L424.126 471.112L541.632 555.475Z" fill="#407BFF"/>
<path d="M256.704 222.123C257.955 220.728 259.546 219.682 261.322 219.086C263.098 218.49 264.999 218.365 266.838 218.722C273.558 219.784 286.998 231.504 285.748 244.164C284.498 256.825 280.6 268.356 276.622 268.867C276.622 268.867 273.087 264.365 254.513 264.929C235.939 265.494 239.313 253.747 242.337 244.379C245.361 235.012 244.474 217.728 256.704 222.123Z" fill="#263238"/>
<path d="M281.514 274.283C285.21 277.738 297.212 298.072 298.623 298.959C300.035 299.846 300.639 290.586 300.639 290.586L307.185 289.43C307.185 289.43 310.719 311.862 301.231 309.819C290.586 307.507 276.609 288.1 276.609 288.1C276.609 288.1 277.617 281.81 278.127 279.512C278.638 277.213 281.514 274.283 281.514 274.283Z" fill="#407BFF"/>
<path opacity="0.4" d="M301.231 309.819C293.005 308.031 282.804 296.056 278.584 290.694C277.334 289.108 276.609 288.1 276.609 288.1C276.609 288.1 277.146 284.78 277.617 282.092C277.805 281.071 277.993 280.143 278.127 279.512C278.652 277.2 281.514 274.283 281.514 274.283C285.21 277.738 297.212 298.072 298.623 298.959C300.035 299.846 300.639 290.586 300.639 290.586L307.185 289.43C307.185 289.43 310.719 311.808 301.231 309.819Z" fill="white"/>
<path opacity="0.2" d="M278.584 290.694C277.334 289.108 276.609 288.1 276.609 288.1C276.609 288.1 277.146 284.78 277.617 282.092C278.69 284.824 279.024 287.791 278.584 290.694Z" fill="black"/>
<path d="M275.681 290.868C273.961 296.029 272.617 300.491 271.528 304.497C268.604 314.527 266.717 324.831 265.897 335.247L224.515 330.799C223.427 301.231 224.515 284.928 225.416 276.81C226.424 268.168 227.768 267.873 227.768 267.873C227.768 267.873 237.176 267.147 245.347 267.375C251.667 267.708 257.956 268.494 264.163 269.727C270.05 270.822 275.849 272.344 281.514 274.283C280.506 276.971 279.592 279.552 278.746 281.958C277.617 285.156 276.595 288.113 275.681 290.868Z" fill="#407BFF"/>
<path opacity="0.4" d="M281.514 274.283C280.506 276.971 279.592 279.552 278.746 281.958C277.617 285.156 276.595 288.113 275.681 290.868C273.961 296.029 272.617 300.491 271.528 304.497C268.604 314.527 266.717 324.831 265.897 335.247L224.515 330.799C224.381 327.156 224.287 323.729 224.206 320.477C224.045 313.165 224.018 306.835 224.099 301.365C224.099 300.397 224.099 299.457 224.099 298.543C224.287 289.511 224.73 283.06 225.174 278.598C225.254 277.953 225.308 277.361 225.375 276.81C226.383 268.168 227.727 267.873 227.727 267.873C227.727 267.873 237.135 267.147 245.307 267.362C251.627 267.705 257.915 268.496 264.123 269.727C270.023 270.82 275.836 272.342 281.514 274.283Z" fill="white"/>
<path opacity="0.2" d="M229.246 280.076C229.246 280.076 228.265 290.989 224.139 298.543C224.327 289.511 224.771 283.06 225.214 278.598C226.612 278.929 227.965 279.425 229.246 280.076Z" fill="black"/>
<path opacity="0.2" d="M263.814 318.756L251.557 317.278C251.557 317.278 249.715 320.934 246.799 321.31C243.882 321.686 237.082 316.472 237.082 316.472C233.089 318.632 228.717 320.001 224.206 320.504C224.045 313.192 224.018 306.862 224.099 301.392C227.848 301.661 237.539 302.991 251.234 309.174C252.914 309.899 263.814 318.756 263.814 318.756Z" fill="black"/>
<path d="M302.911 550.449L294.43 551.94L290.949 540.382L287.777 529.778L297.548 526.351L300.398 539.105L302.911 550.449Z" fill="#E4897B"/>
<path opacity="0.2" d="M300.438 539.374L290.989 540.61L287.804 529.885L297.562 526.418L300.438 539.374Z" fill="black"/>
<path d="M246.315 554.346H237.7L236.289 542.223L235.012 531.162L245.226 529.455L245.804 542.626L246.315 554.346Z" fill="#E4897B"/>
<path opacity="0.2" d="M245.804 542.747L236.289 542.317L235.012 531.202L245.226 529.482L245.804 542.747Z" fill="black"/>
<path d="M301.231 532.641L287.294 535.1C273.235 500.062 263.236 470.817 256.166 446.544C252.363 433.453 249.191 421.801 246.906 411.465L247.336 449.608V535.53H233.601C199.181 371.562 223.803 330.624 223.803 330.624L264.768 327.344C266.404 334.974 267.557 342.7 268.222 350.475L270.077 364.143L286.205 447.297L301.231 532.641Z" fill="#263238"/>
<path opacity="0.2" d="M256.166 446.544C252.363 433.453 249.446 421.801 247.121 411.465C247.323 399.234 248.221 387.025 249.809 374.895C249.809 374.895 255.817 422.016 256.166 446.544Z" fill="black"/>
<path d="M224.394 324.052L266.824 326.538L266.152 333.85L223.4 331.269L224.394 324.052Z" fill="black"/>
<path d="M253.667 326.054C253.157 325.49 252.449 325.143 251.691 325.087L246.476 324.751C246.169 324.722 245.858 324.759 245.566 324.859C245.274 324.96 245.007 325.122 244.783 325.335C244.559 325.548 244.383 325.806 244.267 326.092C244.151 326.379 244.098 326.686 244.111 326.995V330.355C244.127 331.077 244.395 331.771 244.868 332.316C245.342 332.861 245.992 333.223 246.705 333.339H246.933L252.148 333.661C252.454 333.688 252.763 333.65 253.053 333.548C253.344 333.446 253.609 333.284 253.832 333.071C254.054 332.859 254.229 332.601 254.344 332.316C254.459 332.031 254.513 331.724 254.5 331.417V328.07C254.484 327.318 254.187 326.598 253.667 326.054ZM252.027 332.331L246.812 332.008C246.44 331.985 246.092 331.816 245.845 331.538C245.591 331.268 245.448 330.913 245.441 330.543V327.197C245.437 327.047 245.464 326.897 245.522 326.759C245.579 326.62 245.665 326.495 245.775 326.393C245.884 326.29 246.014 326.211 246.155 326.162C246.297 326.113 246.448 326.095 246.597 326.108L251.812 326.431H251.919C252.245 326.492 252.542 326.657 252.766 326.901C253.02 327.165 253.164 327.516 253.169 327.882V328.393C253.103 328.381 253.034 328.381 252.968 328.393L251.503 328.285C251.392 328.277 251.28 328.293 251.176 328.332C251.072 328.371 250.978 328.433 250.9 328.512C250.822 328.591 250.762 328.687 250.725 328.791C250.687 328.896 250.673 329.008 250.683 329.119C250.709 329.364 250.817 329.594 250.991 329.77C251.164 329.945 251.392 330.057 251.637 330.086L253.102 330.194H253.169V331.296C253.168 331.441 253.137 331.584 253.078 331.716C253.018 331.848 252.932 331.966 252.825 332.064C252.718 332.161 252.591 332.235 252.454 332.281C252.317 332.327 252.171 332.344 252.027 332.331Z" fill="white"/>
<path d="M235.684 548.473C235.684 547.586 246.758 548.285 246.758 548.285C246.758 548.285 253.546 555.193 260.198 556.752C266.851 558.311 263.115 562.262 255.736 562.262H237.431C232.19 562.262 235.469 557.76 235.684 548.473Z" fill="#263238"/>
<path d="M252.565 551.107C250.97 550.928 249.42 550.474 247.982 549.763L247.887 549.696C247.861 549.622 247.861 549.541 247.887 549.467C247.887 549.36 248.855 546.78 250.36 546.161C250.583 546.055 250.826 546 251.073 546C251.319 546 251.563 546.055 251.785 546.161C252.296 546.403 252.538 546.712 252.511 547.089C252.511 547.667 251.691 548.258 250.79 548.728C251.628 548.583 252.49 548.676 253.277 548.997C253.419 549.077 253.544 549.184 253.644 549.314C253.743 549.443 253.815 549.592 253.855 549.75C253.934 549.95 253.952 550.169 253.907 550.38C253.861 550.59 253.754 550.783 253.599 550.932C253.285 551.107 252.919 551.169 252.565 551.107ZM249.003 549.521C250.629 550.22 252.645 550.865 253.169 550.395C253.169 550.395 253.358 550.247 253.169 549.817C253.149 549.733 253.111 549.655 253.058 549.588C253.004 549.521 252.937 549.466 252.86 549.427C251.589 549.111 250.257 549.143 249.003 549.521ZM250.979 546.484C250.822 546.484 250.666 546.516 250.522 546.578C249.656 547.153 248.994 547.985 248.627 548.957C250.266 548.325 251.852 547.478 251.879 546.981C251.879 546.82 251.637 546.672 251.489 546.605C251.33 546.528 251.156 546.487 250.979 546.484Z" fill="#263238"/>
<path d="M292.132 548.473C292.132 547.586 303.207 548.285 303.207 548.285C303.207 548.285 309.994 555.193 316.647 556.752C323.299 558.311 319.563 562.262 312.184 562.262H293.879C288.638 562.262 291.917 557.76 292.132 548.473Z" fill="#263238"/>
<path d="M309.013 551.107C307.418 550.928 305.868 550.474 304.43 549.763L304.335 549.696C304.309 549.622 304.309 549.541 304.335 549.467C304.335 549.36 305.303 546.78 306.808 546.161C307.031 546.055 307.274 546 307.521 546C307.767 546 308.011 546.055 308.233 546.161C308.744 546.403 308.986 546.712 308.959 547.089C308.959 547.667 308.139 548.258 307.238 548.728C308.076 548.583 308.938 548.676 309.725 548.997C309.867 549.077 309.992 549.184 310.092 549.314C310.191 549.443 310.263 549.592 310.303 549.75C310.382 549.95 310.4 550.169 310.355 550.38C310.309 550.59 310.202 550.783 310.047 550.932C309.733 551.107 309.367 551.169 309.013 551.107ZM305.451 549.521C307.077 550.22 309.093 550.865 309.617 550.395C309.617 550.395 309.806 550.247 309.617 549.817C309.597 549.733 309.559 549.655 309.506 549.588C309.452 549.521 309.385 549.466 309.308 549.427C308.037 549.111 306.705 549.143 305.451 549.521ZM307.427 546.484C307.27 546.484 307.114 546.516 306.97 546.578C306.104 547.153 305.442 547.985 305.075 548.957C306.714 548.325 308.3 547.478 308.327 546.981C308.327 546.82 308.085 546.672 307.937 546.605C307.778 546.528 307.604 546.487 307.427 546.484Z" fill="#263238"/>
<path d="M293.57 264.996C293.57 264.996 281.783 275.937 281.299 279.915C280.815 283.893 278.127 298.959 278.127 298.959H298.623C298.623 298.959 301.822 284.525 303.408 281.958C304.994 279.391 313.515 272.214 313.515 272.214L293.57 264.996Z" fill="#407BFF"/>
<path opacity="0.7" d="M293.57 264.996C293.57 264.996 281.783 275.937 281.299 279.915C280.815 283.893 278.127 298.959 278.127 298.959H298.623C298.623 298.959 301.822 284.525 303.408 281.958C304.994 279.391 313.515 272.214 313.515 272.214L293.57 264.996Z" fill="white"/>
<path d="M234.071 267.456C236.294 271.02 239.278 274.048 242.811 276.32C246.343 278.593 250.335 280.055 254.5 280.6C268.464 282.2 273.316 271.73 273.316 271.73C273.316 271.73 254.5 264.996 234.071 267.456Z" fill="#EEC1BB"/>
<path d="M254.916 278.45C246.18 273.813 244.904 268.854 244.904 268.854C252.806 265.561 251.556 254.218 251.556 254.218L261.825 260.454C260.99 261.892 260.258 263.388 259.634 264.929C257.027 271.649 260.024 272.818 260.024 272.818C260.602 277.173 254.916 278.45 254.916 278.45Z" fill="#EEC1BB"/>
<path opacity="0.2" d="M261.825 260.454C260.99 261.892 260.258 263.388 259.634 264.929C252.175 262.12 251.57 254.177 251.57 254.177L261.825 260.454Z" fill="black"/>
<path d="M267.375 227.27C277.173 230.362 278.665 236.678 276.192 246.933C273.101 259.836 267.469 267.913 256.032 261.341C240.576 252.43 251.1 222.123 267.375 227.27Z" fill="#EEC1BB"/>
<path d="M270.023 244.379C270.345 246.094 270.873 247.764 271.596 249.352C271.18 249.664 270.687 249.856 270.17 249.906C269.653 249.955 269.133 249.862 268.666 249.634L270.023 244.379Z" fill="#D4827D"/>
<path d="M264.284 241.691C264.056 242.498 263.424 243.035 262.94 242.874C262.456 242.713 262.147 241.933 262.376 241.113C262.604 240.294 263.249 239.769 263.72 239.931C264.19 240.092 264.526 240.872 264.284 241.691Z" fill="#263238"/>
<path d="M263.491 239.904L265.467 239.729C265.467 239.729 264.15 240.952 263.491 239.904Z" fill="#263238"/>
<path d="M274.418 244.447C274.176 245.253 273.544 245.791 273.007 245.629C272.469 245.468 272.214 244.689 272.456 243.882C272.698 243.076 273.316 242.538 273.867 242.7C274.418 242.861 274.646 243.64 274.418 244.447Z" fill="#263238"/>
<path d="M273.625 242.673L275.587 242.484C275.587 242.484 274.284 243.721 273.625 242.673Z" fill="#263238"/>
<path d="M266.327 234.891C265.582 234.553 264.77 234.389 263.953 234.413C263.135 234.436 262.334 234.645 261.61 235.025" stroke="#263238" stroke-width="0.72468" stroke-linecap="round" stroke-linejoin="round"/>
<path d="M273.571 236.732C274.294 236.773 274.998 236.977 275.631 237.329C276.264 237.68 276.81 238.17 277.227 238.761" stroke="#263238" stroke-width="0.72468" stroke-linecap="round" stroke-linejoin="round"/>
<path d="M266.018 253.048C265.204 254.004 264.463 255.019 263.8 256.086L263.182 255.83C260.494 254.634 259.54 253.142 259.392 251.906C259.331 251.289 259.418 250.667 259.647 250.091C259.771 249.761 259.938 249.449 260.145 249.164C261.523 250.654 263.205 251.832 265.077 252.618C265.642 252.9 266.018 253.048 266.018 253.048Z" fill="#263238"/>
<path d="M265.077 252.672L264.405 253.559C261.811 252.43 260.131 251.288 259.647 250.145C259.771 249.815 259.938 249.503 260.145 249.218C261.523 250.708 263.205 251.886 265.077 252.672Z" fill="white"/>
<path d="M263.182 255.83C260.494 254.634 259.54 253.142 259.392 251.906C260.434 252.376 261.381 253.032 262.188 253.841C262.727 254.378 263.076 255.077 263.182 255.83Z" fill="#DE5753"/>
<path d="M251.449 240.401C251.449 240.401 258.572 233.802 259.836 227.364C259.836 227.364 281.756 225.563 276.488 245.575C276.488 245.575 283.92 228.681 267.201 222.969C250.481 217.257 242.767 241.92 249.137 252C249.137 252 247.014 244.608 251.449 240.401Z" fill="#263238"/>
<path d="M252.39 242.968C252.651 241.806 252.441 240.588 251.806 239.581C251.172 238.573 250.164 237.858 249.003 237.592C245.858 236.974 242.444 242.74 249.527 246.624C250.535 247.175 251.489 246.301 252.39 242.968Z" fill="#EEC1BB"/>
<path d="M306.808 289.498L306.298 285.183C306.298 285.183 307.292 282.495 306.808 281.393C305.895 279.203 300.088 276.501 299.215 276.017C298.341 275.533 294.242 282.052 294.78 283.369C295.317 284.686 302.051 287.71 302.051 287.71V290.398L306.808 289.498Z" fill="#EEC1BB"/>
<path d="M271.273 308.757L265.709 300.868C265.709 300.868 251.422 302.521 251.234 302.951L246.866 313.152C246.819 313.264 246.795 313.384 246.796 313.505C246.797 313.626 246.823 313.746 246.872 313.857C246.921 313.968 246.993 314.067 247.082 314.149C247.171 314.231 247.276 314.295 247.39 314.335L265.561 320.49C265.77 320.559 265.997 320.548 266.199 320.458C266.4 320.369 266.561 320.208 266.65 320.006L271.206 309.765C271.307 309.439 271.331 309.094 271.273 308.757Z" fill="#407BFF"/>
<path opacity="0.1" d="M271.313 309.12C268.636 310.134 265.735 310.412 262.913 309.926C258.223 308.878 251.234 302.924 251.234 302.924C251.422 302.494 265.709 300.841 265.709 300.841L271.273 308.73C271.273 308.73 271.3 308.918 271.313 309.12Z" fill="black"/>
<path opacity="0.1" d="M252.175 303.193C258.217 306.127 264.67 308.126 271.313 309.12C271.313 309.12 260.481 305.518 252.175 303.193Z" fill="black"/>
<path d="M226.195 307.682L241.96 308.824C241.96 308.824 244.447 307.158 245.791 307.48C247.135 307.803 254.312 311.727 254.46 312.856C254.607 313.985 250.79 319.066 249.084 318.824C247.377 318.582 241.651 314.254 241.262 313.636L222.446 313.985L226.195 307.682Z" fill="#EEC1BB"/>
<path d="M228.991 267.792C230.886 268.397 232.391 274.283 227.432 284.283C227.432 284.283 220.712 299.457 222.056 301.997C223.574 305.074 237.122 307.588 237.122 307.588L236.047 316.27C236.047 316.27 218.077 318.756 212.943 307.547C207.809 296.338 222.593 265.722 228.991 267.792Z" fill="#407BFF"/>
<path opacity="0.4" d="M228.991 267.792C230.886 268.397 232.391 274.283 227.432 284.283C227.432 284.283 220.712 299.457 222.056 301.997C223.574 305.074 237.122 307.588 237.122 307.588L236.047 316.27C236.047 316.27 218.077 318.756 212.943 307.547C207.809 296.338 222.593 265.722 228.991 267.792Z" fill="white"/>
<path d="M265.453 222.513C265.453 222.513 273.518 216.814 282.563 229.394C285.187 232.913 286.887 237.034 287.507 241.38C288.127 245.727 287.647 250.159 286.111 254.271" stroke="#263238" stroke-width="0.5" stroke-linecap="round" stroke-linejoin="round"/>
</svg>
